{
.appVersion = "1356";
DisplayStrings = (
GaSand
);
classes = (
{
automatic = 1;
code = "A Aacute Abreve Acircumflex Adieresis Agrave Amacron Aogonek Aring Aringacute Atilde AE AEacute B C Cacute Ccaron Ccedilla Cdotaccent D Eth Dcaron Dcroat E Eacute Ebreve Ecaron Ecircumflex Edieresis Edotaccent Egrave Emacron Eogonek F G Gacute Gbreve Gcaron Gcommaaccent Gdotaccent H Hbar I IJ IJ_acutecomb Iacute Ibreve Icircumflex Idieresis Idotaccent Idotbelow Igrave Imacron Iogonek Itilde J K Kcommaaccent L Lacute Lcaron Lcommaaccent Ldot Lslash M N Nacute Ncaron Ncommaaccent Eng Ntilde O Oacute Obreve Ocircumflex Odieresis Odotbelow Ograve Ohungarumlaut Omacron Oslash Oslashacute Otilde OE P Thorn Q R Racute Rcaron Rcommaaccent S Sacute Scaron Scedilla Scommaaccent Germandbls Schwa T Tbar Tcaron Tcedilla Tcommaaccent U Uacute Ubreve Ucircumflex Udieresis Udotbelow Ugrave Uhungarumlaut Umacron Uogonek Uring Utilde V W Wacute Wcircumflex Wdieresis Wgrave X Y Yacute Ycircumflex Ydieresis Ygrave Ymacron Ytilde Z Zacute Zcaron Zdotaccent G.ss02 Gacute.ss02 Gbreve.ss02 Gcaron.ss02 Gcommaaccent.ss02 Gdotaccent.ss02";
name = Uppercase;
}
);
copyright = "Copyright 2021 The SplineUI Project Authors (https://github.com/SorkinType/SplineSansUI)";
customParameters = (
{
name = Axes;
value = (
{
Name = Weight;
Tag = wght;
}
);
},
{
name = fsType;
value = (
);
},
{
name = "Use Extension Kerning";
value = 1;
},
{
name = "Use Typo Metrics";
value = 1;
},
{
name = "Enforce Compatibility Check";
value = 1;
},
{
name = blueScale;
value = 0.037;
},
{
name = blueShift;
value = 5;
},
{
name = blueFuzz;
value = 0;
},
{
name = license;
value = "This Font Software is licensed under the SIL Open Font License, Version 1.1. This license is available with a FAQ at: https://scripts.sil.org/OFL";
},
{
name = licenseURL;
value = "http://scripts.sil.org/OFL";
},
{
name = "Variable Font Origin";
value = "09AB1441-CF14-483D-884E-606841830E4D";
},
{
name = "Axis Mappings";
value = {
wght = {
300 = 120;

glyphs = (
{
glyphname = A;
lastChange = "2021-11-17 04:04:56 +0000";
layers = (
{
anchors = (
{
name = bottom;
position = "{623, 0}";
},
{
name = ogonek;
position = "{1210, 0}";
},
{
name = top;
position = "{623, 1454}";
}
);
background = {
paths = (
{
closed = 1;
nodes = (
"168 0 LINE",
"547 1141 LINE",
"621 1367 LINE",
"622 1367 LINE",
"698 1141 LINE",
"1077 0 LINE",
"1210 0 LINE",
"725 1454 LINE",
"521 1454 LINE",
"35 0 LINE"
);
},
{
closed = 1;
nodes = (
"1047 392 LINE",
"982 510 LINE",
"281 510 LINE",
"219 392 LINE"
);
}
);
};
layerId = "0D9D1AFE-BAFC-449A-A530-9FCA9CDF2E2E";
paths = (
{
closed = 1;
nodes = (
"168 0 LINE",
"547 1141 LINE",
"621 1367 LINE",
"622 1367 LINE",
"698 1141 LINE",
"922 467 LINE",
"962 510 LINE",
"281 510 LINE",
"219 392 LINE",
"1001 392 LINE",
"929 446 LINE",
"1077 0 LINE",
"1210 0 LINE",
"725 1454 LINE",
"521 1454 LINE",
"35 0 LINE"
);
}
);
width = 1245;
},
{
anchors = (
{
name = bottom;
position = "{648, 0}";
},
{
name = ogonek;
position = "{1285, 0}";
},
{
name = top;
position = "{658, 1454}";
}
);
background = {
paths = (
{
closed = 1;
nodes = (
"268 0 LINE",
"564 951 LINE",
"653 1284 LINE",
"660 1284 LINE",
"752 951 LINE",
"1047 0 LINE",
"1285 0 LINE",
"800 1454 LINE",
"516 1454 LINE",
"30 0 LINE"
);
},
{
closed = 1;
nodes = (
"992 343 LINE",
"907 533 LINE",
"406 533 LINE",
"324 343 LINE"
);
}
);
};
layerId = "09AB1441-CF14-483D-884E-606841830E4D";
paths = (
{
closed = 1;
nodes = (
"268 0 LINE",
"564 951 LINE",
"653 1284 LINE",
"660 1284 LINE",
"752 951 LINE",
"912 435 LINE",
"983 533 LINE",
"406 533 LINE",
"324 343 LINE",
"1042 343 LINE",
"913 432 LINE",
"1047 0 LINE",
"1285 0 LINE",
"800 1454 LINE",
"516 1454 LINE",
"30 0 LINE"
);
}
);
width = 1315;
},
{
anchors = (
{
name = bottom;
position = "{687, 0}";
},
{
name = ogonek;
position = "{1375, 0}";
},
{
name = top;
position = "{691, 1454}";
}
);
background = {
paths = (
{
closed = 1;
nodes = (
"348 0 LINE",
"610 947 LINE",
"682 1244 LINE",
"698 1244 LINE",
"771 947 LINE",
"1035 0 LINE",
"1372 0 LINE",
"935 1454 LINE",
"448 1454 LINE",
"11 0 LINE"
);
},
{
closed = 1;
nodes = (
"1019 338 LINE",
"1000 590 LINE",
"381 590 LINE",
"363 338 LINE"
);
}
);
};
layerId = "BF6BC6F6-4B2A-4E9B-9E28-8B62B2F12FD9";
paths = (
{
closed = 1;
nodes = (
"348 0 LINE",
"610 947 LINE",
"682 1244 LINE",
"698 1244 LINE",
"771 947 LINE",
"903 474 LINE",
"1010 590 LINE",
"381 590 LINE",
"363 338 LINE",
"1080 338 LINE",
"904 470 LINE",
"1035 0 LINE",
"1372 0 LINE",
"935 1454 LINE",
"448 1454 LINE",
"11 0 LINE"
);
}
);
width = 1383;
}
);
rightMetricsKey = "=|";
unicode = 0041;
},
{
glyphname = AE;
lastChange = "2021-11-17 04:04:56 +0000";
layers = (
{
anchors = (
{
name = bottom;
position = "{873, 0}";
},
{
name = top;
position = "{1083, 1454}";
}
);
layerId = "0D9D1AFE-BAFC-449A-A530-9FCA9CDF2E2E";
paths = (
{
closed = 1;
nodes = (
"118 0 LINE",
"701 1141 LINE",
"821 1427 LINE",
"893 1427 LINE",
"822 1454 LINE",
"721 1454 LINE",
"-25 0 LINE"
);
},
{
closed = 1;
nodes = (
"868 392 LINE",
"868 510 LINE",
"281 510 LINE",
"219 392 LINE"
);
},
{
closed = 1;
nodes = (
"1636 0 LINE",
"1636 119 LINE",
"898 119 LINE",
"947 58 LINE",
"947 729 LINE",
"898 702 LINE",
"1569 702 LINE",
"1569 818 LINE",
"898 818 LINE",
"947 789 LINE",
"947 1387 LINE",
"898 1336 LINE",
"1616 1336 LINE",
"1616 1454 LINE",
"822 1454 LINE",
"822 0 LINE"
);
}
);
width = 1711;
},
{
anchors = (
{
name = bottom;
position = "{964, 0}";
},
{
name = top;
position = "{964, 1454}";
}
);
layerId = "09AB1441-CF14-483D-884E-606841830E4D";
paths = (
{
closed = 1;
nodes = (
"198 0 LINE",
"781 1141 LINE",
"901 1427 LINE",
"973 1427 LINE",
"902 1454 LINE",
"701 1454 LINE",
"-55 0 LINE"
);
},
{
closed = 1;
nodes = (
"948 372 LINE",
"948 570 LINE",
"361 570 LINE",
"299 372 LINE"
);
},
{
closed = 1;
nodes = (
"1773 0 LINE",
"1773 212 LINE",
"1002 212 LINE",
"1102 98 LINE",
"1102 729 LINE",
"1048 651 LINE",
"1716 651 LINE",
"1716 858 LINE",
"1002 858 LINE",
"1102 789 LINE",
"1102 1357 LINE",
"1002 1244 LINE",
"1763 1244 LINE",
"1763 1454 LINE",
"879 1454 LINE",
"879 0 LINE"
);
}
);
width = 1848;
},
{
anchors = (
{
name = bottom;
position = "{1059, 0}";
},
{
name = top;
position = "{1050, 1454}";
}
);
layerId = "BF6BC6F6-4B2A-4E9B-9E28-8B62B2F12FD9";
paths = (
{
closed = 1;
nodes = (
"275 0 LINE",
"858 1141 LINE",
"978 1427 LINE",
"1027 1427 LINE",
"956 1454 LINE",
"709 1454 LINE",
"-70 0 LINE"
);
},
{
closed = 1;
nodes = (
"956 357 LINE",
"956 616 LINE",
"384 616 LINE",
"260 357 LINE"
);
},
{
closed = 1;
nodes = (
"1843 0 LINE",
"1843 289 LINE",
"1126 289 LINE",
"1224 214 LINE",
"1224 663 LINE",
"1136 601 LINE",
"1762 601 LINE",
"1762 887 LINE",
"1126 887 LINE",
"1224 824 LINE",
"1224 1241 LINE",
"1126 1167 LINE",
"1825 1167 LINE",
"1825 1454 LINE",
"909.991 1454 LINE",
"909.991 0 LINE"
);
}
);
width = 1918;
}
);
rightMetricsKey = E;
unicode = 00C6;
},
{
glyphname = B;
lastChange = "2021-11-17 04:04:56 +0000";
layers = (
{
anchors = (
{
name = bottom;
position = "{622, 0}";
},
{
name = top;
position = "{622, 1454}";
}
);
layerId = "0D9D1AFE-BAFC-449A-A530-9FCA9CDF2E2E";
paths = (
{
closed = 1;
nodes = (
"672 0 LINE SMOOTH",
"950 0 OFFCURVE",
"1163 118 OFFCURVE",
"1163 445 CURVE SMOOTH",
"1163 662 OFFCURVE",
"1008 771 OFFCURVE",
"845 773 CURVE",
"1003 803 OFFCURVE",
"1109 918 OFFCURVE",
"1109 1091 CURVE SMOOTH",
"1109 1296 OFFCURVE",
"972 1454 OFFCURVE",
"656 1454 CURVE SMOOTH",
"180 1454 LINE",
"180 0 LINE"
);
},
{
closed = 1;
nodes = (
"305 701 LINE",
"688 701 LINE SMOOTH",
"892 701 OFFCURVE",
"1033 642 OFFCURVE",
"1033 431 CURVE SMOOTH",
"1033 222 OFFCURVE",
"922 118 OFFCURVE",
"656 118 CURVE SMOOTH",
"305 118 LINE"
);
},
{
closed = 1;
nodes = (
"305 1336 LINE",
"670 1336 LINE SMOOTH",
"894 1336 OFFCURVE",
"980 1236 OFFCURVE",
"979 1084 CURVE SMOOTH",
"978 881 OFFCURVE",
"814 818 OFFCURVE",
"670 818 CURVE SMOOTH",
"305 818 LINE"
);
}
);
width = 1253;
},
{
anchors = (
{
name = bottom;
position = "{622, 0}";
},
{
name = top;
position = "{622, 1454}";
}
);
layerId = "09AB1441-CF14-483D-884E-606841830E4D";
paths = (
{
closed = 1;
nodes = (
"662 0 LINE SMOOTH",
"940 0 OFFCURVE",
"1147 142 OFFCURVE",
"1147 459 CURVE SMOOTH",
"1147 676 OFFCURVE",
"1030 778 OFFCURVE",
"830 790 CURVE",
"1000 803 OFFCURVE",
"1103 918 OFFCURVE",
"1103 1091 CURVE SMOOTH",
"1103 1290 OFFCURVE",
"966 1454 OFFCURVE",
"650 1454 CURVE SMOOTH",
"164 1454 LINE",
"164 0 LINE"
);
},
{
closed = 1;
nodes = (
"382 664 LINE",
"612 664 LINE SMOOTH",
"776 664 OFFCURVE",
"912 656 OFFCURVE",
"912 445 CURVE SMOOTH",
"912 256 OFFCURVE",
"812 210 OFFCURVE",
"610 210 CURVE SMOOTH",
"382 210 LINE"
);
},
{
closed = 1;
nodes = (
"382 1246 LINE",
"604 1246 LINE SMOOTH",
"758 1246 OFFCURVE",
"866 1203 OFFCURVE",
"865 1074 CURVE SMOOTH",
"864 928 OFFCURVE",
"808 851 OFFCURVE",
"604 851 CURVE SMOOTH",
"382 851 LINE"
);
}
);
width = 1247;
},
{
anchors = (
{
name = bottom;
position = "{631, 0}";
},
{
name = top;
position = "{631, 1454}";
}
);
layerId = "BF6BC6F6-4B2A-4E9B-9E28-8B62B2F12FD9";
paths = (
{
closed = 1;
nodes = (
"650 0 LINE SMOOTH",
"990 0 OFFCURVE",
"1185 163 OFFCURVE",
"1185 444 CURVE SMOOTH",
"1185 655 OFFCURVE",
"1068 767 OFFCURVE",
"849 790 CURVE",
"1015 804 OFFCURVE",
"1131 918 OFFCURVE",
"1131 1098 CURVE SMOOTH",
"1131 1309 OFFCURVE",
"977 1454 OFFCURVE",
"645 1454 CURVE SMOOTH",
"138 1454 LINE",
"138 0 LINE"
);
},
{
closed = 1;
nodes = (
"450 637 LINE",
"619 637 LINE SMOOTH",
"768 637 OFFCURVE",
"853 612 OFFCURVE",
"853 453 CURVE SMOOTH",
"853 316 OFFCURVE",
"791 264 OFFCURVE",
"632 264 CURVE SMOOTH",
"450 264 LINE"
);
},
{
closed = 1;
nodes = (
"450 1192 LINE",
"615 1192 LINE SMOOTH",
"736 1192 OFFCURVE",
"810 1146 OFFCURVE",
"810 1038 CURVE SMOOTH",
"810 923 OFFCURVE",
"748 863 OFFCURVE",
"623 863 CURVE SMOOTH",
"450 863 LINE"
);
}
);
width = 1242;
}
);
leftMetricsKey = H;
unicode = 0042;
},
{
glyphname = C;
lastChange = "2021-11-17 04:04:56 +0000";
layers = (
{
anchors = (
{
name = bottom;
position = "{739, 0}";
},
{
name = top;
position = "{709, 1454}";
}
);
layerId = "0D9D1AFE-BAFC-449A-A530-9FCA9CDF2E2E";
paths = (
{
closed = 1;
nodes = (
"1032 -21 OFFCURVE",
"1253 167 OFFCURVE",
"1274 450 CURVE",
"1149 450 LINE",
"1142 259 OFFCURVE",
"954 95 OFFCURVE",
"737 95 CURVE SMOOTH",
"431 95 OFFCURVE",
"215 320 OFFCURVE",
"215 733 CURVE SMOOTH",
"215 1118 OFFCURVE",
"411 1365 OFFCURVE",
"736 1365 CURVE SMOOTH",
"968 1365 OFFCURVE",
"1139 1210 OFFCURVE",
"1147 989 CURVE",
"1275 989 LINE",
"1265 1287 OFFCURVE",
"1048 1481 OFFCURVE",
"741 1481 CURVE SMOOTH",
"340 1481 OFFCURVE",
"85 1178 OFFCURVE",
"85 731 CURVE SMOOTH",
"85 270 OFFCURVE",
"348 -21 OFFCURVE",
"739 -21 CURVE SMOOTH"
);
}
);
width = 1358;
},
{
anchors = (
{
name = bottom;
position = "{744, 0}";
},
{
name = top;
position = "{734, 1454}";
}
);
layerId = "09AB1441-CF14-483D-884E-606841830E4D";
paths = (
{
closed = 1;
nodes = (
"1087 -21 OFFCURVE",
"1271 154 OFFCURVE",
"1289 450 CURVE",
"1061 450 LINE",
"1048 311 OFFCURVE",
"982 186 OFFCURVE",
"746 186 CURVE SMOOTH",
"527 186 OFFCURVE",
"327 314 OFFCURVE",
"327 729 CURVE SMOOTH",
"327 1081 OFFCURVE",
"520 1274 OFFCURVE",
"738 1274 CURVE SMOOTH",
"898 1274 OFFCURVE",
"1045 1197 OFFCURVE",
"1059 989 CURVE",
"1287 989 LINE",
"1277 1326 OFFCURVE",
"1021 1481 OFFCURVE",
"747 1481 CURVE SMOOTH",
"366 1481 OFFCURVE",
"97 1194 OFFCURVE",
"97 729 CURVE SMOOTH",
"97 232 OFFCURVE",
"378 -21 OFFCURVE",
"740 -21 CURVE SMOOTH"
);
}
);
width = 1370;
},
{
anchors = (
{
name = bottom;
position = "{737, 0}";
},
{
name = top;
position = "{729, 1454}";
}
);
layerId = "BF6BC6F6-4B2A-4E9B-9E28-8B62B2F12FD9";
paths = (
{
closed = 1;
nodes = (
"1073 -21 OFFCURVE",
"1322 169 OFFCURVE",
"1320 470 CURVE",
"994 470 LINE",
"993 348 OFFCURVE",
"900 279 OFFCURVE",
"737 279 CURVE SMOOTH",
"544 279 OFFCURVE",
"415 420 OFFCURVE",
"415 727 CURVE SMOOTH",
"415 1041 OFFCURVE",
"540 1181 OFFCURVE",
"736 1181 CURVE SMOOTH",
"879 1181 OFFCURVE",
"990 1121 OFFCURVE",
"992 963 CURVE",
"1317 963 LINE",
"1319 1296 OFFCURVE",
"1073 1481 OFFCURVE",
"760 1481 CURVE SMOOTH",
"326 1481 OFFCURVE",
"90 1194 OFFCURVE",
"90 734 CURVE SMOOTH",
"90 263 OFFCURVE",
"335 -21 OFFCURVE",
"757 -21 CURVE SMOOTH"
);
}
);
width = 1369;
}
);
unicode = 0043;
},
{
glyphname = D;
lastChange = "2021-11-17 04:04:56 +0000";
layers = (
{
anchors = (
{
name = bottom;
position = "{655, 0}";
},
{
name = center;
position = "{239, 727}";
},
{
name = top;
position = "{655, 1454}";
}
);
layerId = "0D9D1AFE-BAFC-449A-A530-9FCA9CDF2E2E";
paths = (
{
closed = 1;
nodes = (
"553 0 LINE SMOOTH",
"948 0 OFFCURVE",
"1229 254 OFFCURVE",
"1229 736 CURVE SMOOTH",
"1229 1230 OFFCURVE",
"948 1454 OFFCURVE",
"552 1454 CURVE SMOOTH",
"272 1454 LINE",
"272 1335 LINE",
"535 1335 LINE SMOOTH",
"912 1335 OFFCURVE",
"1099 1116 OFFCURVE",
"1099 734 CURVE SMOOTH",
"1099 370 OFFCURVE",
"912 119 OFFCURVE",
"536 119 CURVE SMOOTH",
"281 119 LINE",
"280 0 LINE"
);
},
{
closed = 1;
nodes = (
"305 0 LINE",
"305 1454 LINE",
"180 1454 LINE",
"180 0 LINE"
);
}
);
width = 1319;
},
{
anchors = (
{
name = bottom;
position = "{675, 0}";
},
{
name = center;
position = "{275, 727}";
},
{
name = top;
position = "{675, 1454}";
}
);
layerId = "09AB1441-CF14-483D-884E-606841830E4D";
paths = (
{
closed = 1;
nodes = (
"608 0 LINE SMOOTH",
"981 0 OFFCURVE",
"1284 250 OFFCURVE",
"1284 736 CURVE SMOOTH",
"1284 1236 OFFCURVE",
"1000 1454 OFFCURVE",
"607 1454 CURVE SMOOTH",
"358 1454 LINE",
"358 1246 LINE",
"607 1246 LINE SMOOTH",
"844 1246 OFFCURVE",
"1049 1115 OFFCURVE",
"1049 734 CURVE SMOOTH",
"1049 371 OFFCURVE",
"844 219 OFFCURVE",
"608 219 CURVE SMOOTH",
"366 219 LINE",
"366 0 LINE"
);
},
{
closed = 1;
nodes = (
"392 0 LINE",
"392 1454 LINE",
"164 1454 LINE",
"164 0 LINE"
);
}
);
width = 1354;
},
{
anchors = (
{
name = bottom;
position = "{689, 0}";
},
{
name = center;
position = "{290, 727}";
},
{
name = top;
position = "{642, 1454}";
}
);
layerId = "BF6BC6F6-4B2A-4E9B-9E28-8B62B2F12FD9";
paths = (
{
closed = 1;
nodes = (
"601 0 LINE SMOOTH",
"1037 0 OFFCURVE",
"1312 276 OFFCURVE",
"1312 744 CURVE SMOOTH",
"1312 1207 OFFCURVE",
"1053 1454 OFFCURVE",
"592 1454 CURVE SMOOTH",
"374 1454 LINE",
"374 1167 LINE",
"543 1167 LINE SMOOTH",
"856 1167 OFFCURVE",
"984 1060 OFFCURVE",
"984 740 CURVE SMOOTH",
"984 416 OFFCURVE",
"849 290 OFFCURVE",
"544 290 CURVE SMOOTH",
"381 290 LINE",
"382 0 LINE"
);
},
{
closed = 1;
nodes = (
"456 0 LINE",
"456 1454 LINE",
"138 1454 LINE",
"138 0 LINE"
);
}
);
width = 1355;
}
);
leftMetricsKey = H;
unicode = 0044;
},
{
glyphname = E;
lastChange = "2021-11-17 04:04:56 +0000";
layers = (
{
anchors = (
{
name = bottom;
position = "{642, 0}";
},
{
name = ogonek;
position = "{1074, 0}";
},
{
name = top;
position = "{631, 1454}";
},
{
name = topleft;
position = "{-5, 1454}";
}
);
layerId = "0D9D1AFE-BAFC-449A-A530-9FCA9CDF2E2E";
paths = (
{
closed = 1;
nodes = (
"1074 0 LINE",
"1074 119 LINE",
"256 119 LINE",
"305 58 LINE",
"305 729 LINE",
"256 702 LINE",
"1002 702 LINE",
"1002 818 LINE",
"256 818 LINE",
"305 789 LINE",
"305 1387 LINE",
"256 1336 LINE",
"1054 1336 LINE",
"1054 1454 LINE",
"180 1454 LINE",
"180 0 LINE"
);
}
);
width = 1149;
},
{
anchors = (
{
name = bottom;
position = "{615, 0}";
},
{
name = ogonek;
position = "{1058, 0}";
},
{
name = top;
position = "{614, 1454}";
},
{
name = topleft;
position = "{16, 1454}";
}
);
layerId = "09AB1441-CF14-483D-884E-606841830E4D";
paths = (
{
closed = 1;
nodes = (
"1058 0 LINE",
"1058 212 LINE",
"287 212 LINE",
"387 98 LINE",
"387 729 LINE",
"333 651 LINE",
"995 651 LINE",
"995 858 LINE",
"287 858 LINE",
"387 789 LINE",
"387 1357 LINE",
"287 1244 LINE",
"1048 1244 LINE",
"1048 1454 LINE",
"164 1454 LINE",
"164 0 LINE"
);
}
);
width = 1133;
},
{
anchors = (
{
name = bottom;
position = "{588, 0}";
},
{
name = ogonek;
position = "{1070, 0}";
},
{
name = top;
position = "{585, 1454}";
},
{
name = topleft;
position = "{35, 1454}";
}
);
layerId = "BF6BC6F6-4B2A-4E9B-9E28-8B62B2F12FD9";
paths = (
{
closed = 1;
nodes = (
"1047 0 LINE",
"1047 289 LINE",
"354 289 LINE",
"451 214 LINE",
"451 663 LINE",
"364 601 LINE",
"962 601 LINE",
"962 887 LINE",
"354 887 LINE",
"451 824 LINE",
"451 1241 LINE",
"354 1167 LINE",
"1029 1167 LINE",
"1029 1454 LINE",
"138 1454 LINE",
"138 0 LINE"
);
}
);
width = 1122;
}
);
leftMetricsKey = H;
unicode = 0045;
},
{
glyphname = F;
lastChange = "2021-11-17 04:04:56 +0000";
layers = (
{
anchors = (
{
name = bottom;
position = "{551, 0}";
},
{
name = top;
position = "{551, 1454}";
}
);
layerId = "0D9D1AFE-BAFC-449A-A530-9FCA9CDF2E2E";
paths = (
{
closed = 1;
nodes = (
"305 0 LINE",
"305 723 LINE",
"275 701 LINE",
"950 701 LINE",
"950 817 LINE",
"274 817 LINE",
"305 794 LINE",
"305 1390 LINE",
"264 1336 LINE",
"1012 1336 LINE",
"1012 1454 LINE",
"180 1454 LINE",
"180 0 LINE"
);
}
);
width = 1082;
},
{
anchors = (
{
name = bottom;
position = "{547, 0}";
},
{
name = top;
position = "{547, 1454}";
}
);
layerId = "09AB1441-CF14-483D-884E-606841830E4D";
paths = (
{
closed = 1;
nodes = (
"387 0 LINE",
"387 689 LINE",
"358 617 LINE",
"936 617 LINE",
"936 821 LINE",
"287 821 LINE",
"387 749 LINE",
"387 1357 LINE",
"287 1244 LINE",
"998 1244 LINE",
"998 1454 LINE",
"164 1454 LINE",
"164 0 LINE"
);
}
);
width = 1068;
},
{
anchors = (
{
name = bottom;
position = "{539, 0}";
},
{
name = top;
position = "{539, 1454}";
}
);
layerId = "BF6BC6F6-4B2A-4E9B-9E28-8B62B2F12FD9";
paths = (
{
closed = 1;
nodes = (
"455 0 LINE",
"455 667 LINE",
"332 560 LINE",
"936 560 LINE",
"936 848 LINE",
"261 848 LINE",
"455 725 LINE",
"455 1357 LINE",
"262 1167 LINE",
"989 1167 LINE",
"987 1454 LINE",
"138 1454 LINE",
"138 0 LINE"
);
}
);
width = 1057;
}
);
leftMetricsKey = H;
unicode = 0046;
},
{
glyphname = G;
lastChange = "2021-11-17 04:04:56 +0000";
layers = (
{
anchors = (
{
name = bottom;
position = "{773, 0}";
},
{
name = top;
position = "{753, 1454}";
}
);
layerId = "0D9D1AFE-BAFC-449A-A530-9FCA9CDF2E2E";
paths = (
{
closed = 1;
nodes = (
"991 -20 OFFCURVE",
"1166 55 OFFCURVE",
"1308 165 CURVE",
"1310 730 LINE",
"830 730 LINE",
"830 611 LINE",
"1185 611 LINE",
"1183 227 LINE",
"1104 147 OFFCURVE",
"905 96 OFFCURVE",
"786 96 CURVE SMOOTH",
"506 96 OFFCURVE",
"239 300 OFFCURVE",
"239 731 CURVE SMOOTH",
"239 1152 OFFCURVE",
"500 1365 OFFCURVE",
"752 1365 CURVE SMOOTH",
"1014 1365 OFFCURVE",
"1147 1167 OFFCURVE",
"1167 1047 CURVE",
"1300 1047 LINE",
"1256 1339 OFFCURVE",
"1035 1481 OFFCURVE",
"767 1481 CURVE SMOOTH",
"372 1481 OFFCURVE",
"109 1191 OFFCURVE",
"109 731 CURVE SMOOTH",
"109 271 OFFCURVE",
"372 -20 OFFCURVE",
"787 -20 CURVE SMOOTH"
);
}
);
width = 1430;
},
{
anchors = (
{
name = bottom;
position = "{713, 0}";
},
{
name = top;
position = "{743, 1454}";
}
);
layerId = "09AB1441-CF14-483D-884E-606841830E4D";
paths = (
{
closed = 1;
nodes = (
"979 -20 OFFCURVE",
"1156 55 OFFCURVE",
"1298 165 CURVE",
"1300 770 LINE",
"778 770 LINE",
"778 568 LINE",
"1087 568 LINE",
"1087 279 LINE",
"1018 218 OFFCURVE",
"891 187 OFFCURVE",
"774 187 CURVE SMOOTH",
"495 187 OFFCURVE",
"327 391 OFFCURVE",
"327 731 CURVE SMOOTH",
"327 1070 OFFCURVE",
"492 1274 OFFCURVE",
"749 1274 CURVE SMOOTH",
"920 1274 OFFCURVE",
"1038 1168 OFFCURVE",
"1058 1027 CURVE",
"1288 1027 LINE",
"1244 1339 OFFCURVE",
"1023 1481 OFFCURVE",
"755 1481 CURVE SMOOTH",
"360 1481 OFFCURVE",
"97 1191 OFFCURVE",
"97 731 CURVE SMOOTH",
"97 271 OFFCURVE",
"360 -20 OFFCURVE",
"775 -20 CURVE SMOOTH"
);
}
);
width = 1420;
},
{
anchors = (
{
name = bottom;
position = "{762, 0}";
},
{
name = top;
position = "{744, 1454}";
}
);
layerId = "BF6BC6F6-4B2A-4E9B-9E28-8B62B2F12FD9";
paths = (
{
closed = 1;
nodes = (
"984 -20 OFFCURVE",
"1161 58 OFFCURVE",
"1324 180 CURVE",
"1324 793 LINE",
"773 793 LINE",
"773 529 LINE",
"1024 529 LINE",
"1024 354 LINE",
"963 304 OFFCURVE",
"854 282 OFFCURVE",
"762 282 CURVE SMOOTH",
"512 282 OFFCURVE",
"398 441 OFFCURVE",
"398 730 CURVE SMOOTH",
"398 1025 OFFCURVE",
"532 1179 OFFCURVE",
"747 1179 CURVE SMOOTH",
"920 1179 OFFCURVE",
"982 1060 OFFCURVE",
"1000 990 CURVE",
"1306 990 LINE",
"1296 1311 OFFCURVE",
"1034 1481 OFFCURVE",
"746 1481 CURVE SMOOTH",
"351 1481 OFFCURVE",
"73 1211 OFFCURVE",
"73 737 CURVE SMOOTH",
"73 256 OFFCURVE",
"361 -20 OFFCURVE",
"754 -20 CURVE SMOOTH"
);
}
);
width = 1404;
}
);
leftMetricsKey = O;
unicode = 0047;
},
{
glyphname = H;
lastChange = "2021-11-17 04:04:56 +0000";
layers = (
{
anchors = (
{
name = bottom;
position = "{684, 0}";
},
{
name = center;
position = "{684, 727}";
},
{
name = top;
position = "{684, 1454}";
},
{
name = topleft;
position = "{10, 1454}";
}
);
layerId = "0D9D1AFE-BAFC-449A-A530-9FCA9CDF2E2E";
paths = (
{
closed = 1;
nodes = (
"1188 0 LINE",
"1188 1454 LINE",
"1063 1454 LINE",
"1063 0 LINE"
);
},
{
closed = 1;
nodes = (
"305 0 LINE",
"305 1454 LINE",
"180 1454 LINE",
"180 0 LINE"
);
},
{
closed = 1;
nodes = (
"1091 686 LINE",
"1094 804 LINE",
"278 804 LINE",
"278 686 LINE"
);
}
);
width = 1368;
},
{
anchors = (
{
name = bottom;
position = "{683, 0}";
},
{
name = center;
position = "{683, 727}";
},
{
name = top;
position = "{683, 1454}";
},
{
name = topleft;
position = "{16, 1454}";
}
);
layerId = "09AB1441-CF14-483D-884E-606841830E4D";
paths = (
{
closed = 1;
nodes = (
"1202 0 LINE",
"1202 1454 LINE",
"978 1454 LINE",
"978 0 LINE"
);
},
{
closed = 1;
nodes = (
"388 0 LINE",
"388 1454 LINE",
"164 1454 LINE",
"164 0 LINE"
);
},
{
closed = 1;
nodes = (
"1011 646 LINE",
"1014 846 LINE",
"320 846 LINE",
"320 646 LINE"
);
}
);
width = 1366;
},
{
anchors = (
{
name = bottom;
position = "{699, 0}";
},
{
name = center;
position = "{699, 727}";
},
{
name = top;
position = "{699, 1454}";
},
{
name = topleft;
position = "{27, 1454}";
}
);
layerId = "BF6BC6F6-4B2A-4E9B-9E28-8B62B2F12FD9";
paths = (
{
closed = 1;
nodes = (
"1261 0 LINE",
"1261 1454 LINE",
"942 1454 LINE",
"942 0 LINE"
);
},
{
closed = 1;
nodes = (
"457 0 LINE",
"457 1454 LINE",
"138 1454 LINE",
"138 0 LINE"
);
},
{
closed = 1;
nodes = (
"994 603 LINE",
"995 889 LINE",
"363 889 LINE",
"363 603 LINE"
);
}
);
width = 1399;
}
);
rightMetricsKey = "=|";
unicode = 0048;
},
{
glyphname = Hbar;
lastChange = "2021-11-16 19:31:17 +0000";
layers = (
{
layerId = "0D9D1AFE-BAFC-449A-A530-9FCA9CDF2E2E";
paths = (
{
closed = 1;
nodes = (
"1198 0 LINE",
"1198 1454 LINE",
"1073 1454 LINE",
"1073 0 LINE"
);
},
{
closed = 1;
nodes = (
"315 0 LINE",
"315 1454 LINE",
"190 1454 LINE",
"190 0 LINE"
);
},
{
closed = 1;
nodes = (
"1101 600 LINE",
"1104 715 LINE",
"288 715 LINE",
"288 600 LINE"
);
},
{
closed = 1;
nodes = (
"1335 996 LINE",
"1338 1111 LINE",
"50 1111 LINE",
"50 996 LINE"
);
}
);
width = 1388;
},
{
layerId = "09AB1441-CF14-483D-884E-606841830E4D";
paths = (
{
closed = 1;
nodes = (
"1206 0 LINE",
"1206 1454 LINE",
"982 1454 LINE",
"982 0 LINE"
);
},
{
closed = 1;
nodes = (
"392 0 LINE",
"392 1454 LINE",
"168 1454 LINE",
"168 0 LINE"
);
},
{
closed = 1;
nodes = (
"1015 540 LINE",
"1018 736 LINE",
"324 736 LINE",
"324 540 LINE"
);
},
{
closed = 1;
nodes = (
"1391 945 LINE",
"1394 1141 LINE",
"-20 1141 LINE",
"-20 945 LINE"
);
}
);
width = 1374;
},
{
layerId = "BF6BC6F6-4B2A-4E9B-9E28-8B62B2F12FD9";
paths = (
{
closed = 1;
nodes = (
"1254 0 LINE",
"1254 1454 LINE",
"936 1454 LINE",
"936 0 LINE"
);
},
{
closed = 1;
nodes = (
"449 0 LINE",
"449 1454 LINE",
"131 1454 LINE",
"131 0 LINE"
);
},
{
closed = 1;
nodes = (
"1001 452 LINE",
"1004 710 LINE",
"372 710 LINE",
"372 452 LINE"
);
},
{
closed = 1;
nodes = (
"1386 891 LINE",
"1389 1149 LINE",
"-5 1149 LINE",
"-5 891 LINE"
);
}
);
width = 1385;
}
);
unicode = 0126;
},
{
glyphname = I;
lastChange = "2021-11-17 04:04:56 +0000";
layers = (
{
anchors = (
{
name = bottom;
position = "{251, 0}";
},
{
name = ogonek;
position = "{314, 0}";
},
{
name = top;
position = "{251, 1454}";
},
{
name = topleft;
position = "{1, 1454}";
}
);
layerId = "0D9D1AFE-BAFC-449A-A530-9FCA9CDF2E2E";
paths = (
{
closed = 1;
nodes = (
"314 0 LINE",
"314 1454 LINE",
"188 1454 LINE",
"188 0 LINE"
);
}
);
width = 502;
},
{
anchors = (
{
name = bottom;
position = "{272, 0}";
},
{
name = ogonek;
position = "{387, 0}";
},
{
name = top;
position = "{272, 1454}";
},
{
name = topleft;
position = "{20, 1454}";
}
);
layerId = "09AB1441-CF14-483D-884E-606841830E4D";
paths = (
{
closed = 1;
nodes = (
"387 0 LINE",
"387 1454 LINE",
"157 1454 LINE",
"157 0 LINE"
);
}
);
width = 544;
},
{
anchors = (
{
name = bottom;
position = "{292, 0}";
},
{
name = ogonek;
position = "{451, 0}";
},
{
name = top;
position = "{292, 1454}";
},
{
name = topleft;
position = "{28, 1454}";
}
);
layerId = "BF6BC6F6-4B2A-4E9B-9E28-8B62B2F12FD9";
paths = (
{
closed = 1;
nodes = (
"451 0 LINE",
"451 1454 LINE",
"132 1454 LINE",
"132 0 LINE"
);
}
);
width = 583;
}
);
rightMetricsKey = "=|";
unicode = 0049;
},
{
glyphname = J;
lastChange = "2021-11-17 04:04:56 +0000";
layers = (
{
anchors = (
{
name = bottom;
position = "{515, 0}";
},
{
name = top;
position = "{831, 1454}";
}
);
layerId = "0D9D1AFE-BAFC-449A-A530-9FCA9CDF2E2E";
paths = (
{
closed = 1;
nodes = (
"722 -30 OFFCURVE",
"897 113 OFFCURVE",
"897 461 CURVE SMOOTH",
"897 1454 LINE",
"771 1454 LINE",
"771 441 LINE SMOOTH",
"771 213 OFFCURVE",
"681 89 OFFCURVE",
"484 89 CURVE SMOOTH",
"282 89 OFFCURVE",
"175 220 OFFCURVE",
"168 395 CURVE",
"42 395 LINE",
"49 138 OFFCURVE",
"208 -30 OFFCURVE",
"473 -30 CURVE SMOOTH"
);
}
);
width = 1029;
},
{
anchors = (
{
name = bottom;
position = "{505, 0}";
},
{
name = top;
position = "{762, 1454}";
}
);
layerId = "09AB1441-CF14-483D-884E-606841830E4D";
paths = (
{
closed = 1;
nodes = (
"734 -30 OFFCURVE",
"879 113 OFFCURVE",
"879 461 CURVE SMOOTH",
"879 1454 LINE",
"648 1454 LINE",
"648 441 LINE SMOOTH",
"648 206 OFFCURVE",
"572 176 OFFCURVE",
"448 176 CURVE SMOOTH",
"304 176 OFFCURVE",
"230 245 OFFCURVE",
"232 395 CURVE",
"20 395 LINE",
"27 59 OFFCURVE",
"230 -30 OFFCURVE",
"453 -30 CURVE SMOOTH"
);
}
);
width = 1009;
},
{
anchors = (
{
name = bottom;
position = "{548, 0}";
},
{
name = top;
position = "{840, 1454}";
}
);
layerId = "BF6BC6F6-4B2A-4E9B-9E28-8B62B2F12FD9";
paths = (
{
closed = 1;
nodes = (
"852 -30 OFFCURVE",
"1003 142 OFFCURVE",
"1003 497 CURVE SMOOTH",
"1003 1454 LINE",
"684 1454 LINE",
"684 477 LINE SMOOTH",
"684 304 OFFCURVE",
"642 256 OFFCURVE",
"523 256 CURVE SMOOTH",
"402 256 OFFCURVE",
"352 312 OFFCURVE",
"353 485 CURVE",
"35 485 LINE",
"42 127 OFFCURVE",
"221 -30 OFFCURVE",
"529 -30 CURVE SMOOTH"
);
}
);
width = 1110;
}
);
unicode = 004A;
},
{
glyphname = K;
lastChange = "2021-11-17 04:04:56 +0000";
layers = (
{
anchors = (
{
name = bottom;
position = "{629, 0}";
},
{
name = top;
position = "{579, 1454}";
}
);
layerId = "0D9D1AFE-BAFC-449A-A530-9FCA9CDF2E2E";
paths = (
{
closed = 1;
nodes = (
"560 734 LINE",
"607 788 LINE",
"1128 1454 LINE",
"978 1454 LINE",
"535 881 LINE",
"269 551 LINE",
"301 436 LINE"
);
},
{
closed = 1;
nodes = (
"305 0 LINE",
"305 1454 LINE",
"180 1454 LINE",
"180 0 LINE"
);
},
{
closed = 1;
nodes = (
"1158 0 LINE",
"599 864 LINE",
"511 779 LINE",
"1001 0 LINE"
);
}
);
width = 1168;
},
{
anchors = (
{
name = bottom;
position = "{650, 0}";
},
{
name = top;
position = "{620, 1454}";
}
);
layerId = "09AB1441-CF14-483D-884E-606841830E4D";
paths = (
{
closed = 1;
nodes = (
"632 725 LINE",
"700 783 LINE",
"1204 1454 LINE",
"919 1454 LINE",
"533 909 LINE",
"356 632 LINE",
"388 409 LINE"
);
},
{
closed = 1;
nodes = (
"392 0 LINE",
"392 1454 LINE",
"164 1454 LINE",
"164 0 LINE"
);
},
{
closed = 1;
nodes = (
"1224 0 LINE",
"710 889 LINE",
"533 782 LINE",
"963 0 LINE"
);
}
);
width = 1244;
},
{
anchors = (
{
name = bottom;
position = "{706, 0}";
},
{
name = top;
position = "{689, 1454}";
}
);
layerId = "BF6BC6F6-4B2A-4E9B-9E28-8B62B2F12FD9";
paths = (
{
closed = 1;
nodes = (
"674 679 LINE",
"801 775 LINE",
"1298 1454 LINE",
"926 1454 LINE",
"567 948 LINE",
"390 640 LINE",
"422 363 LINE"
);
},
{
closed = 1;
nodes = (
"456 0 LINE",
"456 1454 LINE",
"138 1454 LINE",
"138 0 LINE"
);
},
{
closed = 1;
nodes = (
"1347 0 LINE",
"784 920 LINE",
"544 736 LINE",
"968 0 LINE"
);
}
);
width = 1348;
}
);
leftMetricsKey = H;
unicode = 004B;
},
{
glyphname = L;
lastChange = "2021-11-17 04:04:56 +0000";
layers = (
{
anchors = (
{
name = bottom;
position = "{522, 0}";
},
{
name = center;
position = "{243, 774}";
},
{
name = top;
position = "{241, 1454}";
},
{
name = topright;
position = "{589, 1091}";
}
);
layerId = "0D9D1AFE-BAFC-449A-A530-9FCA9CDF2E2E";
paths = (
{
closed = 1;
nodes = (
"974 0 LINE",
"974 120 LINE",
"223 120 LINE",
"305 58 LINE",
"305 1454 LINE",
"180 1454 LINE",
"180 0 LINE"
);
}
);
width = 1054;
},
{
anchors = (
{
name = bottom;
position = "{537, 0}";
},
{
name = center;
position = "{274, 774}";
},
{
name = top;
position = "{275, 1454}";
},
{
name = topright;
position = "{586, 1091}";
}
);
layerId = "09AB1441-CF14-483D-884E-606841830E4D";
paths = (
{
closed = 1;
nodes = (
"1008 0 LINE",
"1008 214 LINE",
"287 214 LINE",
"390 98 LINE",
"390 1454 LINE",
"164 1454 LINE",
"164 0 LINE"
);
}
);
width = 1078;
},
{
anchors = (
{
name = bottom;
position = "{529, 0}";
},
{
name = center;
position = "{300, 774}";
},
{
name = top;
position = "{301, 1454}";
},
{
name = topright;
position = "{618, 1091}";
}
);
layerId = "BF6BC6F6-4B2A-4E9B-9E28-8B62B2F12FD9";
paths = (
{
closed = 1;
nodes = (
"981 0 LINE",
"981 293 LINE",
"260 293 LINE",
"458 98 LINE",
"458 1454 LINE",
"138 1454 LINE",
"138 0 LINE"
);
}
);
width = 1012;
}
);
leftMetricsKey = H;
unicode = 004C;
},
{
glyphname = M;
lastChange = "2021-11-17 04:04:56 +0000";
layers = (
{
anchors = (
{
name = bottom;
position = "{835, 0}";
},
{
name = top;
position = "{835, 1454}";
}
);
layerId = "0D9D1AFE-BAFC-449A-A530-9FCA9CDF2E2E";
paths = (
{
closed = 1;
nodes = (
"305 0 LINE",
"305 849 LINE",
"295 1374 LINE",
"302 1374 LINE",
"489 863 LINE",
"791 0 LINE",
"891 0 LINE",
"1181 863 LINE",
"1367 1374 LINE",
"1374 1374 LINE",
"1364 849 LINE",
"1364 0 LINE",
"1489 0 LINE",
"1489 1454 LINE",
"1264 1454 LINE",
"943 570 LINE",
"840 190 LINE",
"837 190 LINE",
"732 570 LINE",
"405 1454 LINE",
"180 1454 LINE",
"180 0 LINE"
);
}
);
width = 1669;
},
{
anchors = (
{
name = bottom;
position = "{844, 0}";
},
{
name = top;
position = "{844, 1454}";
}
);
layerId = "09AB1441-CF14-483D-884E-606841830E4D";
paths = (
{
closed = 1;
nodes = (
"386 0 LINE",
"386 849 LINE",
"375 1214 LINE",
"382 1214 LINE",
"497 863 LINE",
"799 0 LINE",
"901 0 LINE",
"1191 863 LINE",
"1306 1214 LINE",
"1313 1214 LINE",
"1301 849 LINE",
"1301 0 LINE",
"1523 0 LINE",
"1523 1454 LINE",
"1170 1454 LINE",
"947 744 LINE",
"848 430 LINE",
"842 430 LINE",
"747 744 LINE",
"516 1454 LINE",
"164 1454 LINE",
"164 0 LINE"
);
}
);
width = 1687;
},
{
anchors = (
{
name = bottom;
position = "{903, 0}";
},
{
name = top;
position = "{903, 1454}";
}
);
layerId = "BF6BC6F6-4B2A-4E9B-9E28-8B62B2F12FD9";
paths = (
{
closed = 1;
nodes = (
"449 0 LINE",
"449 735 LINE",
"418 1205 LINE",
"428 1205 LINE",
"563 738 LINE",
"776 0 LINE",
"1033 0 LINE",
"1243 738 LINE",
"1378 1205 LINE",
"1388 1205 LINE",
"1357 735 LINE",
"1357 0 LINE",
"1668 0 LINE",
"1668 1454 LINE",
"1138 1454 LINE",
"957 648 LINE",
"905 399 LINE",
"901 399 LINE",
"850 648 LINE",
"666 1454 LINE",
"138 1454 LINE",
"138 0 LINE"
);
}
);
width = 1806;
}
);
leftMetricsKey = H;
rightMetricsKey = "=|";
unicode = 004D;
},
{
glyphname = N;
lastChange = "2021-11-17 04:04:56 +0000";
layers = (
{
anchors = (
{
name = bottom;
position = "{657, 0}";
},
{
name = top;
position = "{688, 1454}";
}
);
layerId = "0D9D1AFE-BAFC-449A-A530-9FCA9CDF2E2E";
paths = (
{
closed = 1;
nodes = (
"305 0 LINE",
"305 950 LINE",
"287 1375 LINE",
"295 1375 LINE",
"503 950 LINE",
"999 0 LINE",
"1194 0 LINE",
"1194 1454 LINE",
"1069 1454 LINE",
"1069 502 LINE",
"1088 79 LINE",
"1081 79 LINE",
"873 502 LINE",
"375 1454 LINE",
"180 1454 LINE",
"180 0 LINE"
);
}
);
width = 1374;
},
{
anchors = (
{
name = bottom;
position = "{717, 0}";
},
{
name = top;
position = "{700, 1454}";
}
);
layerId = "09AB1441-CF14-483D-884E-606841830E4D";
paths = (
{
closed = 1;
nodes = (
"388 0 LINE",
"388 849 LINE",
"359 1174 LINE",
"368 1174 LINE",
"499 873 LINE",
"996 0 LINE",
"1240 0 LINE",
"1240 1454 LINE",
"1016 1454 LINE",
"1016 582 LINE",
"1054 266 LINE",
"1045 266 LINE",
"910 572 LINE",
"408 1454 LINE",
"164 1454 LINE",
"164 0 LINE"
);
}
);
width = 1404;
},
{
anchors = (
{
name = bottom;
position = "{745, 0}";
},
{
name = top;
position = "{737, 1454}";
}
);
layerId = "BF6BC6F6-4B2A-4E9B-9E28-8B62B2F12FD9";
paths = (
{
closed = 1;
nodes = (
"447 0 LINE",
"447 709 LINE",
"407 1141 LINE",
"417 1141 LINE",
"522 864 LINE",
"939 0 LINE",
"1348 0 LINE",
"1348 1454 LINE",
"1039 1454 LINE",
"1039 659 LINE",
"1081 286 LINE",
"1074 286 LINE",
"963 590 LINE",
"544 1454 LINE",
"138 1454 LINE",
"138 0 LINE"
);
}
);
width = 1486;
}
);
leftMetricsKey = H;
rightMetricsKey = H;
unicode = 004E;
},
{
glyphname = Eng;
lastChange = "2021-11-16 19:31:17 +0000";
layers = (
{
layerId = "0D9D1AFE-BAFC-449A-A530-9FCA9CDF2E2E";
paths = (
{
closed = 1;
nodes = (
"1029 -454 OFFCURVE",
"1204 -288 OFFCURVE",
"1204 0 CURVE SMOOTH",
"1204 1454 LINE",
"1079 1454 LINE",
"1079 502 LINE",
"1106 164 LINE",
"1093 164 LINE",
"863 571 LINE",
"328 1454 LINE",
"190 1454 LINE",
"190 0 LINE",
"315 0 LINE",
"315 849 LINE",
"297 1274 LINE",
"309 1274 LINE",
"527 888 LINE",
"1077 -19 LINE",
"1067 -224 OFFCURVE",
"977 -335 OFFCURVE",
"791 -335 CURVE SMOOTH",
"762 -335 OFFCURVE",
"734 -332 OFFCURVE",
"709 -327 CURVE",
"709 -450 LINE",
"732 -453 OFFCURVE",
"755 -454 OFFCURVE",
"780 -454 CURVE SMOOTH"
);
}
);
width = 1394;
},
{
layerId = "09AB1441-CF14-483D-884E-606841830E4D";
paths = (
{
closed = 1;
nodes = (
"1121 -462 OFFCURVE",
"1266 -327 OFFCURVE",
"1274 0 CURVE",
"1274 1454 LINE",
"1050 1454 LINE",
"1050 582 LINE",
"1088 266 LINE",
"1077 266 LINE",
"954 572 LINE",
"402 1454 LINE",
"168 1454 LINE",
"168 0 LINE",
"392 0 LINE",
"392 849 LINE",
"363 1174 LINE",
"385 1174 LINE",
"493 873 LINE",
"1043 -5 LINE",
"1040 -227 OFFCURVE",
"964 -256 OFFCURVE",
"843 -256 CURVE SMOOTH",
"833 -256 OFFCURVE",
"812 -255 OFFCURVE",
"793 -251 CURVE",
"793 -457 LINE",
"814 -461 OFFCURVE",
"837 -462 OFFCURVE",
"848 -462 CURVE SMOOTH"
);
}
);
width = 1442;
},
{
layerId = "BF6BC6F6-4B2A-4E9B-9E28-8B62B2F12FD9";
paths = (
{
closed = 1;
nodes = (
"1161 -460 OFFCURVE",
"1312 -303 OFFCURVE",
"1314 0 CURVE SMOOTH",
"1314 1454 LINE",
"1013 1454 LINE",
"1013 652 LINE",
"1048 406 LINE",
"1039 406 LINE",
"963 594 LINE",
"473 1454 LINE",
"131 1454 LINE",
"131 0 LINE",
"432 0 LINE",
"432 829 LINE",
"401 1073 LINE",
"413 1073 LINE",
"482 864 LINE",
"995 -27 LINE",
"992 -158 OFFCURVE",
"949 -200 OFFCURVE",
"834 -200 CURVE SMOOTH",
"821 -200 OFFCURVE",
"795 -198 OFFCURVE",
"770 -194 CURVE",
"770 -455 LINE",
"799 -459 OFFCURVE",
"828 -460 OFFCURVE",
"840 -460 CURVE SMOOTH"
);
}
);
width = 1445;
}
);
unicode = 014A;
},
{
glyphname = O;
lastChange = "2021-11-17 04:04:56 +0000";
layers = (
{
anchors = (
{
name = bottom;
position = "{747, 0}";
},
{
name = center;
position = "{747, 727}";
},
{
name = ogonek;
position = "{1321, 10}";
},
{
name = top;
position = "{747, 1454}";
},
{
name = topleft;
position = "{49, 1454}";
},
{
name = topright;
position = "{1444, 1454}";
}
);
layerId = "0D9D1AFE-BAFC-449A-A530-9FCA9CDF2E2E";
paths = (
{
closed = 1;
nodes = (
"1096 -30 OFFCURVE",
"1384 240 OFFCURVE",
"1384 736 CURVE SMOOTH",
"1384 1216 OFFCURVE",
"1099 1483 OFFCURVE",
"746 1483 CURVE SMOOTH",
"397 1483 OFFCURVE",
"109 1216 OFFCURVE",
"109 736 CURVE SMOOTH",
"109 240 OFFCURVE",
"394 -30 OFFCURVE",
"745 -30 CURVE SMOOTH"
);
},
{
closed = 1;
nodes = (
"492 87 OFFCURVE",
"239 288 OFFCURVE",
"239 734 CURVE SMOOTH",
"239 1156 OFFCURVE",
"488 1366 OFFCURVE",
"746 1366 CURVE SMOOTH",
"1012 1366 OFFCURVE",
"1254 1156 OFFCURVE",
"1254 734 CURVE SMOOTH",
"1254 288 OFFCURVE",
"1015 87 OFFCURVE",
"745 87 CURVE SMOOTH"
);
}
);
width = 1493;
},
{
anchors = (
{
name = bottom;
position = "{735, 0}";
},
{
name = center;
position = "{735, 727}";
},
{
name = ogonek;
position = "{852, 10}";
},
{
name = top;
position = "{735, 1454}";
},
{
name = topleft;
position = "{37, 1454}";
},
{
name = topright;
position = "{1432, 1454}";
}
);
layerId = "09AB1441-CF14-483D-884E-606841830E4D";
paths = (
{
closed = 1;
nodes = (
"1100 -30 OFFCURVE",
"1372 240 OFFCURVE",
"1372 736 CURVE SMOOTH",
"1372 1216 OFFCURVE",
"1097 1483 OFFCURVE",
"734 1483 CURVE SMOOTH",
"361 1483 OFFCURVE",
"97 1216 OFFCURVE",
"97 736 CURVE SMOOTH",
"97 240 OFFCURVE",
"380 -30 OFFCURVE",
"733 -30 CURVE SMOOTH"
);
},
{
closed = 1;
nodes = (
"517 177 OFFCURVE",
"327 350 OFFCURVE",
"327 734 CURVE SMOOTH",
"327 1098 OFFCURVE",
"517 1276 OFFCURVE",
"734 1276 CURVE SMOOTH",
"961 1276 OFFCURVE",
"1142 1098 OFFCURVE",
"1142 734 CURVE SMOOTH",
"1142 350 OFFCURVE",
"961 177 OFFCURVE",
"733 177 CURVE SMOOTH"
);
}
);
width = 1469;
},
{
anchors = (
{
name = bottom;
position = "{731, 0}";
},
{
name = center;
position = "{731, 727}";
},
{
name = ogonek;
position = "{1202, 10}";
},
{
name = top;
position = "{731, 1454}";
},
{
name = topleft;
position = "{33, 1454}";
},
{
name = topright;
position = "{1428, 1454}";
}
);
layerId = "BF6BC6F6-4B2A-4E9B-9E28-8B62B2F12FD9";
paths = (
{
closed = 1;
nodes = (
"1108 -30 OFFCURVE",
"1388 240 OFFCURVE",
"1388 736 CURVE SMOOTH",
"1388 1216 OFFCURVE",
"1105 1483 OFFCURVE",
"730 1483 CURVE SMOOTH",
"346 1483 OFFCURVE",
"73 1216 OFFCURVE",
"73 736 CURVE SMOOTH",
"73 240 OFFCURVE",
"365 -30 OFFCURVE",
"729 -30 CURVE SMOOTH"
);
},
{
closed = 1;
nodes = (
"541 261 OFFCURVE",
"398 411 OFFCURVE",
"398 733 CURVE SMOOTH",
"398 1037 OFFCURVE",
"541 1192 OFFCURVE",
"730 1192 CURVE SMOOTH",
"928 1192 OFFCURVE",
"1064 1037 OFFCURVE",
"1064 733 CURVE SMOOTH",
"1064 411 OFFCURVE",
"928 261 OFFCURVE",
"729 261 CURVE SMOOTH"
);
}
);
width = 1461;
}
);
rightMetricsKey = "=|";
unicode = 004F;
},
{
glyphname = OE;
lastChange = "2021-11-16 19:31:17 +0000";
layers = (
{
anchors = (
{
name = bottom;
position = "{1087, 0}";
},
{
name = center;
position = "{727, 727}";
},
{
name = ogonek;
position = "{1301, 10}";
},
{
name = top;
position = "{1087, 1454}";
},
{
name = topleft;
position = "{29, 1454}";
},
{
name = topright;
position = "{1424, 1454}";
}
);
layerId = "0D9D1AFE-BAFC-449A-A530-9FCA9CDF2E2E";
paths = (
{
closed = 1;
nodes = (
"1055 -20 OFFCURVE",
"1258 229 OFFCURVE",
"1230 458 CURVE",
"1210 449 LINE",
"1210 0 LINE",
"2104 0 LINE",
"2104 119 LINE",
"1335 119 LINE",
"1337 702 LINE",
"2037 702 LINE",
"2037 818 LINE",
"1335 818 LINE",
"1335 1336 LINE",
"2084 1336 LINE",
"2084 1454 LINE",
"1210 1454 LINE",
"1210 981 LINE",
"1241 980 LINE",
"1262 1210 OFFCURVE",
"1081 1483 OFFCURVE",
"730 1483 CURVE SMOOTH",
"382 1483 OFFCURVE",
"109 1216 OFFCURVE",
"109 734 CURVE SMOOTH",
"109 251 OFFCURVE",
"384 -20 OFFCURVE",
"727 -20 CURVE SMOOTH"
);
},
{
closed = 1;
nodes = (
"482 99 OFFCURVE",
"239 299 OFFCURVE",
"239 730 CURVE SMOOTH",
"239 1160 OFFCURVE",
"482 1364 OFFCURVE",
"730 1364 CURVE SMOOTH",
"979 1364 OFFCURVE",
"1210 1157 OFFCURVE",
"1210 729 CURVE SMOOTH",
"1210 301 OFFCURVE",
"978 99 OFFCURVE",
"729 99 CURVE SMOOTH"
);
}
);
width = 2179;
},
{
anchors = (
{
name = bottom;
position = "{1051, 0}";
},
{
name = center;
position = "{717, 727}";
},
{
name = ogonek;
position = "{834, 10}";
},
{
name = top;
position = "{1031, 1454}";
},
{
name = topleft;
position = "{19, 1454}";
},
{
name = topright;
position = "{1414, 1454}";
}
);
layerId = "09AB1441-CF14-483D-884E-606841830E4D";
paths = (
{
closed = 1;
nodes = (
"936 -20 OFFCURVE",
"1177 106 OFFCURVE",
"1126 385 CURVE",
"1106 385 LINE",
"1113 0 LINE",
"2001 0 LINE",
"2001 212 LINE",
"1330 212 LINE",
"1330 651 LINE",
"1944 651 LINE",
"1944 858 LINE",
"1330 858 LINE",
"1330 1244 LINE",
"1991 1244 LINE",
"1991 1454 LINE",
"1112 1454 LINE",
"1106 1026 LINE",
"1129 1026 LINE",
"1197 1234 OFFCURVE",
"1029 1483 OFFCURVE",
"697 1483 CURVE SMOOTH",
"356 1483 OFFCURVE",
"97 1217 OFFCURVE",
"97 738 CURVE SMOOTH",
"97 250 OFFCURVE",
"366 -20 OFFCURVE",
"705 -20 CURVE SMOOTH"
);
},
{
closed = 1;
nodes = (
"501 187 OFFCURVE",
"327 360 OFFCURVE",
"327 731 CURVE SMOOTH",
"327 1098 OFFCURVE",
"498 1276 OFFCURVE",
"718 1276 CURVE SMOOTH",
"938 1276 OFFCURVE",
"1110 1098 OFFCURVE",
"1110 731 CURVE SMOOTH",
"1110 360 OFFCURVE",
"934 187 OFFCURVE",
"718 187 CURVE SMOOTH"
);
}
);
width = 2076;
},
{
anchors = (
{
name = bottom;
position = "{1022, 0}";
},
{
name = center;
position = "{721, 727}";
},
{
name = ogonek;
position = "{1192, 10}";
},
{
name = top;
position = "{1017, 1454}";
},
{
name = topleft;
position = "{23, 1454}";
},
{
name = topright;
position = "{1418, 1454}";
}
);
layerId = "BF6BC6F6-4B2A-4E9B-9E28-8B62B2F12FD9";
paths = (
{
closed = 1;
nodes = (
"922 -20 OFFCURVE",
"1162 124 OFFCURVE",
"1117 359 CURVE",
"1036 306 LINE",
"1047 0 LINE",
"1968 0 LINE",
"1968 289 LINE",
"1355 289 LINE",
"1355 601 LINE",
"1887 601 LINE",
"1887 887 LINE",
"1355 887 LINE",
"1355 1167 LINE",
"1950 1167 LINE",
"1950 1454 LINE",
"1049 1454 LINE",
"1036 1099 LINE",
"1121 990 LINE",
"1167 1095 OFFCURVE",
"1114 1483 OFFCURVE",
"691 1483 CURVE SMOOTH",
"344 1483 OFFCURVE",
"73 1216 OFFCURVE",
"73 737 CURVE SMOOTH",
"73 250 OFFCURVE",
"354 -20 OFFCURVE",
"683 -20 CURVE SMOOTH"
);
},
{
closed = 1;
nodes = (
"527 278 OFFCURVE",
"400 427 OFFCURVE",
"400 730 CURVE SMOOTH",
"400 1031 OFFCURVE",
"527 1185 OFFCURVE",
"733 1185 CURVE SMOOTH",
"912 1185 OFFCURVE",
"1053 1069 OFFCURVE",
"1053 730 CURVE SMOOTH",
"1053 396 OFFCURVE",
"914 278 OFFCURVE",
"733 278 CURVE SMOOTH"
);
}
);
width = 2043;
}
);
leftMetricsKey = O;
rightMetricsKey = E;
unicode = 0152;
},
{
glyphname = P;
lastChange = "2021-11-17 04:04:56 +0000";
layers = (
{
anchors = (
{
name = bottom;
position = "{569, 0}";
},
{
name = top;
position = "{569, 1454}";
}
);
layerId = "0D9D1AFE-BAFC-449A-A530-9FCA9CDF2E2E";
paths = (
{
closed = 1;
nodes = (
"591 574 LINE SMOOTH",
"873 574 OFFCURVE",
"1057 761 OFFCURVE",
"1057 1048 CURVE SMOOTH",
"1057 1306 OFFCURVE",
"887 1454 OFFCURVE",
"591 1454 CURVE SMOOTH",
"514 1454 OFFCURVE",
"306 1454 OFFCURVE",
"213 1454 CURVE",
"299 1336 LINE",
"607 1336 LINE SMOOTH",
"813 1336 OFFCURVE",
"927 1216 OFFCURVE",
"927 1027 CURVE SMOOTH",
"927 837 OFFCURVE",
"812 691 OFFCURVE",
"622 691 CURVE SMOOTH",
"305 691 LINE",
"235 656 LINE",
"304 627 LINE",
"304 600 OFFCURVE",
"331 574 OFFCURVE",
"382 574 CURVE"
);
},
{
closed = 1;
nodes = (
"305 0 LINE",
"305 1454 LINE",
"180 1454 LINE",
"180 0 LINE"
);
}
);
width = 1147;
},
{
anchors = (
{
name = bottom;
position = "{596, 0}";
},
{
name = top;
position = "{596, 1454}";
}
);
layerId = "09AB1441-CF14-483D-884E-606841830E4D";
paths = (
{
closed = 1;
nodes = (
"625 498 LINE SMOOTH",
"1028 498 OFFCURVE",
"1151 742 OFFCURVE",
"1151 987 CURVE SMOOTH",
"1151 1317 OFFCURVE",
"975 1454 OFFCURVE",
"619 1454 CURVE SMOOTH",
"562 1454 OFFCURVE",
"389 1454 OFFCURVE",
"296 1454 CURVE",
"382 1245 LINE",
"639 1245 LINE SMOOTH",
"815 1245 OFFCURVE",
"923 1185 OFFCURVE",
"923 983 CURVE SMOOTH",
"923 791 OFFCURVE",
"834 702 OFFCURVE",
"656 702 CURVE SMOOTH",
"388 702 LINE",
"318 646 LINE",
"388 576 LINE",
"388 526 OFFCURVE",
"440 498 OFFCURVE",
"475 498 CURVE"
);
},
{
closed = 1;
nodes = (
"388 0 LINE",
"388 1454 LINE",
"164 1454 LINE",
"164 0 LINE"
);
}
);
width = 1196;
},
{
anchors = (
{
name = bottom;
position = "{625, 0}";
},
{
name = top;
position = "{625, 1454}";
}
);
layerId = "BF6BC6F6-4B2A-4E9B-9E28-8B62B2F12FD9";
paths = (
{
closed = 1;
nodes = (
"654 483 LINE SMOOTH",
"1050 483 OFFCURVE",
"1191 723 OFFCURVE",
"1191 992 CURVE SMOOTH",
"1191 1312 OFFCURVE",
"1004 1454 OFFCURVE",
"652 1454 CURVE SMOOTH",
"583 1454 OFFCURVE",
"441 1454 OFFCURVE",
"363 1454 CURVE",
"449 1192 LINE",
"617 1192 LINE SMOOTH",
"776 1192 OFFCURVE",
"865 1146 OFFCURVE",
"865 976 CURVE SMOOTH",
"865 810 OFFCURVE",
"784 742 OFFCURVE",
"621 742 CURVE SMOOTH",
"455 742 LINE",
"385 685 LINE",
"432 621 LINE",
"448 526 OFFCURVE",
"488 483 OFFCURVE",
"573 483 CURVE SMOOTH"
);
},
{
closed = 1;
nodes = (
"455 0 LINE",
"455 1454 LINE",
"138 1454 LINE",
"138 0 LINE"
);
}
);
width = 1228;
}
);
leftMetricsKey = H;
unicode = 0050;
},
{
glyphname = Thorn;
lastChange = "2021-11-16 19:31:17 +0000";
layers = (
{
anchors = (
{
name = bottom;
position = "{569, 0}";
},
{
name = top;
position = "{569, 1454}";
}
);
layerId = "0D9D1AFE-BAFC-449A-A530-9FCA9CDF2E2E";
paths = (
{
closed = 1;
nodes = (
"591 286 LINE SMOOTH",
"873 286 OFFCURVE",
"1057 473 OFFCURVE",
"1057 760 CURVE SMOOTH",
"1057 1018 OFFCURVE",
"887 1166 OFFCURVE",
"591 1166 CURVE SMOOTH",
"514 1166 OFFCURVE",
"306 1166 OFFCURVE",
"213 1166 CURVE",
"299 1048 LINE",
"607 1048 LINE SMOOTH",
"813 1048 OFFCURVE",
"927 928 OFFCURVE",
"927 739 CURVE SMOOTH",
"927 549 OFFCURVE",
"812 404 OFFCURVE",
"622 404 CURVE SMOOTH",
"305 404 LINE",
"235 368 LINE",
"304 339 LINE",
"304 312 OFFCURVE",
"331 286 OFFCURVE",
"382 286 CURVE"
);
},
{
closed = 1;
nodes = (
"305 0 LINE",
"305 1454 LINE",
"180 1454 LINE",
"180 0 LINE"
);
}
);
width = 1147;
},
{
anchors = (
{
name = bottom;
position = "{596, 0}";
},
{
name = top;
position = "{596, 1454}";
}
);
layerId = "09AB1441-CF14-483D-884E-606841830E4D";
paths = (
{
closed = 1;
nodes = (
"655 259 LINE SMOOTH",
"1028 259 OFFCURVE",
"1151 503 OFFCURVE",
"1151 743 CURVE SMOOTH",
"1151 1068 OFFCURVE",
"982 1205 OFFCURVE",
"639 1205 CURVE SMOOTH",
"562 1205 OFFCURVE",
"389 1205 OFFCURVE",
"296 1205 CURVE",
"382 996 LINE",
"619 996 LINE SMOOTH",
"828 996 OFFCURVE",
"923 936 OFFCURVE",
"923 739 CURVE SMOOTH",
"923 552 OFFCURVE",
"847 463 OFFCURVE",
"636 463 CURVE SMOOTH",
"388 463 LINE",
"318 407 LINE",
"387 314 LINE",
"387 286 OFFCURVE",
"414 259 OFFCURVE",
"465 259 CURVE"
);
},
{
closed = 1;
nodes = (
"388 0 LINE",
"388 1454 LINE",
"164 1454 LINE",
"164 0 LINE"
);
}
);
width = 1196;
},
{
anchors = (
{
name = bottom;
position = "{625, 0}";
},
{
name = top;
position = "{625, 1454}";
}
);
layerId = "BF6BC6F6-4B2A-4E9B-9E28-8B62B2F12FD9";
paths = (
{
closed = 1;
nodes = (
"676 250 LINE SMOOTH",
"1066 250 OFFCURVE",
"1207 491 OFFCURVE",
"1207 758 CURVE SMOOTH",
"1207 1078 OFFCURVE",
"1022 1220 OFFCURVE",
"672 1220 CURVE SMOOTH",
"595 1220 OFFCURVE",
"445 1220 OFFCURVE",
"363 1220 CURVE",
"449 944 LINE",
"628 944 LINE SMOOTH",
"797 944 OFFCURVE",
"880 894 OFFCURVE",
"880 740 CURVE SMOOTH",
"880 594 OFFCURVE",
"801 525 OFFCURVE",
"632 525 CURVE SMOOTH",
"455 525 LINE",
"385 468 LINE",
"432 384 LINE",
"448 294 OFFCURVE",
"482 250 OFFCURVE",
"571 250 CURVE SMOOTH"
);
},
{
closed = 1;
nodes = (
"455 0 LINE",
"455 1454 LINE",
"138 1454 LINE",
"138 0 LINE"
);
}
);
width = 1244;
}
);
leftMetricsKey = H;
rightMetricsKey = P;
unicode = 00DE;
},
{
glyphname = Q;
lastChange = "2021-11-17 03:47:07 +0000";
layers = (
{
layerId = "0D9D1AFE-BAFC-449A-A530-9FCA9CDF2E2E";
paths = (
{
closed = 1;
nodes = (
"1099 -20 OFFCURVE",
"1384 250 OFFCURVE",
"1384 736 CURVE SMOOTH",
"1384 1216 OFFCURVE",
"1099 1483 OFFCURVE",
"746 1483 CURVE SMOOTH",
"393 1483 OFFCURVE",
"109 1216 OFFCURVE",
"109 736 CURVE SMOOTH",
"109 250 OFFCURVE",
"394 -20 OFFCURVE",
"745 -20 CURVE SMOOTH"
);
},
{
closed = 1;
nodes = (
"1291 -323 LINE",
"1104 -19 LINE SMOOTH",
"1077 25 OFFCURVE",
"1051 46 OFFCURVE",
"1025 46 CURVE",
"930 46 LINE",
"1134 -323 LINE"
);
},
{
closed = 1;
nodes = (
"493 100 OFFCURVE",
"239 298 OFFCURVE",
"239 734 CURVE SMOOTH",
"239 1156 OFFCURVE",
"493 1363 OFFCURVE",
"746 1363 CURVE SMOOTH",
"1011 1363 OFFCURVE",
"1254 1156 OFFCURVE",
"1254 734 CURVE SMOOTH",
"1254 298 OFFCURVE",
"1011 100 OFFCURVE",
"745 100 CURVE SMOOTH"
);
}
);
width = 1493;
},
{
layerId = "09AB1441-CF14-483D-884E-606841830E4D";
paths = (
{
closed = 1;
nodes = (
"1100 -20 OFFCURVE",
"1372 250 OFFCURVE",
"1372 736 CURVE SMOOTH",
"1372 1216 OFFCURVE",
"1097 1483 OFFCURVE",
"734 1483 CURVE SMOOTH",
"361 1483 OFFCURVE",
"97 1216 OFFCURVE",
"97 736 CURVE SMOOTH",
"97 250 OFFCURVE",
"380 -20 OFFCURVE",
"733 -20 CURVE SMOOTH"
);
},
{
closed = 1;
nodes = (
"1292 -316 LINE",
"1117 -12 LINE SMOOTH",
"1091 33 OFFCURVE",
"1054 53 OFFCURVE",
"1028 53 CURVE",
"833 53 LINE",
"1011 -316 LINE"
);
},
{
closed = 1;
nodes = (
"517 187 OFFCURVE",
"327 360 OFFCURVE",
"327 734 CURVE SMOOTH",
"327 1098 OFFCURVE",
"517 1276 OFFCURVE",
"734 1276 CURVE SMOOTH",
"961 1276 OFFCURVE",
"1142 1098 OFFCURVE",
"1142 734 CURVE SMOOTH",
"1142 360 OFFCURVE",
"961 187 OFFCURVE",
"733 187 CURVE SMOOTH"
);
}
);
width = 1469;
},
{
layerId = "BF6BC6F6-4B2A-4E9B-9E28-8B62B2F12FD9";
paths = (
{
closed = 1;
nodes = (
"1108 -20 OFFCURVE",
"1388 250 OFFCURVE",
"1388 736 CURVE SMOOTH",
"1388 1216 OFFCURVE",
"1105 1483 OFFCURVE",
"730 1483 CURVE SMOOTH",
"346 1483 OFFCURVE",
"73 1216 OFFCURVE",
"73 736 CURVE SMOOTH",
"73 250 OFFCURVE",
"365 -20 OFFCURVE",
"729 -20 CURVE SMOOTH"
);
},
{
closed = 1;
nodes = (
"1305 -316 LINE",
"1130 -12 LINE SMOOTH",
"1103 35 OFFCURVE",
"1057 47 OFFCURVE",
"1027 47 CURVE",
"780 47 LINE",
"947 -316 LINE"
);
},
{
closed = 1;
nodes = (
"543 278 OFFCURVE",
"400 427 OFFCURVE",
"400 733 CURVE SMOOTH",
"400 1031 OFFCURVE",
"543 1185 OFFCURVE",
"730 1185 CURVE SMOOTH",
"926 1185 OFFCURVE",
"1061 1031 OFFCURVE",
"1061 733 CURVE SMOOTH",
"1061 427 OFFCURVE",
"926 278 OFFCURVE",
"729 278 CURVE SMOOTH"
);
}
);
width = 1461;
}
);
leftMetricsKey = O;
rightMetricsKey = O;
unicode = 0051;
},
{
glyphname = R;
lastChange = "2021-11-17 04:04:56 +0000";
layers = (
{
anchors = (
{
name = bottom;
position = "{592, 0}";
},
{
name = top;
position = "{530, 1454}";
}
);
layerId = "0D9D1AFE-BAFC-449A-A530-9FCA9CDF2E2E";
paths = (
{
closed = 1;
nodes = (
"1137 0 LINE",
"774 595 LINE SMOOTH",
"755 626 OFFCURVE",
"732 654 OFFCURVE",
"692 651 CURVE",
"646 637 LINE",
"927 683 OFFCURVE",
"997 883 OFFCURVE",
"997 1087 CURVE SMOOTH",
"997 1310 OFFCURVE",
"841 1454 OFFCURVE",
"571 1454 CURVE SMOOTH",
"458 1454 OFFCURVE",
"306 1454 OFFCURVE",
"213 1454 CURVE",
"299 1388 LINE",
"299 1336 LINE",
"602 1336 LINE SMOOTH",
"783 1336 OFFCURVE",
"867 1221 OFFCURVE",
"867 1068 CURVE SMOOTH",
"867 915 OFFCURVE",
"793 742 OFFCURVE",
"598 742 CURVE SMOOTH",
"243 742 LINE",
"243 710 LINE",
"214 639 LINE",
"281 624 LINE",
"613 624 LINE",
"987 0 LINE"
);
},
{
closed = 1;
nodes = (
"305 0 LINE",
"305 1454 LINE",
"180 1454 LINE",
"180 0 LINE"
);
}
);
width = 1173;
},
{
anchors = (
{
name = bottom;
position = "{614, 0}";
},
{
name = top;
position = "{564, 1454}";
}
);
layerId = "09AB1441-CF14-483D-884E-606841830E4D";
paths = (
{
closed = 1;
nodes = (
"1212 0 LINE",
"873 521 LINE SMOOTH",
"812 615 OFFCURVE",
"785 626 OFFCURVE",
"697 626 CURVE",
"720 611 LINE",
"945 661 OFFCURVE",
"1046 853 OFFCURVE",
"1046 1042 CURVE SMOOTH",
"1046 1329 OFFCURVE",
"855 1454 OFFCURVE",
"580 1454 CURVE SMOOTH",
"467 1454 OFFCURVE",
"387 1454 OFFCURVE",
"294 1454 CURVE",
"380 1288 LINE",
"380 1242 LINE",
"570 1241 LINE SMOOTH",
"709 1240 OFFCURVE",
"816 1200 OFFCURVE",
"816 1023 CURVE SMOOTH",
"816 868 OFFCURVE",
"750 775 OFFCURVE",
"566 775 CURVE SMOOTH",
"324 775 LINE",
"324 743 LINE",
"295 589 LINE",
"362 574 LINE",
"590 574 LINE",
"937 0 LINE"
);
},
{
closed = 1;
nodes = (
"386 0 LINE",
"386 1454 LINE",
"164 1454 LINE",
"164 0 LINE"
);
}
);
width = 1232;
},
{
anchors = (
{
name = bottom;
position = "{650, 0}";
},
{
name = top;
position = "{600, 1454}";
}
);
layerId = "BF6BC6F6-4B2A-4E9B-9E28-8B62B2F12FD9";
paths = (
{
closed = 1;
nodes = (
"1278 0 LINE",
"947 525 LINE SMOOTH",
"902 595 OFFCURVE",
"842 612 OFFCURVE",
"764 612 CURVE",
"724 596 LINE",
"1006 607 OFFCURVE",
"1127 804 OFFCURVE",
"1127 1027 CURVE SMOOTH",
"1127 1313 OFFCURVE",
"934 1454 OFFCURVE",
"654 1454 CURVE SMOOTH",
"494 1454 OFFCURVE",
"445 1454 OFFCURVE",
"368 1454 CURVE",
"384 1288 LINE",
"454 1175 LINE",
"613 1174 LINE SMOOTH",
"716 1173 OFFCURVE",
"802 1146 OFFCURVE",
"802 1000 CURVE SMOOTH",
"802 882 OFFCURVE",
"749 806 OFFCURVE",
"609 806 CURVE SMOOTH",
"398 806 LINE",
"398 774 LINE",
"369 574 LINE",
"436 559 LINE",
"590 559 LINE",
"903 0 LINE"
);
},
{
closed = 1;
nodes = (
"455 0 LINE",
"455 1454 LINE",
"138 1454 LINE",
"138 0 LINE"
);
}
);
width = 1271;
}
);
leftMetricsKey = H;
unicode = 0052;
},
{
glyphname = S;
lastChange = "2021-11-17 04:04:56 +0000";
layers = (
{
anchors = (
{
name = bottom;
position = "{598, 0}";
},
{
name = top;
position = "{568, 1454}";
}
);
layerId = "0D9D1AFE-BAFC-449A-A530-9FCA9CDF2E2E";
paths = (
{
closed = 1;
nodes = (
"890 -20 OFFCURVE",
"1066 119 OFFCURVE",
"1066 359 CURVE SMOOTH",
"1066 626 OFFCURVE",
"826 708 OFFCURVE",
"607 789 CURVE SMOOTH",
"375 875 OFFCURVE",
"272 939 OFFCURVE",
"272 1105 CURVE SMOOTH",
"272 1275 OFFCURVE",
"385 1359 OFFCURVE",
"575 1359 CURVE SMOOTH",
"815 1359 OFFCURVE",
"877 1223 OFFCURVE",
"893 1091 CURVE",
"1021 1091 LINE",
"990 1350 OFFCURVE",
"833 1477 OFFCURVE",
"586 1477 CURVE SMOOTH",
"325 1477 OFFCURVE",
"147 1343 OFFCURVE",
"147 1099 CURVE SMOOTH",
"147 867 OFFCURVE",
"335 755 OFFCURVE",
"559 676 CURVE SMOOTH",
"753 608 OFFCURVE",
"940 547 OFFCURVE",
"940 356 CURVE SMOOTH",
"940 221 OFFCURVE",
"846 98 OFFCURVE",
"585 98 CURVE SMOOTH",
"375 98 OFFCURVE",
"208 194 OFFCURVE",
"208 417 CURVE",
"80 417 LINE",
"80 130 OFFCURVE",
"294 -20 OFFCURVE",
"583 -20 CURVE SMOOTH"
);
}
);
width = 1136;
},
{
anchors = (
{
name = bottom;
position = "{591, 0}";
},
{
name = top;
position = "{571, 1454}";
}
);
layerId = "09AB1441-CF14-483D-884E-606841830E4D";
paths = (
{
closed = 1;
nodes = (
"927 -20 OFFCURVE",
"1100 124 OFFCURVE",
"1097 384 CURVE SMOOTH",
"1094 655 OFFCURVE",
"886 716 OFFCURVE",
"632 817 CURVE SMOOTH",
"377 918 OFFCURVE",
"343 988 OFFCURVE",
"343 1090 CURVE SMOOTH",
"343 1214 OFFCURVE",
"430 1278 OFFCURVE",
"583 1278 CURVE SMOOTH",
"731 1278 OFFCURVE",
"803 1211 OFFCURVE",
"824 1071 CURVE",
"1042 1071 LINE",
"1008 1335 OFFCURVE",
"896 1477 OFFCURVE",
"592 1477 CURVE SMOOTH",
"300 1477 OFFCURVE",
"123 1338 OFFCURVE",
"123 1080 CURVE SMOOTH",
"123 853 OFFCURVE",
"284 715 OFFCURVE",
"533 629 CURVE SMOOTH",
"778 545 OFFCURVE",
"873 486 OFFCURVE",
"873 365 CURVE SMOOTH",
"873 253 OFFCURVE",
"790 179 OFFCURVE",
"600 179 CURVE SMOOTH",
"406 179 OFFCURVE",
"289 264 OFFCURVE",
"281 437 CURVE",
"65 437 LINE",
"75 130 OFFCURVE",
"267 -20 OFFCURVE",
"585 -20 CURVE SMOOTH"
);
}
);
width = 1141;
},
{
anchors = (
{
name = bottom;
position = "{627, 0}";
},
{
name = top;
position = "{605, 1454}";
}
);
layerId = "BF6BC6F6-4B2A-4E9B-9E28-8B62B2F12FD9";
paths = (
{
closed = 1;
nodes = (
"960 -20 OFFCURVE",
"1177 126 OFFCURVE",
"1176 417 CURVE SMOOTH",
"1175 701 OFFCURVE",
"939 761 OFFCURVE",
"682 855 CURVE SMOOTH",
"475 931 OFFCURVE",
"416 975 OFFCURVE",
"416 1077 CURVE SMOOTH",
"416 1168 OFFCURVE",
"486 1208 OFFCURVE",
"615 1208 CURVE SMOOTH",
"743 1208 OFFCURVE",
"808 1144 OFFCURVE",
"812 1028 CURVE",
"1116 1028 LINE",
"1096 1324 OFFCURVE",
"936 1477 OFFCURVE",
"614 1477 CURVE SMOOTH",
"299 1477 OFFCURVE",
"103 1336 OFFCURVE",
"103 1072 CURVE SMOOTH",
"103 818 OFFCURVE",
"279 698 OFFCURVE",
"548 603 CURVE SMOOTH",
"764 528 OFFCURVE",
"857 492 OFFCURVE",
"857 390 CURVE SMOOTH",
"857 297 OFFCURVE",
"788 249 OFFCURVE",
"632 249 CURVE SMOOTH",
"439 249 OFFCURVE",
"362 331 OFFCURVE",
"358 476 CURVE",
"48 476 LINE",
"36 133 OFFCURVE",
"291 -20 OFFCURVE",
"626 -20 CURVE SMOOTH"
);
}
);
width = 1218;
}
);
unicode = 0053;
},
{
glyphname = Germandbls;
lastChange = "2021-11-17 04:04:56 +0000";
layers = (
{
layerId = "0D9D1AFE-BAFC-449A-A530-9FCA9CDF2E2E";
paths = (
{
closed = 1;
nodes = (
"492 -8 OFFCURVE",
"543 -10 OFFCURVE",
"623 -10 CURVE SMOOTH",
"934 -10 OFFCURVE",
"1124 123 OFFCURVE",
"1124 420 CURVE SMOOTH",
"1124 606 OFFCURVE",
"1035 818 OFFCURVE",
"681 817 CURVE",
"719 831 OFFCURVE",
"736 855 OFFCURVE",
"749 876 CURVE",
"1091 1454 LINE",
"180 1454 LINE",
"180 0 LINE",
"305 0 LINE",
"305 1336 LINE",
"814 1336 LINE",
"896 1353 LINE",
"842 1271 LINE",
"512 713 LINE",
"662 713 LINE SMOOTH",
"907 713 OFFCURVE",
"994 595 OFFCURVE",
"994 420 CURVE SMOOTH",
"994 191 OFFCURVE",
"877 107 OFFCURVE",
"638 107 CURVE SMOOTH",
"555 107 OFFCURVE",
"499 110 OFFCURVE",
"440 116 CURVE",
"440 -2 LINE"
);
}
);
width = 1194;
},
{
layerId = "09AB1441-CF14-483D-884E-606841830E4D";
paths = (
{
closed = 1;
nodes = (
"548 -7 OFFCURVE",
"624 -14 OFFCURVE",
"702 -14 CURVE SMOOTH",
"1035 -14 OFFCURVE",
"1181 182 OFFCURVE",
"1181 432 CURVE SMOOTH",
"1181 594 OFFCURVE",
"1131 829 OFFCURVE",
"813 844 CURVE",
"875 844 OFFCURVE",
"912 896 OFFCURVE",
"942 956 CURVE SMOOTH",
"1194 1454 LINE",
"164 1454 LINE",
"164 0 LINE",
"390 0 LINE",
"390 1249 LINE",
"809 1249 LINE",
"865 1265 LINE",
"825 1193 LINE",
"567 670 LINE",
"655 670 LINE SMOOTH",
"877 670 OFFCURVE",
"957 608 OFFCURVE",
"957 440 CURVE SMOOTH",
"957 315 OFFCURVE",
"908 178 OFFCURVE",
"691 178 CURVE SMOOTH",
"612 178 OFFCURVE",
"554 187 OFFCURVE",
"510 196 CURVE",
"510 -1 LINE"
);
}
);
width = 1294;
},
{
layerId = "BF6BC6F6-4B2A-4E9B-9E28-8B62B2F12FD9";
paths = (
{
closed = 1;
nodes = (
"604 -8 OFFCURVE",
"653 -11 OFFCURVE",
"740 -11 CURVE SMOOTH",
"1096 -11 OFFCURVE",
"1259 158 OFFCURVE",
"1259 497 CURVE SMOOTH",
"1259 676 OFFCURVE",
"1174 873 OFFCURVE",
"943 897 CURVE",
"1016 912 OFFCURVE",
"1043 972 OFFCURVE",
"1071 1027 CURVE SMOOTH",
"1282 1454 LINE",
"138 1454 LINE",
"138 0 LINE",
"456 0 LINE",
"456 1183 LINE",
"782 1183 LINE",
"841 1193 LINE",
"792 1114 LINE",
"551 648 LINE",
"701 648 LINE SMOOTH",
"895 648 OFFCURVE",
"935 575 OFFCURVE",
"935 473 CURVE SMOOTH",
"935 368 OFFCURVE",
"881 285 OFFCURVE",
"739 285 CURVE SMOOTH",
"654 285 OFFCURVE",
"607 290 OFFCURVE",
"560 298 CURVE",
"561 -1 LINE"
);
}
);
width = 1323;
}
);
leftMetricsKey = H;
unicode = 1E9E;
},
{
glyphname = Schwa;
lastChange = "2021-11-16 19:31:17 +0000";
layers = (
{
anchors = (
{
name = bottom;
position = "{698, 0}";
},
{
name = top;
position = "{698, 1454}";
}
);
layerId = "0D9D1AFE-BAFC-449A-A530-9FCA9CDF2E2E";
paths = (
{
closed = 1;
nodes = (
"1079 -20 OFFCURVE",
"1305 271 OFFCURVE",
"1305 731 CURVE SMOOTH",
"1305 1191 OFFCURVE",
"1071 1481 OFFCURVE",
"679 1481 CURVE SMOOTH",
"381 1481 OFFCURVE",
"158 1339 OFFCURVE",
"114 1047 CURVE",
"247 1047 LINE",
"267 1186 OFFCURVE",
"408 1365 OFFCURVE",
"682 1365 CURVE SMOOTH",
"944 1365 OFFCURVE",
"1175 1152 OFFCURVE",
"1175 731 CURVE SMOOTH",
"1175 300 OFFCURVE",
"945 96 OFFCURVE",
"685 96 CURVE SMOOTH",
"474 96 OFFCURVE",
"236 206 OFFCURVE",
"236 625 CURVE",
"236 692 LINE",
"111 730 LINE",
"113 619 LINE",
"113 131 OFFCURVE",
"395 -20 OFFCURVE",
"684 -20 CURVE SMOOTH"
);
},
{
closed = 1;
nodes = (
"1249 614 LINE",
"1249 730 LINE",
"111 730 LINE",
"136 614 LINE"
);
}
);
width = 1397;
},
{
anchors = (
{
name = bottom;
position = "{696, 0}";
},
{
name = top;
position = "{696, 1454}";
}
);
layerId = "09AB1441-CF14-483D-884E-606841830E4D";
paths = (
{
closed = 1;
nodes = (
"1079 -20 OFFCURVE",
"1312 271 OFFCURVE",
"1312 731 CURVE SMOOTH",
"1312 1191 OFFCURVE",
"1079 1481 OFFCURVE",
"674 1481 CURVE SMOOTH",
"396 1481 OFFCURVE",
"155 1349 OFFCURVE",
"111 1047 CURVE",
"344 1047 LINE",
"368 1198 OFFCURVE",
"489 1274 OFFCURVE",
"677 1274 CURVE SMOOTH",
"944 1274 OFFCURVE",
"1082 1070 OFFCURVE",
"1082 731 CURVE SMOOTH",
"1082 391 OFFCURVE",
"944 187 OFFCURVE",
"675 187 CURVE SMOOTH",
"453 187 OFFCURVE",
"322 321 OFFCURVE",
"322 577 CURVE",
"322 673 LINE",
"89 770 LINE",
"91 602 LINE",
"91 96 OFFCURVE",
"430 -20 OFFCURVE",
"674 -20 CURVE SMOOTH"
);
},
{
closed = 1;
nodes = (
"1172 568 LINE",
"1172 770 LINE",
"89 770 LINE",
"127 568 LINE"
);
}
);
width = 1392;
},
{
anchors = (
{
name = bottom;
position = "{696, 0}";
},
{
name = top;
position = "{696, 1454}";
}
);
layerId = "BF6BC6F6-4B2A-4E9B-9E28-8B62B2F12FD9";
paths = (
{
closed = 1;
nodes = (
"1061 -20 OFFCURVE",
"1332 256 OFFCURVE",
"1332 737 CURVE SMOOTH",
"1332 1211 OFFCURVE",
"1071 1481 OFFCURVE",
"685 1481 CURVE SMOOTH",
"387 1481 OFFCURVE",
"115 1336 OFFCURVE",
"72 1018 CURVE",
"402 1018 LINE",
"430 1130 OFFCURVE",
"525 1185 OFFCURVE",
"686 1185 CURVE SMOOTH",
"882 1185 OFFCURVE",
"1005 1025 OFFCURVE",
"1005 730 CURVE SMOOTH",
"1005 410 OFFCURVE",
"882 271 OFFCURVE",
"681 271 CURVE SMOOTH",
"535 271 OFFCURVE",
"378 334 OFFCURVE",
"355 600 CURVE",
"355 729 LINE",
"33 816 LINE",
"35 710 LINE",
"35 131 OFFCURVE",
"428 -20 OFFCURVE",
"666 -20 CURVE SMOOTH"
);
},
{
closed = 1;
nodes = (
"1106 596 LINE",
"1106 816 LINE",
"33 816 LINE",
"86 596 LINE"
);
}
);
width = 1392;
}
);
unicode = 018F;
},
{
glyphname = T;
lastChange = "2021-11-17 04:04:56 +0000";
layers = (
{
anchors = (
{
name = bottom;
position = "{562, 0}";
},
{
name = center;
position = "{552, 727}";
},
{
name = top;
position = "{552, 1454}";
}
);
layerId = "0D9D1AFE-BAFC-449A-A530-9FCA9CDF2E2E";
paths = (
{
closed = 1;
nodes = (
"614 0 LINE",
"614 1336 LINE",
"1039 1336 LINE",
"1039 1454 LINE",
"65 1454 LINE",
"65 1336 LINE",
"538 1336 LINE",
"512 1325 OFFCURVE",
"490 1291 OFFCURVE",
"490 1237 CURVE SMOOTH",
"490 0 LINE"
);
}
);
width = 1104;
},
{
anchors = (
{
name = bottom;
position = "{557, 0}";
},
{
name = center;
position = "{557, 727}";
},
{
name = top;
position = "{557, 1454}";
}
);
layerId = "09AB1441-CF14-483D-884E-606841830E4D";
paths = (
{
closed = 1;
nodes = (
"671 0 LINE",
"671 1244 LINE",
"1043 1244 LINE",
"1043 1454 LINE",
"70 1454 LINE",
"70 1244 LINE",
"494 1244 LINE",
"461 1233 OFFCURVE",
"443 1203 OFFCURVE",
"443 1161 CURVE SMOOTH",
"443 0 LINE"
);
}
);
width = 1113;
},
{
anchors = (
{
name = bottom;
position = "{572, 0}";
},
{
name = center;
position = "{572, 727}";
},
{
name = top;
position = "{572, 1454}";
}
);
layerId = "BF6BC6F6-4B2A-4E9B-9E28-8B62B2F12FD9";
paths = (
{
closed = 1;
nodes = (
"732 0 LINE",
"732 1167 LINE",
"1089 1167 LINE",
"1089 1454 LINE",
"55 1454 LINE",
"55 1167 LINE",
"503 1167 LINE",
"443 1157 OFFCURVE",
"414 1126 OFFCURVE",
"414 1046 CURVE SMOOTH",
"414 0 LINE"
);
}
);
width = 1144;
}
);
rightMetricsKey = "=|";
unicode = 0054;
},
{
glyphname = U;
lastChange = "2021-11-17 04:04:56 +0000";
layers = (
{
anchors = (
{
name = bottom;
position = "{642, 0}";
},
{
name = ogonek;
position = "{808, 10}";
},
{
name = top;
position = "{641, 1454}";
},
{
name = topright;
position = "{1244, 1454}";
}
);
layerId = "0D9D1AFE-BAFC-449A-A530-9FCA9CDF2E2E";
paths = (
{
closed = 1;
nodes = (
"916 -20 OFFCURVE",
"1154 170 OFFCURVE",
"1154 566 CURVE SMOOTH",
"1154 1454 LINE",
"1029 1454 LINE",
"1029 564 LINE SMOOTH",
"1029 204 OFFCURVE",
"820 100 OFFCURVE",
"645 100 CURVE SMOOTH",
"469 100 OFFCURVE",
"255 204 OFFCURVE",
"255 564 CURVE SMOOTH",
"255 1456 LINE",
"130 1456 LINE",
"130 566 LINE SMOOTH",
"130 170 OFFCURVE",
"366 -20 OFFCURVE",
"641 -20 CURVE SMOOTH"
);
}
);
width = 1284;
},
{
anchors = (
{
name = bottom;
position = "{670, 0}";
},
{
name = ogonek;
position = "{860, 10}";
},
{
name = top;
position = "{672, 1454}";
},
{
name = topright;
position = "{1304, 1454}";
}
);
layerId = "09AB1441-CF14-483D-884E-606841830E4D";
paths = (
{
closed = 1;
nodes = (
"978 -20 OFFCURVE",
"1199 170 OFFCURVE",
"1199 566 CURVE SMOOTH",
"1199 1454 LINE",
"969 1454 LINE",
"969 564 LINE SMOOTH",
"969 279 OFFCURVE",
"841 187 OFFCURVE",
"679 187 CURVE SMOOTH",
"504 187 OFFCURVE",
"375 279 OFFCURVE",
"375 564 CURVE SMOOTH",
"375 1456 LINE",
"145 1456 LINE",
"145 566 LINE SMOOTH",
"145 170 OFFCURVE",
"358 -20 OFFCURVE",
"679 -20 CURVE SMOOTH"
);
}
);
width = 1344;
},
{
anchors = (
{
name = bottom;
position = "{681, 0}";
},
{
name = ogonek;
position = "{883, 10}";
},
{
name = top;
position = "{682, 1454}";
},
{
name = topright;
position = "{1330, 1454}";
}
);
layerId = "BF6BC6F6-4B2A-4E9B-9E28-8B62B2F12FD9";
paths = (
{
closed = 1;
nodes = (
"1027 -20 OFFCURVE",
"1249 199 OFFCURVE",
"1249 558 CURVE SMOOTH",
"1249 1454 LINE",
"928 1454 LINE",
"928 595 LINE SMOOTH",
"928 370 OFFCURVE",
"846 264 OFFCURVE",
"684 264 CURVE SMOOTH",
"519 264 OFFCURVE",
"435 371 OFFCURVE",
"435 595 CURVE SMOOTH",
"435 1456 LINE",
"114.009 1456 LINE",
"114 558 LINE SMOOTH",
"114 193 OFFCURVE",
"338 -20 OFFCURVE",
"682 -20 CURVE SMOOTH"
);
}
);
width = 1363;
}
);
rightMetricsKey = "=|";
unicode = 0055;
},
{
color = 0;
glyphname = Uogonek;
lastChange = "2021-11-17 03:45:52 +0000";
layers = (
{
anchors = (
{
name = top;
position = "{641, 1454}";
},
{
name = topright;
position = "{1244, 1454}";
}
);
layerId = "0D9D1AFE-BAFC-449A-A530-9FCA9CDF2E2E";
paths = (
{
closed = 1;
nodes = (
"916 -20 OFFCURVE",
"1154 170 OFFCURVE",
"1154 566 CURVE SMOOTH",
"1154 1454 LINE",
"1029 1454 LINE",
"1029 564 LINE SMOOTH",
"1029 204 OFFCURVE",
"820 100 OFFCURVE",
"645 100 CURVE SMOOTH",
"469 100 OFFCURVE",
"255 204 OFFCURVE",
"255 564 CURVE SMOOTH",
"255 1456 LINE",
"130 1456 LINE",
"130 566 LINE SMOOTH",
"130 170 OFFCURVE",
"366 -20 OFFCURVE",
"641 -20 CURVE SMOOTH"
);
},
{
closed = 1;
nodes = (
"741 -326 OFFCURVE",
"780 -318 OFFCURVE",
"806 -306 CURVE",
"805 -208 LINE",
"773 -220 OFFCURVE",
"741 -227 OFFCURVE",
"717 -227 CURVE SMOOTH",
"669 -227 OFFCURVE",
"644 -203 OFFCURVE",
"644 -156 CURVE SMOOTH",
"644 -93 OFFCURVE",
"690 -50 OFFCURVE",
"808 10 CURVE",
"758 -2 LINE",
"583 -31 OFFCURVE",
"529 -106 OFFCURVE",
"529 -182 CURVE SMOOTH",
"529 -264 OFFCURVE",
"591 -326 OFFCURVE",
"693 -326 CURVE SMOOTH"
);
}
);
width = 1284;
},
{
anchors = (
{
name = top;
position = "{672, 1454}";
},
{
name = topright;
position = "{1304, 1454}";
}
);
layerId = "09AB1441-CF14-483D-884E-606841830E4D";
paths = (
{
closed = 1;
nodes = (
"978 -20 OFFCURVE",
"1199 170 OFFCURVE",
"1199 566 CURVE SMOOTH",
"1199 1454 LINE",
"969 1454 LINE",
"969 564 LINE SMOOTH",
"969 279 OFFCURVE",
"841 187 OFFCURVE",
"679 187 CURVE SMOOTH",
"504 187 OFFCURVE",
"375 279 OFFCURVE",
"375 564 CURVE SMOOTH",
"375 1456 LINE",
"145 1456 LINE",
"145 566 LINE SMOOTH",
"145 170 OFFCURVE",
"358 -20 OFFCURVE",
"679 -20 CURVE SMOOTH"
);
},
{
closed = 1;
nodes = (
"769 -386 OFFCURVE",
"799 -379 OFFCURVE",
"858 -354 CURVE",
"857 -214 LINE",
"825 -230 OFFCURVE",
"797 -235 OFFCURVE",
"759 -235 CURVE SMOOTH",
"714 -235 OFFCURVE",
"686 -208 OFFCURVE",
"686 -164 CURVE SMOOTH",
"686 -103 OFFCURVE",
"742 -47 OFFCURVE",
"860 10 CURVE",
"772 -5 LINE",
"565 -40 OFFCURVE",
"501 -111 OFFCURVE",
"501 -203 CURVE SMOOTH",
"501 -314 OFFCURVE",
"580 -386 OFFCURVE",
"700 -386 CURVE SMOOTH"
);
}
);
width = 1344;
},
{
anchors = (
{
name = top;
position = "{682, 1454}";
},
{
name = topright;
position = "{1330, 1454}";
}
);
layerId = "BF6BC6F6-4B2A-4E9B-9E28-8B62B2F12FD9";
paths = (
{
closed = 1;
nodes = (
"1027 -20 OFFCURVE",
"1249 199 OFFCURVE",
"1249 558 CURVE SMOOTH",
"1249 1454 LINE",
"928 1454 LINE",
"928 595 LINE SMOOTH",
"928 370 OFFCURVE",
"846 264 OFFCURVE",
"684 264 CURVE SMOOTH",
"519 264 OFFCURVE",
"435 371 OFFCURVE",
"435 595 CURVE SMOOTH",
"435 1456 LINE",
"114 1456 LINE",
"114 558 LINE SMOOTH",
"114 193 OFFCURVE",
"338 -20 OFFCURVE",
"682 -20 CURVE SMOOTH"
);
},
{
closed = 1;
nodes = (
"760 -421 OFFCURVE",
"830 -407 OFFCURVE",
"881 -385 CURVE",
"880 -210 LINE",
"848 -226 OFFCURVE",
"813 -235 OFFCURVE",
"782 -235 CURVE SMOOTH",
"736 -235 OFFCURVE",
"709 -210 OFFCURVE",
"709 -168 CURVE SMOOTH",
"709 -91 OFFCURVE",
"767 -48 OFFCURVE",
"883 10 CURVE",
"779 -10 LINE",
"518 -32 OFFCURVE",
"462 -132 OFFCURVE",
"462 -229 CURVE SMOOTH",
"462 -346 OFFCURVE",
"555 -421 OFFCURVE",
"696 -421 CURVE SMOOTH"
);
}
);
width = 1363;
}
);
unicode = 0172;
},
{
glyphname = V;
lastChange = "2021-11-17 04:04:56 +0000";
layers = (
{
anchors = (
{
name = bottom;
position = "{618, 0}";
},
{
name = top;
position = "{618, 1454}";
}
);
layerId = "0D9D1AFE-BAFC-449A-A530-9FCA9CDF2E2E";
paths = (
{
closed = 1;
nodes = (
"710 0 LINE",
"1205 1454 LINE",
"1072 1454 LINE",
"844 769 LINE",
"619 104 LINE",
"614 104 LINE",
"390 769 LINE",
"163 1454 LINE",
"30 1454 LINE",
"528 0 LINE"
);
}
);
width = 1235;
},
{
anchors = (
{
name = bottom;
position = "{605, 0}";
},
{
name = top;
position = "{605, 1454}";
}
);
layerId = "09AB1441-CF14-483D-884E-606841830E4D";
paths = (
{
closed = 1;
nodes = (
"751 0 LINE",
"1179 1454 LINE",
"920 1454 LINE",
"740 769 LINE",
"613 220 LINE",
"596 220 LINE",
"469 769 LINE",
"289 1454 LINE",
"30 1454 LINE",
"459 0 LINE"
);
}
);
width = 1209;
},
{
anchors = (
{
name = bottom;
position = "{665, 0}";
},
{
name = top;
position = "{665, 1454}";
}
);
layerId = "BF6BC6F6-4B2A-4E9B-9E28-8B62B2F12FD9";
paths = (
{
closed = 1;
nodes = (
"878 0 LINE",
"1302 1454 LINE",
"955 1454 LINE",
"742 606 LINE",
"668 268 LINE",
"661 268 LINE",
"585 606 LINE",
"373 1454 LINE",
"26 1454 LINE",
"450 0 LINE"
);
}
);
width = 1328;
}
);
unicode = 0056;
},
{
glyphname = W;
lastChange = "2021-11-17 04:04:56 +0000";
layers = (
{
anchors = (
{
name = bottom;
position = "{945, 0}";
},
{
name = top;
position = "{945, 1454}";
}
);
layerId = "0D9D1AFE-BAFC-449A-A530-9FCA9CDF2E2E";
paths = (
{
closed = 1;
nodes = (
"651 0 LINE",
"819 749 LINE",
"943 1371 LINE",
"948 1371 LINE",
"1071 749 LINE",
"1239 0 LINE",
"1431 0 LINE",
"1860 1454 LINE",
"1730 1454 LINE",
"1542 769 LINE",
"1342 111 LINE",
"1331 111 LINE",
"1193 769 LINE",
"1057 1454 LINE",
"834 1454 LINE",
"697 769 LINE",
"560 111 LINE",
"549 111 LINE",
"348 769 LINE",
"160 1454 LINE",
"30 1454 LINE",
"460 0 LINE"
);
}
);
width = 1890;
},
{
anchors = (
{
name = bottom;
position = "{945, 0}";
},
{
name = top;
position = "{945, 1454}";
}
);
layerId = "09AB1441-CF14-483D-884E-606841830E4D";
paths = (
{
closed = 1;
nodes = (
"699 0 LINE",
"870 749 LINE",
"933 1111 LINE",
"938 1111 LINE",
"1000 749 LINE",
"1172 0 LINE",
"1467 0 LINE",
"1860 1454 LINE",
"1612 1454 LINE",
"1460 779 LINE",
"1332 191 LINE",
"1321 191 LINE",
"1207 779 LINE",
"1062 1454 LINE",
"808 1454 LINE",
"664 779 LINE",
"550 191 LINE",
"539 191 LINE",
"419 779 LINE",
"277 1454 LINE",
"30 1454 LINE",
"403 0 LINE"
);
}
);
width = 1890;
},
{
anchors = (
{
name = bottom;
position = "{985, 0}";
},
{
name = top;
position = "{985, 1454}";
}
);
layerId = "BF6BC6F6-4B2A-4E9B-9E28-8B62B2F12FD9";
paths = (
{
closed = 1;
nodes = (
"787 0 LINE",
"927 788 LINE",
"979 1165 LINE",
"985 1165 LINE",
"1037 788 LINE",
"1178 0 LINE",
"1579 0 LINE",
"1947 1454 LINE",
"1607 1454 LINE",
"1450 655 LINE",
"1389 251 LINE",
"1384 251 LINE",
"1331 655 LINE",
"1194 1454 LINE",
"770 1454 LINE",
"634 655 LINE",
"581 251 LINE",
"575 251 LINE",
"517 655 LINE",
"362 1454 LINE",
"22 1454 LINE",
"385 0 LINE"
);
}
);
width = 1969;
}
);
rightMetricsKey = "=|";
unicode = 0057;
},
{
glyphname = X;
lastChange = "2021-11-17 04:04:56 +0000";
layers = (
{
anchors = (
{
name = bottom;
position = "{636, 0}";
},
{
name = top;
position = "{636, 1454}";
}
);
layerId = "0D9D1AFE-BAFC-449A-A530-9FCA9CDF2E2E";
paths = (
{
closed = 1;
nodes = (
"200 0 LINE",
"396 296 LINE",
"636 666 LINE",
"876 296 LINE",
"1072 0 LINE",
"1217 0 LINE",
"729 724 LINE",
"1224 1454 LINE",
"1079 1454 LINE",
"875 1148 LINE",
"636 781 LINE",
"396 1148 LINE",
"192 1454 LINE",
"47 1454 LINE",
"542 724 LINE",
"55 0 LINE"
);
}
);
width = 1271;
},
{
anchors = (
{
name = bottom;
position = "{640, 0}";
},
{
name = top;
position = "{640, 1454}";
}
);
layerId = "09AB1441-CF14-483D-884E-606841830E4D";
paths = (
{
closed = 1;
nodes = (
"339 0 LINE",
"491 296 LINE",
"637 574 LINE",
"787 298 LINE",
"935 0 LINE",
"1224 0 LINE",
"787 724 LINE",
"1224 1454 LINE",
"935 1454 LINE",
"787 1146 LINE",
"641 882 LINE",
"491 1148 LINE",
"339 1454 LINE",
"55 1454 LINE",
"493 724 LINE",
"55 0 LINE"
);
}
);
width = 1279;
},
{
anchors = (
{
name = bottom;
position = "{677, 0}";
},
{
name = top;
position = "{677, 1454}";
}
);
layerId = "BF6BC6F6-4B2A-4E9B-9E28-8B62B2F12FD9";
paths = (
{
closed = 1;
nodes = (
"386 0 LINE",
"554 296 LINE",
"676 551 LINE",
"803 298 LINE",
"967 0 LINE",
"1334 0 LINE",
"896 724 LINE",
"1326 1454 LINE",
"959 1454 LINE",
"813 1166 LINE",
"681 905 LINE",
"544 1168 LINE",
"394 1454 LINE",
"28 1454 LINE",
"463 724 LINE",
"20 0 LINE"
);
}
);
width = 1354;
}
);
rightMetricsKey = "=|";
unicode = 0058;
},
{
glyphname = Y;
lastChange = "2021-11-17 04:04:56 +0000";
layers = (
{
anchors = (
{
name = bottom;
position = "{623, 0}";
},
{
name = top;
position = "{623, 1454}";
},
{
name = topleft;
position = "{20, 1454}";
}
);
layerId = "0D9D1AFE-BAFC-449A-A530-9FCA9CDF2E2E";
paths = (
{
closed = 1;
nodes = (
"680 528 LINE",
"1205 1454 LINE",
"1060 1454 LINE",
"844 1038 LINE",
"627 656 LINE",
"617 656 LINE",
"401 1038 LINE",
"185 1454 LINE",
"40 1454 LINE",
"565 528 LINE"
);
},
{
closed = 1;
nodes = (
"684 0 LINE",
"684 581 LINE",
"560 581 LINE",
"560 0 LINE"
);
}
);
width = 1245;
},
{
anchors = (
{
name = bottom;
position = "{633, 0}";
},
{
name = top;
position = "{633, 1454}";
},
{
name = topleft;
position = "{20, 1454}";
}
);
layerId = "09AB1441-CF14-483D-884E-606841830E4D";
paths = (
{
closed = 1;
nodes = (
"743 468 LINE",
"1245 1454 LINE",
"981 1454 LINE",
"797 1067 LINE",
"641 724 LINE",
"622 724 LINE",
"467 1068 LINE",
"285 1454 LINE",
"20 1454 LINE",
"523 468 LINE"
);
},
{
closed = 1;
nodes = (
"747 0 LINE",
"747 591 LINE",
"519 591 LINE",
"519 0 LINE"
);
}
);
width = 1265;
},
{
anchors = (
{
name = bottom;
position = "{655, 0}";
},
{
name = top;
position = "{655, 1454}";
},
{
name = topleft;
position = "{42, 1454}";
}
);
layerId = "BF6BC6F6-4B2A-4E9B-9E28-8B62B2F12FD9";
paths = (
{
closed = 1;
nodes = (
"812 453 LINE",
"1308 1454 LINE",
"948 1454 LINE",
"771 1021 LINE",
"660 763 LINE",
"648 763 LINE",
"538 1022 LINE",
"361 1454 LINE",
"1 1454 LINE",
"497 453 LINE"
);
},
{
closed = 1;
nodes = (
"814 0 LINE",
"814 645 LINE",
"494 645 LINE",
"494 0 LINE"
);
}
);
width = 1309;
}
);
rightMetricsKey = "=|";
unicode = 0059;
},
{
glyphname = Z;
lastChange = "2021-11-17 04:04:56 +0000";
layers = (
{
anchors = (
{
name = bottom;
position = "{602, 0}";
},
{
name = center;
position = "{602, 727}";
},
{
name = top;
position = "{632, 1454}";
}
);
layerId = "0D9D1AFE-BAFC-449A-A530-9FCA9CDF2E2E";
paths = (
{
closed = 1;
nodes = (
"1116 0 LINE",
"1116 119 LINE",
"543 119 LINE",
"260 110 LINE",
"445 371 LINE",
"1148 1454 LINE",
"140 1454 LINE",
"140 1335 LINE",
"667 1335 LINE",
"938 1340 LINE",
"768 1099 LINE",
"55 0 LINE"
);
}
);
width = 1203;
},
{
anchors = (
{
name = bottom;
position = "{602, 0}";
},
{
name = center;
position = "{602, 727}";
},
{
name = top;
position = "{632, 1454}";
}
);
layerId = "09AB1441-CF14-483D-884E-606841830E4D";
paths = (
{
closed = 1;
nodes = (
"1116 0 LINE",
"1116 195 LINE",
"613 195 LINE",
"402 188 LINE",
"519 343 LINE",
"1148 1454 LINE",
"140 1454 LINE",
"140 1249 LINE",
"667 1249 LINE",
"799 1255 LINE",
"679 1099 LINE",
"55 0 LINE"
);
}
);
width = 1203;
},
{
anchors = (
{
name = bottom;
position = "{602, 0}";
},
{
name = center;
position = "{602, 727}";
},
{
name = top;
position = "{624, 1454}";
}
);
layerId = "BF6BC6F6-4B2A-4E9B-9E28-8B62B2F12FD9";
paths = (
{
closed = 1;
nodes = (
"1124 0 LINE",
"1124 276 LINE",
"666 276 LINE",
"521 269 LINE",
"587 356 LINE",
"1156 1454 LINE",
"117 1454 LINE",
"117 1179 LINE",
"590 1179 LINE",
"711 1187 LINE",
"626 1090 LINE",
"47 0 LINE"
);
}
);
width = 1203;
}
);
unicode = 005A;
},
{
glyphname = G.ss02;
lastChange = "2021-11-16 19:31:17 +0000";
layers = (
{
anchors = (
{
name = bottom;
position = "{789, 0}";
},
{
name = top;
position = "{761, 1454}";
}
);
layerId = "0D9D1AFE-BAFC-449A-A530-9FCA9CDF2E2E";
paths = (
{
closed = 1;
nodes = (
"942 -20 OFFCURVE",
"1087 29 OFFCURVE",
"1202 159 CURVE",
"1217 0 LINE",
"1311 0 LINE",
"1311 750 LINE",
"800 750 LINE",
"800 628 LINE",
"1181 628 LINE",
"1180 285 LINE",
"1101 146 OFFCURVE",
"903 96 OFFCURVE",
"786 96 CURVE SMOOTH",
"507 96 OFFCURVE",
"240 299 OFFCURVE",
"240 731 CURVE SMOOTH",
"240 1098 OFFCURVE",
"453 1363 OFFCURVE",
"746 1363 CURVE SMOOTH",
"1005 1363 OFFCURVE",
"1147 1188 OFFCURVE",
"1167 1047 CURVE",
"1300 1047 LINE",
"1256 1339 OFFCURVE",
"1035 1481 OFFCURVE",
"767 1481 CURVE SMOOTH",
"369 1481 OFFCURVE",
"109 1187 OFFCURVE",
"109 736 CURVE SMOOTH",
"109 271 OFFCURVE",
"372 -20 OFFCURVE",
"787 -20 CURVE SMOOTH"
);
}
);
width = 1421;
},
{
anchors = (
{
name = bottom;
position = "{757, 0}";
},
{
name = top;
position = "{734, 1454}";
}
);
layerId = "09AB1441-CF14-483D-884E-606841830E4D";
paths = (
{
closed = 1;
nodes = (
"925 -19 OFFCURVE",
"1023 32 OFFCURVE",
"1112 127 CURVE",
"1130 0 LINE",
"1298 0 LINE",
"1298 793 LINE",
"828 793 LINE",
"828 591 LINE",
"1087 591 LINE",
"1087 339 LINE",
"1037 266 OFFCURVE",
"953 187 OFFCURVE",
"775 187 CURVE SMOOTH",
"495 187 OFFCURVE",
"327 392 OFFCURVE",
"327 732 CURVE SMOOTH",
"327 1069 OFFCURVE",
"498 1274 OFFCURVE",
"757 1274 CURVE SMOOTH",
"921 1274 OFFCURVE",
"1035 1188 OFFCURVE",
"1055 1046 CURVE",
"1288 1046 LINE",
"1244 1339 OFFCURVE",
"1023 1481 OFFCURVE",
"741 1481 CURVE SMOOTH",
"360 1481 OFFCURVE",
"97 1190 OFFCURVE",
"97 732 CURVE SMOOTH",
"97 271 OFFCURVE",
"361 -19 OFFCURVE",
"777 -19 CURVE SMOOTH"
);
}
);
width = 1409;
},
{
anchors = (
{
name = bottom;
position = "{715, 0}";
},
{
name = top;
position = "{740, 1454}";
}
);
layerId = "BF6BC6F6-4B2A-4E9B-9E28-8B62B2F12FD9";
paths = (
{
closed = 1;
nodes = (
"889 -20 OFFCURVE",
"1028 57 OFFCURVE",
"1048 225 CURVE",
"1090 0 LINE",
"1318 0 LINE",
"1318 827 LINE",
"778 827 LINE",
"778 542 LINE",
"1020 542 LINE",
"1020 383 LINE",
"962 316 OFFCURVE",
"889 282 OFFCURVE",
"772 282 CURVE SMOOTH",
"527 282 OFFCURVE",
"401 442 OFFCURVE",
"401 731 CURVE SMOOTH",
"401 1024 OFFCURVE",
"532 1179 OFFCURVE",
"744 1179 CURVE SMOOTH",
"906 1179 OFFCURVE",
"968 1086 OFFCURVE",
"993 994 CURVE",
"1300 1055 LINE",
"1241 1334 OFFCURVE",
"1028 1481 OFFCURVE",
"737 1481 CURVE SMOOTH",
"346 1481 OFFCURVE",
"73 1208 OFFCURVE",
"73 739 CURVE SMOOTH",
"73 256 OFFCURVE",
"359 -20 OFFCURVE",
"715 -20 CURVE SMOOTH"
);
}
);
width = 1385;
}
);
leftMetricsKey = O;
},
{
glyphname = a;
lastChange = "2021-11-17 04:04:56 +0000";
layers = (
{
anchors = (
{
name = bottom;
position = "{561, 0}";
},
{
name = ogonek;
position = "{931, 0}";
},
{
name = top;
position = "{554, 1091}";
}
);
layerId = "0D9D1AFE-BAFC-449A-A530-9FCA9CDF2E2E";
paths = (
{
closed = 1;
nodes = (
"613 -12 OFFCURVE",
"763 71 OFFCURVE",
"813 227 CURVE",
"813 0 LINE",
"931 0 LINE",
"931 743 LINE SMOOTH",
"931 1025 OFFCURVE",
"742 1112 OFFCURVE",
"550 1112 CURVE SMOOTH",
"286 1112 OFFCURVE",
"113 962 OFFCURVE",
"138 716 CURVE",
"262 716 LINE",
"250 946 OFFCURVE",
"391 995 OFFCURVE",
"544 995 CURVE SMOOTH",
"713 995 OFFCURVE",
"813 933 OFFCURVE",
"813 718 CURVE SMOOTH",
"813 634 LINE",
"678 629 OFFCURVE",
"537 621 OFFCURVE",
"424 597 CURVE SMOOTH",
"229 555 OFFCURVE",
"120 451 OFFCURVE",
"120 297 CURVE SMOOTH",
"120 124 OFFCURVE",
"226 -12 OFFCURVE",
"448 -12 CURVE SMOOTH"
);
},
{
closed = 1;
nodes = (
"295 92 OFFCURVE",
"250 197 OFFCURVE",
"250 301 CURVE SMOOTH",
"250 404 OFFCURVE",
"325 469 OFFCURVE",
"458 505 CURVE SMOOTH",
"560 533 OFFCURVE",
"697 544 OFFCURVE",
"813 550 CURVE",
"813 324 LINE",
"789 245 OFFCURVE",
"681 90 OFFCURVE",
"465 91 CURVE SMOOTH"
);
}
);
width = 1101;
},
{
anchors = (
{
name = bottom;
position = "{542, 0}";
},
{
name = ogonek;
position = "{954, 0}";
},
{
name = top;
position = "{542, 1091}";
}
);
layerId = "09AB1441-CF14-483D-884E-606841830E4D";
paths = (
{
closed = 1;
nodes = (
"609 -12 OFFCURVE",
"713 95 OFFCURVE",
"738 243 CURVE",
"735 0 LINE",
"954 0 LINE",
"954 714 LINE SMOOTH",
"954 1028 OFFCURVE",
"769 1112 OFFCURVE",
"551 1112 CURVE SMOOTH",
"272 1112 OFFCURVE",
"95 987 OFFCURVE",
"118 705 CURVE",
"322 705 LINE",
"326 882 OFFCURVE",
"397 921 OFFCURVE",
"537 921 CURVE SMOOTH",
"682 921 OFFCURVE",
"738 843 OFFCURVE",
"738 694 CURVE SMOOTH",
"738 647 LINE",
"674 642 OFFCURVE",
"501 630 OFFCURVE",
"372 602 CURVE SMOOTH",
"189 562 OFFCURVE",
"81 475 OFFCURVE",
"81 284 CURVE SMOOTH",
"81 112 OFFCURVE",
"222 -12 OFFCURVE",
"423 -12 CURVE SMOOTH"
);
},
{
closed = 1;
nodes = (
"401 162 OFFCURVE",
"328 218 OFFCURVE",
"328 307 CURVE SMOOTH",
"328 413 OFFCURVE",
"393 454 OFFCURVE",
"545 485 CURVE SMOOTH",
"598 496 OFFCURVE",
"684 512 OFFCURVE",
"738 517 CURVE",
"738 313 LINE",
"715 219 OFFCURVE",
"584 162 OFFCURVE",
"481 162 CURVE SMOOTH"
);
}
);
width = 1099;
},
{
anchors = (
{
name = bottom;
position = "{566, 0}";
},
{
name = ogonek;
position = "{1018, 0}";
},
{
name = top;
position = "{566, 1091}";
}
);
layerId = "BF6BC6F6-4B2A-4E9B-9E28-8B62B2F12FD9";
paths = (
{
closed = 1;
nodes = (
"604 -12 OFFCURVE",
"691 108 OFFCURVE",
"715 255 CURVE",
"713 0 LINE",
"1021 0 LINE",
"1021 714 LINE SMOOTH",
"1021 1028 OFFCURVE",
"799.991 1112 OFFCURVE",
"570 1112 CURVE SMOOTH",
"274 1112 OFFCURVE",
"76 978 OFFCURVE",
"100 690 CURVE",
"394 690 LINE",
"392 834 OFFCURVE",
"450 870 OFFCURVE",
"560 870 CURVE SMOOTH",
"675 870 OFFCURVE",
"715 820 OFFCURVE",
"715 682 CURVE SMOOTH",
"715 652 LINE",
"637 646 OFFCURVE",
"499 635 OFFCURVE",
"381 611 CURVE SMOOTH",
"205 575 OFFCURVE",
"72 491 OFFCURVE",
"72 293 CURVE SMOOTH",
"72 94 OFFCURVE",
"217 -12 OFFCURVE",
"404 -12 CURVE SMOOTH"
);
},
{
closed = 1;
nodes = (
"430 194 OFFCURVE",
"388 241 OFFCURVE",
"388 319 CURVE SMOOTH",
"388 401 OFFCURVE",
"429 450 OFFCURVE",
"562 480 CURVE SMOOTH",
"603 490 OFFCURVE",
"662 500 OFFCURVE",
"715 508 CURVE",
"715 336 LINE",
"699 255 OFFCURVE",
"604 194 OFFCURVE",
"507 194 CURVE SMOOTH"
);
}
);
width = 1139;
}
);
unicode = 0061;
},
{
glyphname = ae;
lastChange = "2021-11-16 19:31:17 +0000";
layers = (
{
anchors = (
{
name = bottom;
position = "{926, 0}";
},
{
name = top;
position = "{926, 1091}";
}
);
background = {
components = (
{
name = a;
}
);
};
layerId = "0D9D1AFE-BAFC-449A-A530-9FCA9CDF2E2E";
paths = (
{
closed = 1;
nodes = (
"626 -12 OFFCURVE",
"784 101 OFFCURVE",
"858 277 CURVE",
"929 94 OFFCURVE",
"1082 -12 OFFCURVE",
"1290 -12 CURVE SMOOTH",
"1534 -12 OFFCURVE",
"1692 112 OFFCURVE",
"1701 310 CURVE",
"1579 310 LINE",
"1561 175 OFFCURVE",
"1470 100 OFFCURVE",
"1310 100 CURVE SMOOTH",
"1079 100 OFFCURVE",
"949 256 OFFCURVE",
"938 517 CURVE",
"1716 517 LINE",
"1720 561 OFFCURVE",
"1721 586 OFFCURVE",
"1721 608 CURVE SMOOTH",
"1721 904 OFFCURVE",
"1540 1113 OFFCURVE",
"1283 1113 CURVE SMOOTH",
"1102 1113 OFFCURVE",
"958 1010 OFFCURVE",
"897 857 CURVE",
"867 1020 OFFCURVE",
"735 1112 OFFCURVE",
"547 1112 CURVE SMOOTH",
"283 1112 OFFCURVE",
"112 967 OFFCURVE",
"138 716 CURVE",
"262 716 LINE",
"251 950 OFFCURVE",
"387 995 OFFCURVE",
"540 995 CURVE SMOOTH",
"713 995 OFFCURVE",
"813 930 OFFCURVE",
"813 718 CURVE SMOOTH",
"813 634 LINE",
"676 630 OFFCURVE",
"538 622 OFFCURVE",
"426 597 CURVE SMOOTH",
"228 553 OFFCURVE",
"120 451 OFFCURVE",
"120 296 CURVE SMOOTH",
"120 127 OFFCURVE",
"226 -12 OFFCURVE",
"443 -12 CURVE SMOOTH"
);
},
{
closed = 1;
nodes = (
"297 91 OFFCURVE",
"250 198 OFFCURVE",
"250 296 CURVE SMOOTH",
"250 405 OFFCURVE",
"325 469 OFFCURVE",
"453 503 CURVE SMOOTH",
"558 531 OFFCURVE",
"699 544 OFFCURVE",
"811 551 CURVE",
"811 313 LINE",
"787 244 OFFCURVE",
"684 91 OFFCURVE",
"465 91 CURVE SMOOTH"
);
},
{
closed = 1;
nodes = (
"944 832 OFFCURVE",
"1077 998 OFFCURVE",
"1279 998 CURVE SMOOTH",
"1472 998 OFFCURVE",
"1598 845 OFFCURVE",
"1598 625 CURVE",
"1027 625 LINE SMOOTH",
"971 625 OFFCURVE",
"946 607 OFFCURVE",
"938 563 CURVE"
);
}
);
width = 1809;
},
{
anchors = (
{
name = bottom;
position = "{885, 0}";
},
{
name = top;
position = "{885, 1091}";
}
);
layerId = "09AB1441-CF14-483D-884E-606841830E4D";
paths = (
{
closed = 1;
nodes = (
"650 -13 OFFCURVE",
"787 93 OFFCURVE",
"828 278 CURVE",
"901 85 OFFCURVE",
"1064 -13 OFFCURVE",
"1258 -13 CURVE SMOOTH",
"1480 -13 OFFCURVE",
"1656 105 OFFCURVE",
"1673 310 CURVE",
"1455 310 LINE",
"1436 244 OFFCURVE",
"1364 171 OFFCURVE",
"1236 171 CURVE SMOOTH",
"1083 171 OFFCURVE",
"971 275 OFFCURVE",
"964 517 CURVE",
"1704 517 LINE",
"1705 533 OFFCURVE",
"1709 565 OFFCURVE",
"1709 611 CURVE SMOOTH",
"1709 935 OFFCURVE",
"1521 1113 OFFCURVE",
"1249 1113 CURVE SMOOTH",
"1103 1113 OFFCURVE",
"974 1062 OFFCURVE",
"890 909 CURVE",
"822 1066 OFFCURVE",
"688 1112 OFFCURVE",
"534 1112 CURVE SMOOTH",
"265 1112 OFFCURVE",
"93 970 OFFCURVE",
"118 705 CURVE",
"322 705 LINE",
"324 876 OFFCURVE",
"398 922 OFFCURVE",
"525 922 CURVE SMOOTH",
"682 922 OFFCURVE",
"738 851 OFFCURVE",
"738 694 CURVE SMOOTH",
"738 647 LINE",
"694 642 OFFCURVE",
"517 635 OFFCURVE",
"373 601 CURVE SMOOTH",
"165 552 OFFCURVE",
"81 457 OFFCURVE",
"81 301 CURVE SMOOTH",
"81 100 OFFCURVE",
"222 -13 OFFCURVE",
"432 -13 CURVE SMOOTH"
);
},
{
closed = 1;
nodes = (
"401 162 OFFCURVE",
"328 210 OFFCURVE",
"328 317 CURVE SMOOTH",
"328 406 OFFCURVE",
"378 448 OFFCURVE",
"547 485 CURVE SMOOTH",
"598 496 OFFCURVE",
"675 511 OFFCURVE",
"738 517 CURVE",
"738 313 LINE",
"717 221 OFFCURVE",
"582 162 OFFCURVE",
"487 162 CURVE SMOOTH"
);
},
{
closed = 1;
nodes = (
"982 802 OFFCURVE",
"1060 920 OFFCURVE",
"1244 920 CURVE SMOOTH",
"1406 920 OFFCURVE",
"1480 828 OFFCURVE",
"1483 676 CURVE",
"1070 676 LINE SMOOTH",
"1009 676 OFFCURVE",
"976 658 OFFCURVE",
"966 604 CURVE"
);
}
);
width = 1769;
},
{
anchors = (
{
name = bottom;
position = "{872, 0}";
},
{
name = top;
position = "{872, 1091}";
}
);
layerId = "BF6BC6F6-4B2A-4E9B-9E28-8B62B2F12FD9";
paths = (
{
closed = 1;
nodes = (
"647 -14 OFFCURVE",
"737 99 OFFCURVE",
"774 263 CURVE",
"847 73 OFFCURVE",
"1048 -14 OFFCURVE",
"1232 -14 CURVE SMOOTH",
"1476 -14 OFFCURVE",
"1664 149 OFFCURVE",
"1674 356 CURVE",
"1377 356 LINE",
"1374 278 OFFCURVE",
"1310 225 OFFCURVE",
"1204 225 CURVE SMOOTH",
"1074 225 OFFCURVE",
"1000 307 OFFCURVE",
"988 486 CURVE",
"1684 486 LINE",
"1687 532 OFFCURVE",
"1689 568 OFFCURVE",
"1689 598 CURVE SMOOTH",
"1689 918 OFFCURVE",
"1516 1113 OFFCURVE",
"1244 1113 CURVE SMOOTH",
"1103 1113 OFFCURVE",
"947 1060 OFFCURVE",
"879 931 CURVE",
"829 1061 OFFCURVE",
"688 1112 OFFCURVE",
"527 1112 CURVE SMOOTH",
"267 1112 OFFCURVE",
"71 952 OFFCURVE",
"100 705 CURVE",
"394 705 LINE",
"391 836 OFFCURVE",
"451 870 OFFCURVE",
"552 870 CURVE SMOOTH",
"672 870 OFFCURVE",
"712 822 OFFCURVE",
"712 682 CURVE SMOOTH",
"712 652 LINE",
"621 644 OFFCURVE",
"491 635 OFFCURVE",
"378 610 CURVE SMOOTH",
"166 561 OFFCURVE",
"72 469 OFFCURVE",
"72 296 CURVE SMOOTH",
"72 91 OFFCURVE",
"203 -14 OFFCURVE",
"436 -14 CURVE SMOOTH"
);
},
{
closed = 1;
nodes = (
"430 194 OFFCURVE",
"388 239 OFFCURVE",
"388 319 CURVE SMOOTH",
"388 403 OFFCURVE",
"431 452 OFFCURVE",
"559 480 CURVE SMOOTH",
"596 488 OFFCURVE",
"656 499 OFFCURVE",
"712 508 CURVE",
"712 336 LINE",
"696 255 OFFCURVE",
"601 194 OFFCURVE",
"509 194 CURVE SMOOTH"
);
},
{
closed = 1;
nodes = (
"990 765 OFFCURVE",
"1055 870 OFFCURVE",
"1200 870 CURVE SMOOTH",
"1320 870 OFFCURVE",
"1380 799 OFFCURVE",
"1385 661 CURVE",
"1123 661 LINE SMOOTH",
"1035 661 OFFCURVE",
"995 632 OFFCURVE",
"986 560 CURVE"
);
}
);
width = 1740;
}
);
leftMetricsKey = a;
rightMetricsKey = e;
unicode = 00E6;
},
{
glyphname = b;
lastChange = "2021-11-17 04:04:56 +0000";
layers = (
{
anchors = (
{
name = bottom;
position = "{556, 0}";
},
{
name = top;
position = "{556, 1586}";
}
);
layerId = "0D9D1AFE-BAFC-449A-A530-9FCA9CDF2E2E";
paths = (
{
closed = 1;
nodes = (
"802 -11 OFFCURVE",
"1034 178 OFFCURVE",
"1034 559 CURVE SMOOTH",
"1034 934 OFFCURVE",
"851 1113 OFFCURVE",
"637 1113 CURVE SMOOTH",
"427 1113 OFFCURVE",
"317 969 OFFCURVE",
"301 867 CURVE",
"284 850 LINE",
"302 798 LINE",
"334 893 OFFCURVE",
"442 997 OFFCURVE",
"610 997 CURVE SMOOTH",
"784 997 OFFCURVE",
"908 866 OFFCURVE",
"908 564 CURVE SMOOTH",
"908 275 OFFCURVE",
"775 105 OFFCURVE",
"570 105 CURVE SMOOTH",
"439 105 OFFCURVE",
"313 228 OFFCURVE",
"302 257 CURVE",
"257 230 LINE",
"289 205 LINE",
"303 136 OFFCURVE",
"401 -11 OFFCURVE",
"595 -11 CURVE SMOOTH"
);
},
{
closed = 1;
nodes = (
"294 0 LINE",
"301 196 LINE",
"320 200 LINE",
"302 236 LINE",
"301 1068 LINE",
"301 1556 LINE",
"181 1556 LINE",
"182 0 LINE"
);
}
);
width = 1132;
},
{
anchors = (
{
name = bottom;
position = "{590, 0}";
},
{
name = top;
position = "{590, 1586}";
}
);
layerId = "09AB1441-CF14-483D-884E-606841830E4D";
paths = (
{
closed = 1;
nodes = (
"878 -12 OFFCURVE",
"1092 177 OFFCURVE",
"1092 568 CURVE SMOOTH",
"1092 883 OFFCURVE",
"953 1112 OFFCURVE",
"687 1112 CURVE SMOOTH",
"478 1112 OFFCURVE",
"385 991 OFFCURVE",
"379 843 CURVE",
"362 810 LINE",
"378 795 LINE",
"391 838 OFFCURVE",
"456 919 OFFCURVE",
"613 919 CURVE SMOOTH",
"755 919 OFFCURVE",
"862 791 OFFCURVE",
"862 543 CURVE SMOOTH",
"862 265 OFFCURVE",
"747 158 OFFCURVE",
"597 158 CURVE SMOOTH",
"456 158 OFFCURVE",
"389 207 OFFCURVE",
"378 256 CURVE",
"310 232 LINE",
"365 194 LINE",
"379 125 OFFCURVE",
"446 -12 OFFCURVE",
"671 -12 CURVE SMOOTH"
);
},
{
closed = 1;
nodes = (
"370 0 LINE",
"379 166 LINE",
"398 200 LINE",
"380 236 LINE",
"379 1068 LINE",
"379 1556 LINE",
"155 1556 LINE",
"156 0 LINE"
);
}
);
width = 1180;
},
{
anchors = (
{
name = bottom;
position = "{595, 0}";
},
{
name = top;
position = "{595, 1586}";
}
);
layerId = "BF6BC6F6-4B2A-4E9B-9E28-8B62B2F12FD9";
paths = (
{
closed = 1;
nodes = (
"970 -13 OFFCURVE",
"1144 194 OFFCURVE",
"1144 553 CURVE SMOOTH",
"1144 893 OFFCURVE",
"993 1112 OFFCURVE",
"740 1112 CURVE SMOOTH",
"573 1112 OFFCURVE",
"480 1017 OFFCURVE",
"443 841 CURVE",
"429 774 LINE",
"442 766 LINE",
"453 809 OFFCURVE",
"527 855 OFFCURVE",
"626 855 CURVE SMOOTH",
"760 855 OFFCURVE",
"833 755 OFFCURVE",
"833 552 CURVE SMOOTH",
"833 340 OFFCURVE",
"756 239 OFFCURVE",
"624 239 CURVE SMOOTH",
"524 239 OFFCURVE",
"463 285 OFFCURVE",
"442 361 CURVE",
"398 305 LINE",
"429 193 LINE",
"453 81 OFFCURVE",
"554 -13 OFFCURVE",
"717 -13 CURVE SMOOTH"
);
},
{
closed = 1;
nodes = (
"417 0 LINE",
"432 187 LINE",
"455 259 LINE",
"443 314 LINE",
"443 1016 LINE",
"443 1556 LINE",
"133 1556 LINE",
"133 0 LINE"
);
}
);
width = 1219;
}
);
leftMetricsKey = h;
rightMetricsKey = "=|d";
unicode = 0062;
},
{
glyphname = c;
lastChange = "2021-11-17 04:04:56 +0000";
layers = (
{
anchors = (
{
name = bottom;
position = "{544, 0}";
},
{
name = top;
position = "{564, 1091}";
}
);
layerId = "0D9D1AFE-BAFC-449A-A530-9FCA9CDF2E2E";
paths = (
{
closed = 1;
nodes = (
"837 -15 OFFCURVE",
"961 165 OFFCURVE",
"987 337 CURVE",
"858 337 LINE",
"838 238 OFFCURVE",
"785 101 OFFCURVE",
"565 101 CURVE SMOOTH",
"343 101 OFFCURVE",
"216 269 OFFCURVE",
"216 549 CURVE SMOOTH",
"216 838 OFFCURVE",
"344 996 OFFCURVE",
"561 996 CURVE SMOOTH",
"782 996 OFFCURVE",
"859 826 OFFCURVE",
"870 740 CURVE",
"999 740 LINE",
"969 944 OFFCURVE",
"821 1112 OFFCURVE",
"571 1112 CURVE SMOOTH",
"292 1112 OFFCURVE",
"90 909 OFFCURVE",
"90 540 CURVE SMOOTH",
"90 187 OFFCURVE",
"287 -15 OFFCURVE",
"559 -15 CURVE SMOOTH"
);
}
);
width = 1087;
},
{
anchors = (
{
name = bottom;
position = "{565, 0}";
},
{
name = top;
position = "{565, 1091}";
}
);
layerId = "09AB1441-CF14-483D-884E-606841830E4D";
paths = (
{
closed = 1;
nodes = (
"801 -19 OFFCURVE",
"1008 118 OFFCURVE",
"1001 347 CURVE",
"786 347 LINE",
"790 241 OFFCURVE",
"675 173 OFFCURVE",
"608 173 CURVE SMOOTH",
"400 173 OFFCURVE",
"306 299 OFFCURVE",
"306 554 CURVE SMOOTH",
"306 775 OFFCURVE",
"378 920 OFFCURVE",
"571 919 CURVE SMOOTH",
"715 918 OFFCURVE",
"783 838 OFFCURVE",
"786 720 CURVE",
"1001 720 LINE",
"1009 935 OFFCURVE",
"855 1112 OFFCURVE",
"570 1112 CURVE SMOOTH",
"281 1112 OFFCURVE",
"77 905 OFFCURVE",
"77 549 CURVE SMOOTH",
"77 210 OFFCURVE",
"270 -19 OFFCURVE",
"593 -19 CURVE SMOOTH"
);
}
);
width = 1066;
},
{
anchors = (
{
name = bottom;
position = "{580, 0}";
},
{
name = top;
position = "{573, 1091}";
}
);
layerId = "BF6BC6F6-4B2A-4E9B-9E28-8B62B2F12FD9";
paths = (
{
closed = 1;
nodes = (
"885 -19 OFFCURVE",
"1057 145 OFFCURVE",
"1051 387 CURVE",
"754 387 LINE",
"755 270 OFFCURVE",
"676 226 OFFCURVE",
"594 230 CURVE SMOOTH",
"455 237 OFFCURVE",
"376 326 OFFCURVE",
"376 556 CURVE SMOOTH",
"376 766 OFFCURVE",
"443 867 OFFCURVE",
"583 867 CURVE SMOOTH",
"686 867 OFFCURVE",
"741 813 OFFCURVE",
"746 690 CURVE",
"1047 690 LINE",
"1058 932 OFFCURVE",
"903 1112 OFFCURVE",
"583 1112 CURVE SMOOTH",
"256 1112 OFFCURVE",
"68 899 OFFCURVE",
"68 551 CURVE SMOOTH",
"68 211 OFFCURVE",
"244 -19 OFFCURVE",
"588 -19 CURVE SMOOTH"
);
}
);
width = 1097;
}
);
leftMetricsKey = o;
unicode = 0063;
},
{
glyphname = d;
lastChange = "2021-11-17 04:04:56 +0000";
layers = (
{
anchors = (
{
name = bottom;
position = "{577, 0}";
},
{
name = center;
position = "{577, 546}";
},
{
name = top;
position = "{577, 1586}";
},
{
name = topright;
position = "{990, 1091}";
}
);
layerId = "0D9D1AFE-BAFC-449A-A530-9FCA9CDF2E2E";
paths = (
{
closed = 1;
nodes = (
"717 -12 OFFCURVE",
"809 121 OFFCURVE",
"830 231 CURVE",
"840 276 LINE",
"830 310 LINE",
"791 198 OFFCURVE",
"703 104 OFFCURVE",
"551 104 CURVE SMOOTH",
"360 104 OFFCURVE",
"224 255 OFFCURVE",
"224 550 CURVE SMOOTH",
"224 847 OFFCURVE",
"361 996 OFFCURVE",
"554 996 CURVE SMOOTH",
"726 996 OFFCURVE",
"815 882 OFFCURVE",
"830 849 CURVE",
"877 871 LINE",
"843 906 LINE",
"832 974 OFFCURVE",
"751 1112 OFFCURVE",
"546 1112 CURVE SMOOTH",
"314 1112 OFFCURVE",
"98 936 OFFCURVE",
"98 552 CURVE SMOOTH",
"98 187 OFFCURVE",
"294 -12 OFFCURVE",
"527 -12 CURVE SMOOTH"
);
},
{
closed = 1;
nodes = (
"952 0 LINE",
"950 1556 LINE",
"830 1556 LINE",
"830 0 LINE"
);
}
);
width = 1133;
},
{
anchors = (
{
name = bottom;
position = "{595, 0}";
},
{
name = center;
position = "{595, 546}";
},
{
name = top;
position = "{595, 1586}";
},
{
name = topright;
position = "{1054, 1091}";
}
);
layerId = "09AB1441-CF14-483D-884E-606841830E4D";
paths = (
{
closed = 1;
nodes = (
"748 -12 OFFCURVE",
"803 171 OFFCURVE",
"811 244 CURVE",
"821 276 LINE",
"811 313 LINE",
"798 270 OFFCURVE",
"733 171 OFFCURVE",
"576 171 CURVE SMOOTH",
"424 171 OFFCURVE",
"318 309 OFFCURVE",
"318 547 CURVE SMOOTH",
"318 815 OFFCURVE",
"436 922 OFFCURVE",
"596 922 CURVE SMOOTH",
"737 922 OFFCURVE",
"795 870 OFFCURVE",
"811 824 CURVE",
"898 911 LINE",
"824 906 LINE",
"810 975 OFFCURVE",
"748 1112 OFFCURVE",
"523 1112 CURVE SMOOTH",
"305 1112 OFFCURVE",
"88 923 OFFCURVE",
"88 552 CURVE SMOOTH",
"88 227 OFFCURVE",
"230 -12 OFFCURVE",
"517 -12 CURVE SMOOTH"
);
},
{
closed = 1;
nodes = (
"1035 0 LINE",
"1035 1556 LINE",
"811 1556 LINE",
"812 0 LINE"
);
}
);
width = 1190;
},
{
anchors = (
{
name = bottom;
position = "{617, 0}";
},
{
name = center;
position = "{617, 546}";
},
{
name = top;
position = "{617, 1586}";
},
{
name = topright;
position = "{1119, 1091}";
}
);
layerId = "BF6BC6F6-4B2A-4E9B-9E28-8B62B2F12FD9";
paths = (
{
closed = 1;
nodes = (
"656 -13 OFFCURVE",
"740 96 OFFCURVE",
"778 256 CURVE",
"790 322 LINE",
"778 335 LINE",
"768 292 OFFCURVE",
"693 242 OFFCURVE",
"595 242 CURVE SMOOTH",
"459 242 OFFCURVE",
"386 344 OFFCURVE",
"386 545 CURVE SMOOTH",
"386 755 OFFCURVE",
"463 856 OFFCURVE",
"598 856 CURVE SMOOTH",
"697 856 OFFCURVE",
"757 809 OFFCURVE",
"778 733 CURVE",
"827 804 LINE",
"791 906 LINE",
"767 1018 OFFCURVE",
"667 1112 OFFCURVE",
"504 1112 CURVE SMOOTH",
"249 1112 OFFCURVE",
"75 905 OFFCURVE",
"75 551 CURVE SMOOTH",
"75 208 OFFCURVE",
"227 -13 OFFCURVE",
"484 -13 CURVE SMOOTH"
);
},
{
closed = 1;
nodes = (
"1088 0 LINE",
"1088 1556 LINE",
"778 1556 LINE",
"779 0 LINE"
);
}
);
width = 1221;
}
);
rightMetricsKey = "=|h";
unicode = 0064;
},
{
glyphname = eth;
lastChange = "2021-11-16 19:31:17 +0000";
layers = (
{
layerId = "0D9D1AFE-BAFC-449A-A530-9FCA9CDF2E2E";
paths = (
{
closed = 1;
nodes = (
"756 0 OFFCURVE",
"987 146 OFFCURVE",
"987 596 CURVE SMOOTH",
"987 978 OFFCURVE",
"820 1310 OFFCURVE",
"531 1586 CURVE",
"317 1556 LINE",
"338 1608 LINE",
"576 1385 OFFCURVE",
"859 1067 OFFCURVE",
"860 647 CURVE",
"874 653 LINE",
"820 865 OFFCURVE",
"673 953 OFFCURVE",
"513 953 CURVE SMOOTH",
"284 953 OFFCURVE",
"90 774 OFFCURVE",
"90 478 CURVE SMOOTH",
"90 182 OFFCURVE",
"285 0 OFFCURVE",
"533 0 CURVE SMOOTH"
);
},
{
closed = 1;
nodes = (
"324 116 OFFCURVE",
"217 263 OFFCURVE",
"217 478 CURVE SMOOTH",
"217 717 OFFCURVE",
"350 837 OFFCURVE",
"530 837 CURVE SMOOTH",
"725 837 OFFCURVE",
"820 695 OFFCURVE",
"849 659 CURVE",
"855 649 OFFCURVE",
"863 590 OFFCURVE",
"863 533 CURVE SMOOTH",
"863 295 OFFCURVE",
"759 116 OFFCURVE",
"514 116 CURVE SMOOTH"
);
},
{
closed = 1;
nodes = (
"648 1318 LINE",
"682 1336 LINE",
"868 1476 LINE",
"872 1600 LINE",
"628 1405 LINE",
"601 1390 LINE",
"423 1257 LINE",
"423 1133 LINE"
);
}
);
width = 1085;
},
{
layerId = "09AB1441-CF14-483D-884E-606841830E4D";
paths = (
{
closed = 1;
nodes = (
"789 0 OFFCURVE",
"1010 148 OFFCURVE",
"1010 580 CURVE SMOOTH",
"1010 985 OFFCURVE",
"815 1321 OFFCURVE",
"568 1586 CURVE",
"184 1556 LINE",
"213 1634 LINE",
"560 1384 OFFCURVE",
"817 892 OFFCURVE",
"773 701 CURVE",
"789 708 LINE",
"763 811 OFFCURVE",
"702 963 OFFCURVE",
"494 963 CURVE SMOOTH",
"275 963 OFFCURVE",
"77 793 OFFCURVE",
"77 498 CURVE SMOOTH",
"77 203 OFFCURVE",
"275 0 OFFCURVE",
"552 0 CURVE SMOOTH"
);
},
{
closed = 1;
nodes = (
"407 193 OFFCURVE",
"305 287 OFFCURVE",
"305 491 CURVE SMOOTH",
"305 694 OFFCURVE",
"407 772 OFFCURVE",
"550 772 CURVE SMOOTH",
"638 772 OFFCURVE",
"719 742 OFFCURVE",
"769 687 CURVE",
"779 679 OFFCURVE",
"783 586 OFFCURVE",
"783 537 CURVE SMOOTH",
"783 267 OFFCURVE",
"675 193 OFFCURVE",
"549 193 CURVE SMOOTH"
);
},
{
closed = 1;
nodes = (
"683 1280 LINE",
"713 1290 LINE",
"874 1373 LINE",
"878 1595 LINE",
"606 1422 LINE",
"567 1406 LINE",
"388 1301 LINE",
"388 1079 LINE"
);
}
);
width = 1098;
},
{
layerId = "BF6BC6F6-4B2A-4E9B-9E28-8B62B2F12FD9";
paths = (
{
closed = 1;
nodes = (
"861 -12 OFFCURVE",
"1075 176 OFFCURVE",
"1075 592 CURVE SMOOTH",
"1075 1047 OFFCURVE",
"818 1416 OFFCURVE",
"632 1586 CURVE",
"92 1548 LINE",
"164 1626 LINE",
"430 1482 OFFCURVE",
"788 978 OFFCURVE",
"744 702 CURVE",
"760 686 LINE",
"737 810 OFFCURVE",
"695 1005 OFFCURVE",
"475 1005 CURVE SMOOTH",
"266 1005 OFFCURVE",
"68 828 OFFCURVE",
"68 520 CURVE SMOOTH",
"68 211 OFFCURVE",
"268 -12 OFFCURVE",
"577 -12 CURVE SMOOTH"
);
},
{
closed = 1;
nodes = (
"446 245 OFFCURVE",
"387 349 OFFCURVE",
"387 516 CURVE SMOOTH",
"387 701 OFFCURVE",
"457 770 OFFCURVE",
"579 770 CURVE SMOOTH",
"667 770 OFFCURVE",
"707 733 OFFCURVE",
"740 688 CURVE",
"755 663 OFFCURVE",
"767 597 OFFCURVE",
"767 519 CURVE SMOOTH",
"767 351 OFFCURVE",
"715 245 OFFCURVE",
"580 245 CURVE SMOOTH"
);
},
{
closed = 1;
nodes = (
"688 1244 LINE",
"749 1266 LINE",
"993 1348 LINE",
"945 1560 LINE",
"625 1430 LINE",
"575 1409 LINE",
"321 1320 LINE",
"381 1101 LINE"
);
}
);
width = 1150;
}
);
leftMetricsKey = o;
rightMetricsKey = "=|d";
unicode = 00F0;
},
{
glyphname = dcroat;
lastChange = "2021-11-16 19:31:17 +0000";
layers = (
{
anchors = (
{
name = bottom;
position = "{567, 0}";
},
{
name = center;
position = "{567, 546}";
},
{
name = top;
position = "{567, 1586}";
},
{
name = topright;
position = "{980, 1091}";
}
);
layerId = "0D9D1AFE-BAFC-449A-A530-9FCA9CDF2E2E";
paths = (
{
closed = 1;
nodes = (
"707 -12 OFFCURVE",
"799 121 OFFCURVE",
"820 231 CURVE",
"830 276 LINE",
"820 313 LINE",
"781 201 OFFCURVE",
"693 104 OFFCURVE",
"541 104 CURVE SMOOTH",
"350 104 OFFCURVE",
"214 255 OFFCURVE",
"214 550 CURVE SMOOTH",
"214 847 OFFCURVE",
"351 996 OFFCURVE",
"544 996 CURVE SMOOTH",
"716 996 OFFCURVE",
"805 877 OFFCURVE",
"820 844 CURVE",
"867 871 LINE",
"833 906 LINE",
"822 974 OFFCURVE",
"741 1112 OFFCURVE",
"536 1112 CURVE SMOOTH",
"304 1112 OFFCURVE",
"88 936 OFFCURVE",
"88 552 CURVE SMOOTH",
"88 187 OFFCURVE",
"284 -12 OFFCURVE",
"517 -12 CURVE SMOOTH"
);
},
{
closed = 1;
nodes = (
"942 0 LINE",
"940 1556 LINE",
"820 1556 LINE",
"820 0 LINE"
);
},
{
closed = 1;
nodes = (
"1068 1278 LINE",
"1068 1389 LINE",
"483 1389 LINE",
"483 1278 LINE"
);
}
);
width = 1133;
},
{
anchors = (
{
name = bottom;
position = "{595, 0}";
},
{
name = center;
position = "{595, 546}";
},
{
name = top;
position = "{595, 1586}";
},
{
name = topright;
position = "{1054, 1091}";
}
);
layerId = "09AB1441-CF14-483D-884E-606841830E4D";
paths = (
{
closed = 1;
nodes = (
"748 -12 OFFCURVE",
"803 171 OFFCURVE",
"811 244 CURVE",
"821 276 LINE",
"811 313 LINE",
"798 270 OFFCURVE",
"733 171 OFFCURVE",
"576 171 CURVE SMOOTH",
"424 171 OFFCURVE",
"318 299 OFFCURVE",
"318 547 CURVE SMOOTH",
"318 815 OFFCURVE",
"432 922 OFFCURVE",
"592 922 CURVE SMOOTH",
"733 922 OFFCURVE",
"800 873 OFFCURVE",
"811 824 CURVE",
"898 911 LINE",
"824 906 LINE",
"810 975 OFFCURVE",
"748 1112 OFFCURVE",
"523 1112 CURVE SMOOTH",
"305 1112 OFFCURVE",
"88 923 OFFCURVE",
"88 552 CURVE SMOOTH",
"88 217 OFFCURVE",
"230 -12 OFFCURVE",
"517 -12 CURVE SMOOTH"
);
},
{
closed = 1;
nodes = (
"1035 0 LINE",
"1035 1556 LINE",
"811 1556 LINE",
"812 0 LINE"
);
},
{
closed = 1;
nodes = (
"1117 1224 LINE",
"1118 1406 LINE",
"530 1406 LINE",
"530 1224 LINE"
);
}
);
width = 1190;
},
{
anchors = (
{
name = bottom;
position = "{600, 0}";
},
{
name = center;
position = "{600, 546}";
},
{
name = top;
position = "{600, 1586}";
},
{
name = topright;
position = "{1103, 1091}";
}
);
layerId = "BF6BC6F6-4B2A-4E9B-9E28-8B62B2F12FD9";
paths = (
{
closed = 1;
nodes = (
"648 -13 OFFCURVE",
"732 96 OFFCURVE",
"771 256 CURVE",
"782 322 LINE",
"771 335 LINE",
"760 292 OFFCURVE",
"686 242 OFFCURVE",
"587 242 CURVE SMOOTH",
"451 242 OFFCURVE",
"378 342 OFFCURVE",
"378 545 CURVE SMOOTH",
"378 755 OFFCURVE",
"454 856 OFFCURVE",
"589 856 CURVE SMOOTH",
"689 856 OFFCURVE",
"750 809 OFFCURVE",
"771 733 CURVE",
"820 804 LINE",
"784 906 LINE",
"760 1018 OFFCURVE",
"660 1112 OFFCURVE",
"497 1112 CURVE SMOOTH",
"241 1112 OFFCURVE",
"67 905 OFFCURVE",
"67 551 CURVE SMOOTH",
"67 206 OFFCURVE",
"219 -13 OFFCURVE",
"477 -13 CURVE SMOOTH"
);
},
{
closed = 1;
nodes = (
"1081 0 LINE",
"1081 1556 LINE",
"771 1556 LINE",
"771 0 LINE"
);
},
{
closed = 1;
nodes = (
"1205 1217 LINE",
"1202 1443 LINE",
"538 1443 LINE",
"538 1217 LINE"
);
}
);
width = 1201;
}
);
unicode = 0111;
},
{
glyphname = e;
lastChange = "2021-11-17 04:04:56 +0000";
layers = (
{
anchors = (
{
name = bottom;
position = "{544, 0}";
},
{
name = ogonek;
position = "{732, 9}";
},
{
name = top;
position = "{568, 1091}";
}
);
layerId = "0D9D1AFE-BAFC-449A-A530-9FCA9CDF2E2E";
paths = (
{
closed = 1;
nodes = (
"804 -15 OFFCURVE",
"978 101 OFFCURVE",
"987 310 CURVE",
"865 310 LINE",
"843 163 OFFCURVE",
"749 100 OFFCURVE",
"580 100 CURVE SMOOTH",
"359 100 OFFCURVE",
"222 258 OFFCURVE",
"214 517 CURVE",
"1002 517 LINE",
"1003 533 OFFCURVE",
"1007 567 OFFCURVE",
"1007 606 CURVE SMOOTH",
"1008 901 OFFCURVE",
"841 1113 OFFCURVE",
"572 1113 CURVE SMOOTH",
"295 1113 OFFCURVE",
"93 901 OFFCURVE",
"93 553 CURVE SMOOTH",
"93 186 OFFCURVE",
"299 -15 OFFCURVE",
"571 -15 CURVE SMOOTH"
);
},
{
closed = 1;
nodes = (
"257 625 OFFCURVE",
"223 615 OFFCURVE",
"214 563 CURVE",
"220 836 OFFCURVE",
"344 998 OFFCURVE",
"565 998 CURVE SMOOTH",
"765 998 OFFCURVE",
"884 854 OFFCURVE",
"884 625 CURVE",
"303 625 LINE SMOOTH"
);
}
);
width = 1095;
},
{
anchors = (
{
name = bottom;
position = "{556, 0}";
},
{
name = ogonek;
position = "{761, 10}";
},
{
name = top;
position = "{582, 1091}";
}
);
layerId = "09AB1441-CF14-483D-884E-606841830E4D";
paths = (
{
closed = 1;
nodes = (
"817 -15 OFFCURVE",
"989 101 OFFCURVE",
"1008 310 CURVE",
"790 310 LINE",
"769 241 OFFCURVE",
"700 171 OFFCURVE",
"565 171 CURVE SMOOTH",
"421 171 OFFCURVE",
"308 276 OFFCURVE",
"298 504 CURVE",
"1039 504 LINE",
"1040 543 OFFCURVE",
"1044 561 OFFCURVE",
"1044 606 CURVE SMOOTH",
"1044 935 OFFCURVE",
"870 1113 OFFCURVE",
"579 1113 CURVE SMOOTH",
"285 1113 OFFCURVE",
"73 904 OFFCURVE",
"73 549 CURVE SMOOTH",
"73 182 OFFCURVE",
"269 -15 OFFCURVE",
"584 -15 CURVE SMOOTH"
);
},
{
closed = 1;
nodes = (
"342 663 OFFCURVE",
"309 646 OFFCURVE",
"298 589 CURVE",
"310 794 OFFCURVE",
"394 920 OFFCURVE",
"572 920 CURVE SMOOTH",
"746 920 OFFCURVE",
"814 825 OFFCURVE",
"818 663 CURVE",
"403 663 LINE SMOOTH"
);
}
);
width = 1104;
},
{
anchors = (
{
name = bottom;
position = "{593, 0}";
},
{
name = ogonek;
position = "{805, 32}";
},
{
name = top;
position = "{595, 1091}";
}
);
layerId = "BF6BC6F6-4B2A-4E9B-9E28-8B62B2F12FD9";
paths = (
{
closed = 1;
nodes = (
"862 -15 OFFCURVE",
"1039 130 OFFCURVE",
"1057 356 CURVE",
"759 356 LINE",
"748 277 OFFCURVE",
"693 225 OFFCURVE",
"584 225 CURVE SMOOTH",
"452 225 OFFCURVE",
"379 305 OFFCURVE",
"364 486 CURVE",
"1066 486 LINE",
"1069 532 OFFCURVE",
"1071 569 OFFCURVE",
"1071 597 CURVE SMOOTH",
"1071 933 OFFCURVE",
"903 1113 OFFCURVE",
"592 1113 CURVE SMOOTH",
"270 1113 OFFCURVE",
"59 914 OFFCURVE",
"59 546 CURVE SMOOTH",
"59 189 OFFCURVE",
"251 -15 OFFCURVE",
"583 -15 CURVE SMOOTH"
);
},
{
closed = 1;
nodes = (
"411 661 OFFCURVE",
"371 637 OFFCURVE",
"361 561 CURVE SMOOTH",
"362 758 OFFCURVE",
"428 870 OFFCURVE",
"579 870 CURVE SMOOTH",
"707 870 OFFCURVE",
"767 801 OFFCURVE",
"772 661 CURVE",
"491 661 LINE SMOOTH"
);
}
);
width = 1122;
}
);
unicode = 0065;
},
{
color = 0;
glyphname = eogonek;
lastChange = "2021-11-16 19:31:49 +0000";
layers = (
{
layerId = "0D9D1AFE-BAFC-449A-A530-9FCA9CDF2E2E";
paths = (
{
closed = 1;
nodes = (
"740 -337 OFFCURVE",
"789 -327 OFFCURVE",
"815 -315 CURVE",
"814 -214 LINE",
"782 -229 OFFCURVE",
"750 -238 OFFCURVE",
"726 -238 CURVE SMOOTH",
"678 -238 OFFCURVE",
"652 -212 OFFCURVE",
"652 -165 CURVE SMOOTH",
"652 -112 OFFCURVE",
"664 -54 OFFCURVE",
"802 35 CURVE",
"765 25 LINE",
"685 2 OFFCURVE",
"538 -64 OFFCURVE",
"538 -189 CURVE SMOOTH",
"538 -271 OFFCURVE",
"600 -337 OFFCURVE",
"702 -337 CURVE SMOOTH"
);
},
{
closed = 1;
nodes = (
"804 -15 OFFCURVE",
"978 101 OFFCURVE",
"987 310 CURVE",
"865 310 LINE",
"843 163 OFFCURVE",
"749 100 OFFCURVE",
"580 100 CURVE SMOOTH",
"357 100 OFFCURVE",
"213 269 OFFCURVE",
"214 544 CURVE SMOOTH",
"215 829 OFFCURVE",
"339 998 OFFCURVE",
"565 998 CURVE SMOOTH",
"765 998 OFFCURVE",
"884 854 OFFCURVE",
"884 625 CURVE",
"1002 517 LINE",
"1003 533 OFFCURVE",
"1007 567 OFFCURVE",
"1007 606 CURVE SMOOTH",
"1008 901 OFFCURVE",
"841 1113 OFFCURVE",
"572 1113 CURVE SMOOTH",
"295 1113 OFFCURVE",
"93 901 OFFCURVE",
"93 553 CURVE SMOOTH",
"93 186 OFFCURVE",
"289 -15 OFFCURVE",
"571 -15 CURVE SMOOTH"
);
},
{
closed = 1;
nodes = (
"1002 517 LINE",
"939 625 LINE",
"303 625 LINE SMOOTH",
"257 625 OFFCURVE",
"222 615 OFFCURVE",
"214 561 CURVE",
"179 517 LINE"
);
}
);
width = 1095;
},
{
layerId = "09AB1441-CF14-483D-884E-606841830E4D";
paths = (
{
closed = 1;
nodes = (
"776 -396 OFFCURVE",
"826 -388 OFFCURVE",
"885 -363 CURVE",
"884 -223 LINE",
"852 -239 OFFCURVE",
"814 -245 OFFCURVE",
"786 -245 CURVE SMOOTH",
"741 -245 OFFCURVE",
"713 -218 OFFCURVE",
"713 -164 CURVE SMOOTH",
"713 -66 OFFCURVE",
"767 -7 OFFCURVE",
"844 51 CURVE",
"769 21 LINE",
"636 -35 OFFCURVE",
"528 -92 OFFCURVE",
"528 -233 CURVE SMOOTH",
"528 -314 OFFCURVE",
"607 -396 OFFCURVE",
"727 -396 CURVE SMOOTH"
);
},
{
closed = 1;
nodes = (
"817 -15 OFFCURVE",
"989 101 OFFCURVE",
"1008 310 CURVE",
"790 310 LINE",
"769 241 OFFCURVE",
"700 171 OFFCURVE",
"565 171 CURVE SMOOTH",
"413 171 OFFCURVE",
"297 288 OFFCURVE",
"299 544 CURVE SMOOTH",
"301 775 OFFCURVE",
"381 920 OFFCURVE",
"572 920 CURVE SMOOTH",
"746 920 OFFCURVE",
"814 838 OFFCURVE",
"818 675 CURVE",
"1039 517 LINE",
"1040 533 OFFCURVE",
"1044 567 OFFCURVE",
"1044 606 CURVE SMOOTH",
"1044 935 OFFCURVE",
"870 1113 OFFCURVE",
"579 1113 CURVE SMOOTH",
"285 1113 OFFCURVE",
"73 904 OFFCURVE",
"73 549 CURVE SMOOTH",
"73 182 OFFCURVE",
"269 -15 OFFCURVE",
"584 -15 CURVE SMOOTH"
);
},
{
closed = 1;
nodes = (
"1039 517 LINE",
"976 676 LINE",
"405 676 LINE SMOOTH",
"359 676 OFFCURVE",
"312 666 OFFCURVE",
"304 611 CURVE",
"268 517 LINE"
);
}
);
width = 1104;
},
{
layerId = "BF6BC6F6-4B2A-4E9B-9E28-8B62B2F12FD9";
paths = (
{
closed = 1;
nodes = (
"829 -432 OFFCURVE",
"889 -417 OFFCURVE",
"940 -396 CURVE",
"939 -221 LINE",
"907 -237 OFFCURVE",
"871 -246 OFFCURVE",
"843 -246 CURVE SMOOTH",
"796 -246 OFFCURVE",
"734 -230 OFFCURVE",
"734 -163 CURVE SMOOTH",
"734 -88 OFFCURVE",
"762 -36 OFFCURVE",
"863 58 CURVE",
"771 19 LINE",
"641 -28 OFFCURVE",
"504 -73 OFFCURVE",
"504 -243 CURVE SMOOTH",
"504 -348 OFFCURVE",
"598 -432 OFFCURVE",
"746 -432 CURVE SMOOTH"
);
},
{
closed = 1;
nodes = (
"862 -15 OFFCURVE",
"1039 130 OFFCURVE",
"1057 356 CURVE",
"759 356 LINE",
"748 277 OFFCURVE",
"693 225 OFFCURVE",
"584 225 CURVE SMOOTH",
"442 225 OFFCURVE",
"368 327 OFFCURVE",
"368 561 CURVE SMOOTH",
"368 758 OFFCURVE",
"434 870 OFFCURVE",
"579 870 CURVE SMOOTH",
"706 870 OFFCURVE",
"764 798 OFFCURVE",
"767 652 CURVE",
"1066 486 LINE",
"1069 532 OFFCURVE",
"1071 569 OFFCURVE",
"1071 597 CURVE SMOOTH",
"1071 933 OFFCURVE",
"903 1113 OFFCURVE",
"592 1113 CURVE SMOOTH",
"270 1113 OFFCURVE",
"59 914 OFFCURVE",
"59 546 CURVE SMOOTH",
"59 189 OFFCURVE",
"251 -15 OFFCURVE",
"583 -15 CURVE SMOOTH"
);
},
{
closed = 1;
nodes = (
"1066 486 LINE",
"1003 661 LINE",
"498 661 LINE SMOOTH",
"421 661 OFFCURVE",
"377 633 OFFCURVE",
"371 577 CURVE SMOOTH",
"356 486 LINE"
);
}
);
width = 1109;
}
);
unicode = 0119;
},
{
glyphname = schwa;
lastChange = "2021-11-16 19:31:17 +0000";
layers = (
{
layerId = "0D9D1AFE-BAFC-449A-A530-9FCA9CDF2E2E";
paths = (
{
closed = 1;
nodes = (
"291 1106 OFFCURVE",
"117 990 OFFCURVE",
"108 781 CURVE",
"230 781 LINE",
"252 928 OFFCURVE",
"346 991 OFFCURVE",
"515 991 CURVE SMOOTH",
"736 991 OFFCURVE",
"873 833 OFFCURVE",
"881 574 CURVE",
"93 574 LINE",
"92 558 OFFCURVE",
"88 524 OFFCURVE",
"88 485 CURVE SMOOTH",
"87 190 OFFCURVE",
"254 -22 OFFCURVE",
"523 -22 CURVE SMOOTH",
"800 -22 OFFCURVE",
"1002 190 OFFCURVE",
"1002 538 CURVE SMOOTH",
"1002 905 OFFCURVE",
"796 1106 OFFCURVE",
"524 1106 CURVE SMOOTH"
);
},
{
closed = 1;
nodes = (
"838 466 OFFCURVE",
"872 476 OFFCURVE",
"881 528 CURVE",
"875 255 OFFCURVE",
"751 93 OFFCURVE",
"530 93 CURVE SMOOTH",
"330 93 OFFCURVE",
"211 237 OFFCURVE",
"211 466 CURVE",
"792 466 LINE SMOOTH"
);
}
);
width = 1095;
},
{
layerId = "09AB1441-CF14-483D-884E-606841830E4D";
paths = (
{
closed = 1;
nodes = (
"287 1106 OFFCURVE",
"115 990 OFFCURVE",
"96 781 CURVE",
"314 781 LINE",
"335 850 OFFCURVE",
"404 920 OFFCURVE",
"539 920 CURVE SMOOTH",
"683 920 OFFCURVE",
"796 815 OFFCURVE",
"806 587 CURVE",
"65 587 LINE",
"64 548 OFFCURVE",
"60 530 OFFCURVE",
"60 485 CURVE SMOOTH",
"60 156 OFFCURVE",
"234 -22 OFFCURVE",
"525 -22 CURVE SMOOTH",
"819 -22 OFFCURVE",
"1031 187 OFFCURVE",
"1031 542 CURVE SMOOTH",
"1031 909 OFFCURVE",
"835 1106 OFFCURVE",
"520 1106 CURVE SMOOTH"
);
},
{
closed = 1;
nodes = (
"762 428 OFFCURVE",
"795 445 OFFCURVE",
"806 502 CURVE",
"794 297 OFFCURVE",
"710 171 OFFCURVE",
"532 171 CURVE SMOOTH",
"358 171 OFFCURVE",
"290 266 OFFCURVE",
"286 428 CURVE",
"701 428 LINE SMOOTH"
);
}
);
width = 1104;
},
{
layerId = "BF6BC6F6-4B2A-4E9B-9E28-8B62B2F12FD9";
paths = (
{
closed = 1;
nodes = (
"260 1106 OFFCURVE",
"83 961 OFFCURVE",
"65 735 CURVE",
"363 735 LINE",
"374 814 OFFCURVE",
"429 866 OFFCURVE",
"538 866 CURVE SMOOTH",
"670 866 OFFCURVE",
"743 786 OFFCURVE",
"758 605 CURVE",
"56 605 LINE",
"53 559 OFFCURVE",
"51 522 OFFCURVE",
"51 494 CURVE SMOOTH",
"51 158 OFFCURVE",
"219 -22 OFFCURVE",
"530 -22 CURVE SMOOTH",
"852 -22 OFFCURVE",
"1063 177 OFFCURVE",
"1063 545 CURVE SMOOTH",
"1063 902 OFFCURVE",
"871 1106 OFFCURVE",
"539 1106 CURVE SMOOTH"
);
},
{
closed = 1;
nodes = (
"711 430 OFFCURVE",
"751 454 OFFCURVE",
"761 530 CURVE SMOOTH",
"760 333 OFFCURVE",
"694 221 OFFCURVE",
"543 221 CURVE SMOOTH",
"415 221 OFFCURVE",
"355 290 OFFCURVE",
"350 430 CURVE",
"631 430 LINE SMOOTH"
);
}
);
width = 1122;
}
);
leftMetricsKey = "=|e";
rightMetricsKey = "=|e";
unicode = 0259;
},
{
glyphname = f;
lastChange = "2021-11-17 04:04:56 +0000";
layers = (
{
anchors = (
{
name = bottom;
position = "{353, 0}";
},
{
name = top;
position = "{353, 1586}";
}
);
layerId = "0D9D1AFE-BAFC-449A-A530-9FCA9CDF2E2E";
paths = (
{
closed = 1;
nodes = (
"349 0 LINE",
"349 1191 LINE SMOOTH",
"349 1425 OFFCURVE",
"457 1485 OFFCURVE",
"600 1485 CURVE SMOOTH",
"663 1485 OFFCURVE",
"704 1486 OFFCURVE",
"733 1473 CURVE",
"733 1592 LINE",
"701 1596 OFFCURVE",
"661 1601 OFFCURVE",
"588 1601 CURVE SMOOTH",
"385 1601 OFFCURVE",
"229 1477 OFFCURVE",
"229 1221 CURVE SMOOTH",
"229 1047 LINE",
"280 976 LINE",
"247 965 OFFCURVE",
"229 921 OFFCURVE",
"229 878 CURVE SMOOTH",
"229 0 LINE"
);
},
{
closed = 1;
nodes = (
"626 976 LINE",
"626 1092 LINE",
"46 1092 LINE",
"46 976 LINE"
);
}
);
width = 705;
},
{
anchors = (
{
name = bottom;
position = "{378, 0}";
},
{
name = top;
position = "{378, 1586}";
}
);
layerId = "09AB1441-CF14-483D-884E-606841830E4D";
paths = (
{
closed = 1;
nodes = (
"454 0 LINE",
"454 1191 LINE SMOOTH",
"454 1352 OFFCURVE",
"504 1396 OFFCURVE",
"614 1396 CURVE SMOOTH",
"677 1396 OFFCURVE",
"716 1387 OFFCURVE",
"745 1376 CURVE",
"746 1592 LINE",
"714 1596 OFFCURVE",
"672 1601 OFFCURVE",
"608 1601 CURVE SMOOTH",
"402 1601 OFFCURVE",
"233 1477 OFFCURVE",
"233 1221 CURVE SMOOTH",
"233 1047 LINE",
"284 892 LINE",
"251 881 OFFCURVE",
"233 840 OFFCURVE",
"233 798 CURVE SMOOTH",
"233 0 LINE"
);
},
{
closed = 1;
nodes = (
"706 892 LINE",
"706 1092 LINE",
"66 1092 LINE",
"66 892 LINE"
);
}
);
width = 756;
},
{
anchors = (
{
name = bottom;
position = "{383, 0}";
},
{
name = top;
position = "{383, 1586}";
}
);
layerId = "BF6BC6F6-4B2A-4E9B-9E28-8B62B2F12FD9";
paths = (
{
closed = 1;
nodes = (
"508 0 LINE",
"508 1191 LINE SMOOTH",
"508 1309 OFFCURVE",
"554 1340 OFFCURVE",
"623 1340 CURVE SMOOTH",
"678 1340 OFFCURVE",
"725 1333 OFFCURVE",
"754 1323 CURVE",
"754 1590 LINE",
"706 1599 OFFCURVE",
"668 1604 OFFCURVE",
"574 1604 CURVE SMOOTH",
"367 1604 OFFCURVE",
"197 1477 OFFCURVE",
"197 1221 CURVE SMOOTH",
"197 1047 LINE",
"264 849 LINE",
"221 838 OFFCURVE",
"197 814 OFFCURVE",
"197 747 CURVE SMOOTH",
"197 0 LINE"
);
},
{
closed = 1;
nodes = (
"711 849 LINE",
"711 1092 LINE",
"63 1092 LINE",
"63 849 LINE"
);
}
);
width = 765;
}
);
unicode = 0066;
},
{
glyphname = g;
lastChange = "2021-11-17 04:04:56 +0000";
layers = (
{
anchors = (
{
name = bottom;
position = "{544, -445}";
},
{
name = top;
position = "{537, 1091}";
}
);
layerId = "0D9D1AFE-BAFC-449A-A530-9FCA9CDF2E2E";
paths = (
{
closed = 1;
nodes = (
"793 -444 OFFCURVE",
"949 -329 OFFCURVE",
"949 16 CURVE SMOOTH",
"949 1091 LINE",
"831 1091 LINE",
"830 968 LINE",
"788 1036 OFFCURVE",
"694 1112 OFFCURVE",
"534 1112 CURVE SMOOTH",
"291 1112 OFFCURVE",
"98 923 OFFCURVE",
"98 582 CURVE SMOOTH",
"98 250 OFFCURVE",
"289 56 OFFCURVE",
"535 56 CURVE SMOOTH",
"717 56 OFFCURVE",
"810 184 OFFCURVE",
"829 288 CURVE",
"829 -3 LINE SMOOTH",
"829 -200 OFFCURVE",
"768 -332 OFFCURVE",
"554 -332 CURVE SMOOTH",
"367 -332 OFFCURVE",
"250 -250 OFFCURVE",
"264 -47 CURVE",
"145 -47 LINE",
"126 -316 OFFCURVE",
"315 -446 OFFCURVE",
"547 -445 CURVE SMOOTH"
);
},
{
closed = 1;
nodes = (
"354 170 OFFCURVE",
"224 298 OFFCURVE",
"224 582 CURVE SMOOTH",
"224 853 OFFCURVE",
"351 997 OFFCURVE",
"557 997 CURVE SMOOTH",
"720 997 OFFCURVE",
"818 878 OFFCURVE",
"829 828 CURVE",
"829 373 LINE",
"793 267 OFFCURVE",
"699 170 OFFCURVE",
"557 170 CURVE SMOOTH"
);
}
);
width = 1115;
},
{
anchors = (
{
name = bottom;
position = "{597, -445}";
},
{
name = top;
position = "{533, 1091}";
}
);
layerId = "09AB1441-CF14-483D-884E-606841830E4D";
paths = (
{
closed = 1;
nodes = (
"834 -444 OFFCURVE",
"1022 -325 OFFCURVE",
"1022 -27 CURVE SMOOTH",
"1022 1091 LINE",
"801 1091 LINE",
"801 951 LINE",
"771 1018 OFFCURVE",
"700 1112 OFFCURVE",
"507 1112 CURVE SMOOTH",
"297 1112 OFFCURVE",
"88 927 OFFCURVE",
"88 562 CURVE SMOOTH",
"88 307 OFFCURVE",
"239 51 OFFCURVE",
"497 51 CURVE SMOOTH",
"718 51 OFFCURVE",
"783 186 OFFCURVE",
"801 269 CURVE",
"801 -26 LINE SMOOTH",
"801 -166 OFFCURVE",
"764 -255 OFFCURVE",
"588 -255 CURVE SMOOTH",
"386 -255 OFFCURVE",
"359 -165 OFFCURVE",
"360 -47 CURVE",
"143 -47 LINE",
"119 -319 OFFCURVE",
"331 -446 OFFCURVE",
"589 -445 CURVE SMOOTH"
);
},
{
closed = 1;
nodes = (
"431 231 OFFCURVE",
"321 359 OFFCURVE",
"321 577 CURVE SMOOTH",
"321 816 OFFCURVE",
"429 922 OFFCURVE",
"580 922 CURVE SMOOTH",
"711 922 OFFCURVE",
"778 870 OFFCURVE",
"801 824 CURVE",
"801 355 LINE",
"788 312 OFFCURVE",
"730 231 OFFCURVE",
"575 231 CURVE SMOOTH"
);
}
);
width = 1166;
},
{
anchors = (
{
name = bottom;
position = "{616, -445}";
},
{
name = top;
position = "{579, 1091}";
}
);
layerId = "BF6BC6F6-4B2A-4E9B-9E28-8B62B2F12FD9";
paths = (
{
closed = 1;
nodes = (
"929 -444 OFFCURVE",
"1090 -285 OFFCURVE",
"1090 8 CURVE SMOOTH",
"1090 1091 LINE",
"796 1091 LINE",
"785 942 LINE",
"750 1036 OFFCURVE",
"655 1112 OFFCURVE",
"498 1112 CURVE SMOOTH",
"252 1112 OFFCURVE",
"75 912 OFFCURVE",
"75 559 CURVE SMOOTH",
"75 269 OFFCURVE",
"226 32 OFFCURVE",
"489 32 CURVE SMOOTH",
"654 32 OFFCURVE",
"753 112 OFFCURVE",
"781 286 CURVE",
"781 -21 LINE SMOOTH",
"781 -144 OFFCURVE",
"741 -205 OFFCURVE",
"602 -205 CURVE SMOOTH",
"449 -205 OFFCURVE",
"408 -137 OFFCURVE",
"411 -47 CURVE",
"109 -47 LINE",
"81 -286 OFFCURVE",
"280 -454 OFFCURVE",
"604 -449 CURVE SMOOTH"
);
},
{
closed = 1;
nodes = (
"455 286 OFFCURVE",
"387 387 OFFCURVE",
"387 560 CURVE SMOOTH",
"387 760 OFFCURVE",
"465 856 OFFCURVE",
"599 856 CURVE SMOOTH",
"697 856 OFFCURVE",
"761 809 OFFCURVE",
"781 748 CURVE",
"781 370 LINE",
"759 325 OFFCURVE",
"694 286 OFFCURVE",
"592 286 CURVE SMOOTH"
);
}
);
width = 1200;
}
);
leftMetricsKey = d;
unicode = 0067;
},
{
glyphname = h;
lastChange = "2021-11-17 04:04:56 +0000";
layers = (
{
anchors = (
{
name = bottom;
position = "{566, 0}";
},
{
name = center;
position = "{566, 793}";
},
{
name = top;
position = "{566, 1586}";
}
);
layerId = "0D9D1AFE-BAFC-449A-A530-9FCA9CDF2E2E";
paths = (
{
closed = 1;
nodes = (
"301 0 LINE",
"301 745 LINE",
"398 929 OFFCURVE",
"490 996 OFFCURVE",
"638 996 CURVE SMOOTH",
"810 996 OFFCURVE",
"858 902 OFFCURVE",
"858 739 CURVE SMOOTH",
"858 0 LINE",
"978 0 LINE",
"978 773 LINE SMOOTH",
"978 1000 OFFCURVE",
"859 1114 OFFCURVE",
"654 1114 CURVE SMOOTH",
"419 1114 OFFCURVE",
"297 948 OFFCURVE",
"274 763 CURVE",
"294 693 LINE",
"285 780 LINE",
"301 1091 LINE",
"301 1555 LINE",
"181 1555 LINE",
"181 0 LINE"
);
}
);
width = 1148;
},
{
anchors = (
{
name = bottom;
position = "{582, 0}";
},
{
name = center;
position = "{582, 793}";
},
{
name = top;
position = "{582, 1586}";
}
);
layerId = "09AB1441-CF14-483D-884E-606841830E4D";
paths = (
{
closed = 1;
nodes = (
"379 0 LINE",
"379 747 LINE",
"418 826 OFFCURVE",
"503 906 OFFCURVE",
"604 906 CURVE SMOOTH",
"749 906 OFFCURVE",
"797 831 OFFCURVE",
"797 646 CURVE SMOOTH",
"797 0 LINE",
"1023 0 LINE",
"1023 723 LINE SMOOTH",
"1023 987 OFFCURVE",
"908 1114 OFFCURVE",
"700 1114 CURVE SMOOTH",
"462 1114 OFFCURVE",
"383 943 OFFCURVE",
"359 763 CURVE",
"372 692 LINE",
"363 780 LINE",
"379 1091 LINE",
"379 1555 LINE",
"155 1555 LINE",
"155 0 LINE"
);
}
);
width = 1168;
},
{
anchors = (
{
name = bottom;
position = "{597, 0}";
},
{
name = center;
position = "{597, 793}";
},
{
name = top;
position = "{597, 1586}";
}
);
layerId = "BF6BC6F6-4B2A-4E9B-9E28-8B62B2F12FD9";
paths = (
{
closed = 1;
nodes = (
"445 0 LINE",
"445 721 LINE",
"485 804 OFFCURVE",
"554 860 OFFCURVE",
"631 860 CURVE SMOOTH",
"739 860 OFFCURVE",
"780 790 OFFCURVE",
"780 607 CURVE SMOOTH",
"780 0 LINE",
"1092 0 LINE",
"1092 723 LINE SMOOTH",
"1092 987 OFFCURVE",
"960 1114 OFFCURVE",
"763 1114 CURVE SMOOTH",
"531 1114 OFFCURVE",
"442 943 OFFCURVE",
"418 763 CURVE",
"429 692 LINE",
"419 780 LINE",
"436 1091 LINE",
"436 1561 LINE",
"133 1561 LINE",
"133 0 LINE"
);
}
);
width = 1214;
}
);
rightMetricsKey = "=n";
unicode = 0068;
},
{
glyphname = hbar;
lastChange = "2021-11-17 04:04:56 +0000";
layers = (
{
layerId = "0D9D1AFE-BAFC-449A-A530-9FCA9CDF2E2E";
paths = (
{
closed = 1;
nodes = (
"311 0 LINE",
"311 745 LINE",
"408 929 OFFCURVE",
"500 996 OFFCURVE",
"648 996 CURVE SMOOTH",
"824 996 OFFCURVE",
"868 902 OFFCURVE",
"868 739 CURVE SMOOTH",
"868 0 LINE",
"988 0 LINE",
"988 773 LINE SMOOTH",
"988 992 OFFCURVE",
"869 1114 OFFCURVE",
"664 1114 CURVE SMOOTH",
"429 1114 OFFCURVE",
"307 948 OFFCURVE",
"284 763 CURVE",
"304 693 LINE",
"295 780 LINE",
"311 1091 LINE",
"311 1555 LINE",
"191 1555 LINE",
"191 0 LINE"
);
},
{
closed = 1;
nodes = (
"646 1277 LINE",
"646 1389 LINE",
"61 1389 LINE",
"61 1277 LINE"
);
}
);
width = 1152;
},
{
layerId = "09AB1441-CF14-483D-884E-606841830E4D";
paths = (
{
closed = 1;
nodes = (
"379 0 LINE",
"379 747 LINE",
"418 826 OFFCURVE",
"503 906 OFFCURVE",
"604 906 CURVE SMOOTH",
"749 906 OFFCURVE",
"797 831 OFFCURVE",
"797 646 CURVE SMOOTH",
"797 0 LINE",
"1023 0 LINE",
"1023 723 LINE SMOOTH",
"1023 987 OFFCURVE",
"908 1114 OFFCURVE",
"700 1114 CURVE SMOOTH",
"462 1114 OFFCURVE",
"383 943 OFFCURVE",
"359 763 CURVE",
"372 692 LINE",
"363 780 LINE",
"379 1091 LINE",
"379 1555 LINE",
"155 1555 LINE",
"155 0 LINE"
);
},
{
closed = 1;
nodes = (
"659 1224 LINE",
"659 1406 LINE",
"58 1406 LINE",
"58 1224 LINE"
);
}
);
width = 1163;
},
{
layerId = "BF6BC6F6-4B2A-4E9B-9E28-8B62B2F12FD9";
paths = (
{
closed = 1;
nodes = (
"430 0 LINE",
"430 721 LINE",
"471 804 OFFCURVE",
"533 860 OFFCURVE",
"610 860 CURVE SMOOTH",
"708 860 OFFCURVE",
"749 790 OFFCURVE",
"749 607 CURVE SMOOTH",
"749 0 LINE",
"1059 0 LINE",
"1059 723 LINE SMOOTH",
"1059 987 OFFCURVE",
"927 1114 OFFCURVE",
"730 1114 CURVE SMOOTH",
"502 1114 OFFCURVE",
"429 943 OFFCURVE",
"405 763 CURVE",
"415 692 LINE",
"406 780 LINE",
"422 1091 LINE",
"422 1561 LINE",
"120 1561 LINE",
"120 0 LINE"
);
},
{
closed = 1;
nodes = (
"692 1217 LINE",
"692 1443 LINE",
"21 1443 LINE",
"21 1217 LINE"
);
}
);
width = 1168;
}
);
unicode = 0127;
},
{
glyphname = i;
lastChange = "2021-11-17 04:04:56 +0000";
layers = (
{
anchors = (
{
name = bottom;
position = "{280, 0}";
}
);
layerId = "0D9D1AFE-BAFC-449A-A530-9FCA9CDF2E2E";
paths = (
{
closed = 1;
nodes = (
"340 0 LINE",
"340 1074 LINE",
"219 1074 LINE",
"219 0 LINE"
);
},
{
closed = 1;
nodes = (
"334 1261 OFFCURVE",
"379 1304 OFFCURVE",
"379 1365 CURVE SMOOTH",
"379 1425 OFFCURVE",
"334 1468 OFFCURVE",
"280 1468 CURVE SMOOTH",
"225 1468 OFFCURVE",
"180 1425 OFFCURVE",
"180 1365 CURVE SMOOTH",
"180 1304 OFFCURVE",
"225 1261 OFFCURVE",
"280 1261 CURVE SMOOTH"
);
}
);
width = 559;
},
{
anchors = (
{
name = bottom;
position = "{273, 0}";
}
);
layerId = "09AB1441-CF14-483D-884E-606841830E4D";
paths = (
{
closed = 1;
nodes = (
"382 0 LINE",
"386 1092 LINE",
"158 1092 LINE",
"158 0 LINE"
);
},
{
closed = 1;
nodes = (
"355 1259 OFFCURVE",
"423 1323 OFFCURVE",
"423 1415 CURVE SMOOTH",
"423 1505 OFFCURVE",
"356 1569 OFFCURVE",
"273 1569 CURVE SMOOTH",
"190 1569 OFFCURVE",
"123 1505 OFFCURVE",
"123 1415 CURVE SMOOTH",
"123 1323 OFFCURVE",
"190 1259 OFFCURVE",
"273 1259 CURVE SMOOTH"
);
}
);
width = 546;
},
{
anchors = (
{
name = bottom;
position = "{285, 0}";
}
);
layerId = "BF6BC6F6-4B2A-4E9B-9E28-8B62B2F12FD9";
paths = (
{
closed = 1;
nodes = (
"439 0 LINE",
"439 1092 LINE",
"129 1092 LINE",
"129 0 LINE"
);
},
{
closed = 1;
nodes = (
"387 1216 OFFCURVE",
"472 1296 OFFCURVE",
"472 1410 CURVE SMOOTH",
"472 1523 OFFCURVE",
"388 1602 OFFCURVE",
"285 1602 CURVE SMOOTH",
"181 1602 OFFCURVE",
"97 1523 OFFCURVE",
"97 1410 CURVE SMOOTH",
"97 1296 OFFCURVE",
"181 1216 OFFCURVE",
"285 1216 CURVE SMOOTH"
);
}
);
width = 569;
}
);
rightMetricsKey = "=|";
unicode = 0069;
},
{
glyphname = idotless;
lastChange = "2021-11-16 19:31:17 +0000";
layers = (
{
anchors = (
{
name = bottom;
position = "{262, 0}";
},
{
name = ogonek;
position = "{322, 0}";
},
{
name = top;
position = "{262, 1091}";
}
);
layerId = "0D9D1AFE-BAFC-449A-A530-9FCA9CDF2E2E";
paths = (
{
closed = 1;
nodes = (
"322 0 LINE",
"322 1092 LINE",
"200 1092 LINE",
"200 0 LINE"
);
}
);
width = 522;
},
{
anchors = (
{
name = bottom;
position = "{274, 0}";
},
{
name = ogonek;
position = "{383, 0}";
},
{
name = top;
position = "{274, 1091}";
}
);
layerId = "09AB1441-CF14-483D-884E-606841830E4D";
paths = (
{
closed = 1;
nodes = (
"383 0 LINE",
"387 1092 LINE",
"159 1092 LINE",
"159 0 LINE"
);
}
);
width = 546;
},
{
anchors = (
{
name = bottom;
position = "{273, 0}";
},
{
name = ogonek;
position = "{424, 0}";
},
{
name = top;
position = "{273, 1091}";
}
);
layerId = "BF6BC6F6-4B2A-4E9B-9E28-8B62B2F12FD9";
paths = (
{
closed = 1;
nodes = (
"424 0 LINE",
"428 1091 LINE",
"118 1091 LINE",
"118 0 LINE"
);
}
);
width = 546;
}
);
unicode = 0131;
},
{
glyphname = ij_acutecomb;
lastChange = "2021-11-16 19:31:17 +0000";
layers = (
{
layerId = "0D9D1AFE-BAFC-449A-A530-9FCA9CDF2E2E";
paths = (
{
closed = 1;
nodes = (
"322 0 LINE",
"322 1092 LINE",
"200 1092 LINE",
"200 0 LINE"
);
},
{
closed = 1;
nodes = (
"818 -462 OFFCURVE",
"854 -349 OFFCURVE",
"854 -172 CURVE SMOOTH",
"854 -119 OFFCURVE",
"852 -87 OFFCURVE",
"852 -54 CURVE SMOOTH",
"852 1092 LINE",
"732 1092 LINE",
"732 -219 LINE SMOOTH",
"732 -312 OFFCURVE",
"705 -335 OFFCURVE",
"658 -335 CURVE SMOOTH",
"606 -335 OFFCURVE",
"561 -314 OFFCURVE",
"542 -305 CURVE",
"542 -433 LINE",
"583 -448 OFFCURVE",
"627 -462 OFFCURVE",
"677 -462 CURVE SMOOTH"
);
},
{
closed = 1;
nodes = (
"343 1256 LINE",
"547 1533 LINE",
"393 1533 LINE",
"213 1256 LINE"
);
},
{
closed = 1;
nodes = (
"870 1256 LINE",
"1074 1533 LINE",
"920 1533 LINE",
"740 1256 LINE"
);
}
);
width = 1075;
},
{
layerId = "09AB1441-CF14-483D-884E-606841830E4D";
paths = (
{
closed = 1;
nodes = (
"383 0 LINE",
"387 1092 LINE",
"159 1092 LINE",
"159 0 LINE"
);
},
{
closed = 1;
nodes = (
"930 -462 OFFCURVE",
"975 -302 OFFCURVE",
"975 -152 CURVE SMOOTH",
"975 -119 OFFCURVE",
"974 -86 OFFCURVE",
"974 -54 CURVE SMOOTH",
"979 1092 LINE",
"750 1092 LINE",
"750 -139 LINE SMOOTH",
"750 -216 OFFCURVE",
"707 -243 OFFCURVE",
"658 -243 CURVE SMOOTH",
"621 -243 OFFCURVE",
"583 -230 OFFCURVE",
"566 -224 CURVE",
"566 -432 LINE",
"607 -448 OFFCURVE",
"650 -462 OFFCURVE",
"725 -462 CURVE SMOOTH"
);
},
{
closed = 1;
nodes = (
"369 1244 LINE",
"602 1556 LINE",
"360 1556 LINE",
"161 1244 LINE"
);
},
{
closed = 1;
nodes = (
"965 1244 LINE",
"1198 1556 LINE",
"956 1556 LINE",
"757 1244 LINE"
);
}
);
width = 1136;
},
{
layerId = "BF6BC6F6-4B2A-4E9B-9E28-8B62B2F12FD9";
paths = (
{
closed = 1;
nodes = (
"424 0 LINE",
"428 1091 LINE",
"118 1091 LINE",
"118 0 LINE"
);
},
{
closed = 1;
nodes = (
"908 -446 OFFCURVE",
"990 -333 OFFCURVE",
"990 -131 CURVE SMOOTH",
"990 -106 OFFCURVE",
"989 -70 OFFCURVE",
"989 -39 CURVE SMOOTH",
"994 1092 LINE",
"683 1092 LINE",
"683 -69 LINE SMOOTH",
"683 -149 OFFCURVE",
"654 -173 OFFCURVE",
"623 -173 CURVE SMOOTH",
"591 -173 OFFCURVE",
"555 -164 OFFCURVE",
"532 -155 CURVE",
"532 -421 LINE",
"590 -436 OFFCURVE",
"644 -446 OFFCURVE",
"734 -446 CURVE SMOOTH"
);
},
{
closed = 1;
nodes = (
"402 1244 LINE",
"643 1556 LINE",
"316 1556 LINE",
"132 1244 LINE"
);
},
{
closed = 1;
nodes = (
"963 1244 LINE",
"1205 1556 LINE",
"878 1556 LINE",
"693 1244 LINE"
);
}
);
width = 1118;
}
);
},
{
glyphname = j;
lastChange = "2021-11-17 04:04:56 +0000";
layers = (
{
layerId = "0D9D1AFE-BAFC-449A-A530-9FCA9CDF2E2E";
paths = (
{
closed = 1;
nodes = (
"296 -462 OFFCURVE",
"332 -349 OFFCURVE",
"332 -172 CURVE SMOOTH",
"332 -119 OFFCURVE",
"330 -87 OFFCURVE",
"330 -54 CURVE SMOOTH",
"330 1092 LINE",
"210 1092 LINE",
"210 -219 LINE SMOOTH",
"210 -312 OFFCURVE",
"183 -335 OFFCURVE",
"136 -335 CURVE SMOOTH",
"84 -335 OFFCURVE",
"39 -314 OFFCURVE",
"20 -305 CURVE",
"20 -433 LINE",
"61 -448 OFFCURVE",
"105 -462 OFFCURVE",
"155 -462 CURVE SMOOTH"
);
},
{
closed = 1;
nodes = (
"328 1279 OFFCURVE",
"373 1322 OFFCURVE",
"373 1383 CURVE SMOOTH",
"373 1443 OFFCURVE",
"328 1486 OFFCURVE",
"273 1486 CURVE SMOOTH",
"218 1486 OFFCURVE",
"173 1443 OFFCURVE",
"173 1383 CURVE SMOOTH",
"173 1322 OFFCURVE",
"218 1279 OFFCURVE",
"273 1279 CURVE SMOOTH"
);
}
);
width = 553;
},
{
layerId = "09AB1441-CF14-483D-884E-606841830E4D";
paths = (
{
closed = 1;
nodes = (
"384 -462 OFFCURVE",
"429 -302 OFFCURVE",
"429 -152 CURVE SMOOTH",
"429 -119 OFFCURVE",
"428 -86 OFFCURVE",
"428 -54 CURVE SMOOTH",
"433 1092 LINE",
"204 1092 LINE",
"204 -139 LINE SMOOTH",
"204 -216 OFFCURVE",
"161 -243 OFFCURVE",
"112 -243 CURVE SMOOTH",
"75 -243 OFFCURVE",
"37 -230 OFFCURVE",
"20 -224 CURVE",
"20 -432 LINE",
"61 -448 OFFCURVE",
"104 -462 OFFCURVE",
"179 -462 CURVE SMOOTH"
);
},
{
closed = 1;
nodes = (
"399 1259 OFFCURVE",
"467 1323 OFFCURVE",
"467 1415 CURVE SMOOTH",
"467 1505 OFFCURVE",
"400 1569 OFFCURVE",
"317 1569 CURVE SMOOTH",
"234 1569 OFFCURVE",
"167 1505 OFFCURVE",
"167 1415 CURVE SMOOTH",
"167 1323 OFFCURVE",
"234 1259 OFFCURVE",
"317 1259 CURVE SMOOTH"
);
}
);
width = 590;
},
{
layerId = "BF6BC6F6-4B2A-4E9B-9E28-8B62B2F12FD9";
paths = (
{
closed = 1;
nodes = (
"362 -446 OFFCURVE",
"441 -333 OFFCURVE",
"441 -131 CURVE SMOOTH",
"441 -106 OFFCURVE",
"440 -70 OFFCURVE",
"440 -39 CURVE SMOOTH",
"442 1092 LINE",
"137 1092 LINE",
"137 -69 LINE SMOOTH",
"137 -149 OFFCURVE",
"108 -173 OFFCURVE",
"77 -173 CURVE SMOOTH",
"45 -173 OFFCURVE",
"9 -164 OFFCURVE",
"-14 -155 CURVE",
"-14 -421 LINE",
"44 -436 OFFCURVE",
"98 -446 OFFCURVE",
"188 -446 CURVE SMOOTH"
);
},
{
closed = 1;
nodes = (
"390 1216 OFFCURVE",
"475 1296 OFFCURVE",
"475 1410 CURVE SMOOTH",
"475 1523 OFFCURVE",
"391 1602 OFFCURVE",
"288 1602 CURVE SMOOTH",
"184 1602 OFFCURVE",
"100 1523 OFFCURVE",
"100 1410 CURVE SMOOTH",
"100 1296 OFFCURVE",
"184 1216 OFFCURVE",
"288 1216 CURVE SMOOTH"
);
}
);
width = 572;
}
);
rightMetricsKey = i;
unicode = 006A;
},
{
glyphname = jdotless;
lastChange = "2021-11-16 19:31:17 +0000";
layers = (
{
anchors = (
{
name = bottom;
position = "{267, -462}";
},
{
name = top;
position = "{267, 1091}";
}
);
layerId = "0D9D1AFE-BAFC-449A-A530-9FCA9CDF2E2E";
paths = (
{
closed = 1;
nodes = (
"296 -462 OFFCURVE",
"332 -349 OFFCURVE",
"332 -172 CURVE SMOOTH",
"332 -119 OFFCURVE",
"330 -87 OFFCURVE",
"330 -54 CURVE SMOOTH",
"330 1092 LINE",
"210 1092 LINE",
"210 -219 LINE SMOOTH",
"210 -312 OFFCURVE",
"183 -335 OFFCURVE",
"136 -335 CURVE SMOOTH",
"84 -335 OFFCURVE",
"39 -314 OFFCURVE",
"20 -305 CURVE",
"20 -433 LINE",
"61 -448 OFFCURVE",
"105 -462 OFFCURVE",
"155 -462 CURVE SMOOTH"
);
}
);
width = 553;
},
{
anchors = (
{
name = bottom;
position = "{295, -462}";
},
{
name = top;
position = "{324, 1091}";
}
);
layerId = "09AB1441-CF14-483D-884E-606841830E4D";
paths = (
{
closed = 1;
nodes = (
"384 -462 OFFCURVE",
"429 -302 OFFCURVE",
"429 -152 CURVE SMOOTH",
"429 -119 OFFCURVE",
"428 -86 OFFCURVE",
"428 -54 CURVE SMOOTH",
"433 1092 LINE",
"204 1092 LINE",
"204 -139 LINE SMOOTH",
"204 -216 OFFCURVE",
"161 -243 OFFCURVE",
"112 -243 CURVE SMOOTH",
"75 -243 OFFCURVE",
"37 -230 OFFCURVE",
"20 -224 CURVE",
"20 -432 LINE",
"61 -448 OFFCURVE",
"104 -462 OFFCURVE",
"179 -462 CURVE SMOOTH"
);
}
);
width = 590;
},
{
anchors = (
{
name = bottom;
position = "{283, -462}";
},
{
name = top;
position = "{289, 1091}";
}
);
layerId = "BF6BC6F6-4B2A-4E9B-9E28-8B62B2F12FD9";
paths = (
{
closed = 1;
nodes = (
"362 -446 OFFCURVE",
"444 -333 OFFCURVE",
"444 -131 CURVE SMOOTH",
"444 -106 OFFCURVE",
"443 -70 OFFCURVE",
"443 -39 CURVE SMOOTH",
"448 1092 LINE",
"137 1092 LINE",
"137 -69 LINE SMOOTH",
"137 -149 OFFCURVE",
"108 -173 OFFCURVE",
"77 -173 CURVE SMOOTH",
"45 -173 OFFCURVE",
"9 -164 OFFCURVE",
"-14 -155 CURVE",
"-14 -421 LINE",
"44 -436 OFFCURVE",
"98 -446 OFFCURVE",
"188 -446 CURVE SMOOTH"
);
}
);
width = 572;
}
);
widthMetricsKey = j;
unicode = 0237;
},
{
glyphname = k;
lastChange = "2021-11-17 04:04:56 +0000";
layers = (
{
anchors = (
{
name = bottom;
position = "{470, 0}";
},
{
name = top;
position = "{470, 1586}";
}
);
layerId = "0D9D1AFE-BAFC-449A-A530-9FCA9CDF2E2E";
paths = (
{
closed = 1;
nodes = (
"970 0 LINE",
"534 508 LINE",
"399 625 LINE",
"283 595 LINE",
"803 0 LINE"
);
},
{
closed = 1;
nodes = (
"301 0 LINE",
"301 438 LINE",
"287 590 LINE",
"287 598 LINE",
"301 744 LINE",
"301 1555 LINE",
"181 1555 LINE",
"181 0 LINE"
);
},
{
closed = 1;
nodes = (
"534 684 LINE",
"938 1091 LINE",
"768 1091 LINE",
"539 852 LINE",
"283 595 LINE",
"400 562 LINE"
);
}
);
width = 950;
},
{
anchors = (
{
name = bottom;
position = "{534, 0}";
},
{
name = top;
position = "{534, 1586}";
}
);
layerId = "09AB1441-CF14-483D-884E-606841830E4D";
paths = (
{
closed = 1;
nodes = (
"1072 0 LINE",
"672 508 LINE",
"567 625 LINE",
"361 595 LINE",
"779 0 LINE"
);
},
{
closed = 1;
nodes = (
"379 0 LINE",
"379 438 LINE",
"365 590 LINE",
"365 598 LINE",
"379 744 LINE",
"379 1555 LINE",
"155 1555 LINE",
"155 0 LINE"
);
},
{
closed = 1;
nodes = (
"672 684 LINE",
"1036 1091 LINE",
"734 1091 LINE",
"545 852 LINE",
"361 595 LINE",
"568 562 LINE"
);
}
);
width = 1067;
},
{
anchors = (
{
name = bottom;
position = "{583, 0}";
},
{
name = top;
position = "{583, 1586}";
}
);
layerId = "BF6BC6F6-4B2A-4E9B-9E28-8B62B2F12FD9";
paths = (
{
closed = 1;
nodes = (
"1168 0 LINE",
"798 508 LINE",
"690 633 LINE",
"414 595 LINE",
"788 0 LINE"
);
},
{
closed = 1;
nodes = (
"436 0 LINE",
"436 415 LINE",
"418 590 LINE",
"418 598 LINE",
"436 767 LINE",
"436 1561 LINE",
"133 1561 LINE",
"133 0 LINE"
);
},
{
closed = 1;
nodes = (
"793 682 LINE",
"1132 1091 LINE",
"747 1091 LINE",
"574 829 LINE",
"414 595 LINE",
"690 562 LINE"
);
}
);
width = 1151;
}
);
leftMetricsKey = h;
unicode = 006B;
},
{
glyphname = l;
lastChange = "2021-11-17 04:04:56 +0000";
layers = (
{
anchors = (
{
name = bottom;
position = "{241, 0}";
},
{
name = center;
position = "{241, 793}";
},
{
name = top;
position = "{241, 1536}";
},
{
name = topright;
position = "{347, 1091}";
}
);
layerId = "0D9D1AFE-BAFC-449A-A530-9FCA9CDF2E2E";
paths = (
{
closed = 1;
nodes = (
"301 0 LINE",
"301 1555 LINE",
"180 1555 LINE",
"180 0 LINE"
);
}
);
width = 481;
},
{
anchors = (
{
name = bottom;
position = "{270, 0}";
},
{
name = center;
position = "{270, 793}";
},
{
name = top;
position = "{270, 1536}";
},
{
name = topright;
position = "{409, 1091}";
}
);
layerId = "09AB1441-CF14-483D-884E-606841830E4D";
paths = (
{
closed = 1;
nodes = (
"382 0 LINE",
"382 1555 LINE",
"157 1555 LINE",
"157 0 LINE"
);
}
);
width = 539;
},
{
anchors = (
{
name = bottom;
position = "{291, 0}";
},
{
name = center;
position = "{291, 793}";
},
{
name = top;
position = "{291, 1536}";
},
{
name = topright;
position = "{464.009, 1091}";
}
);
layerId = "BF6BC6F6-4B2A-4E9B-9E28-8B62B2F12FD9";
paths = (
{
closed = 1;
nodes = (
"447 0 LINE",
"447 1562 LINE",
"135 1562 LINE",
"135 0 LINE"
);
}
);
width = 582;
}
);
rightMetricsKey = "=|";
unicode = 006C;
},
{
glyphname = m;
lastChange = "2021-11-17 04:04:56 +0000";
layers = (
{
anchors = (
{
name = bottom;
position = "{902, 0}";
},
{
name = top;
position = "{902, 1091}";
}
);
layerId = "0D9D1AFE-BAFC-449A-A530-9FCA9CDF2E2E";
paths = (
{
closed = 1;
nodes = (
"300 0 LINE",
"300 743 LINE",
"397 928 OFFCURVE",
"486 996 OFFCURVE",
"632 996 CURVE SMOOTH",
"786 996 OFFCURVE",
"847 921 OFFCURVE",
"847 737 CURVE SMOOTH",
"847 0 LINE",
"967 0 LINE",
"967 783 LINE",
"963 806 LINE",
"940 1016 OFFCURVE",
"840 1114 OFFCURVE",
"657 1114 CURVE SMOOTH",
"443 1114 OFFCURVE",
"301 981 OFFCURVE",
"275 763 CURVE",
"293 680 LINE",
"280 1092 LINE",
"180 1092 LINE",
"180 0 LINE"
);
},
{
closed = 1;
nodes = (
"1636 0 LINE",
"1636 773 LINE SMOOTH",
"1636 987 OFFCURVE",
"1518 1114 OFFCURVE",
"1319 1114 CURVE SMOOTH",
"1112 1114 OFFCURVE",
"966 973 OFFCURVE",
"941 763 CURVE",
"959 680 LINE",
"967 743 LINE",
"1066 929 OFFCURVE",
"1156 996 OFFCURVE",
"1300 996 CURVE SMOOTH",
"1453 996 OFFCURVE",
"1516 920 OFFCURVE",
"1516 738 CURVE SMOOTH",
"1516 0 LINE"
);
}
);
width = 1806;
},
{
anchors = (
{
name = bottom;
position = "{897, 0}";
},
{
name = top;
position = "{897, 1091}";
}
);
guideLines = (
{
position = "{395, 819}";
}
);
layerId = "09AB1441-CF14-483D-884E-606841830E4D";
paths = (
{
closed = 1;
nodes = (
"381 0 LINE",
"381 763 LINE",
"415 836 OFFCURVE",
"505 906 OFFCURVE",
"607 906 CURVE SMOOTH",
"738 906 OFFCURVE",
"789 831 OFFCURVE",
"789 646 CURVE SMOOTH",
"789 0 LINE",
"1015 0 LINE",
"1015 803 LINE",
"1010 814 LINE",
"985 1016 OFFCURVE",
"874 1114 OFFCURVE",
"700 1114 CURVE SMOOTH",
"462 1114 OFFCURVE",
"379 943 OFFCURVE",
"355 763 CURVE",
"373 680 LINE",
"347 1092 LINE",
"155 1092 LINE",
"155 0 LINE"
);
},
{
closed = 1;
nodes = (
"1649 0 LINE",
"1649 723 LINE SMOOTH",
"1649 987 OFFCURVE",
"1532 1114 OFFCURVE",
"1334 1114 CURVE SMOOTH",
"1096 1114 OFFCURVE",
"1016 922 OFFCURVE",
"996 743 CURVE",
"1014 680 LINE",
"1015 763 LINE",
"1049 836 OFFCURVE",
"1139 906 OFFCURVE",
"1241 906 CURVE SMOOTH",
"1372 906 OFFCURVE",
"1423 831 OFFCURVE",
"1423 646 CURVE SMOOTH",
"1423 0 LINE"
);
}
);
width = 1794;
},
{
anchors = (
{
name = bottom;
position = "{903, 0}";
},
{
name = top;
position = "{903, 1091}";
}
);
layerId = "BF6BC6F6-4B2A-4E9B-9E28-8B62B2F12FD9";
paths = (
{
closed = 1;
nodes = (
"444 0 LINE",
"444 724 LINE",
"477 797 OFFCURVE",
"539 860 OFFCURVE",
"624 860 CURVE SMOOTH",
"703 860 OFFCURVE",
"759 815 OFFCURVE",
"759 607 CURVE SMOOTH",
"759 0 LINE",
"1071 0 LINE",
"1071 741 LINE",
"1067 794 LINE",
"1042 1013 OFFCURVE",
"920 1114 OFFCURVE",
"748 1114 CURVE SMOOTH",
"519 1114 OFFCURVE",
"448 943 OFFCURVE",
"424 763 CURVE",
"436 680 LINE",
"410 1092 LINE",
"132 1092 LINE",
"132 0 LINE"
);
},
{
closed = 1;
nodes = (
"1697 0 LINE",
"1697 723 LINE SMOOTH",
"1697 987 OFFCURVE",
"1566 1114 OFFCURVE",
"1373 1114 CURVE SMOOTH",
"1146 1114 OFFCURVE",
"1076 927 OFFCURVE",
"1059 757 CURVE",
"1064 680 LINE",
"1071 724 LINE",
"1104 797 OFFCURVE",
"1165 860 OFFCURVE",
"1250 860 CURVE SMOOTH",
"1329 860 OFFCURVE",
"1385 815 OFFCURVE",
"1385 607 CURVE SMOOTH",
"1385 0 LINE"
);
}
);
width = 1819;
}
);
leftMetricsKey = n;
rightMetricsKey = n;
unicode = 006D;
},
{
glyphname = n;
lastChange = "2021-11-17 04:04:56 +0000";
layers = (
{
anchors = (
{
name = bottom;
position = "{574, 0}";
},
{
name = top;
position = "{623, 1091}";
}
);
layerId = "0D9D1AFE-BAFC-449A-A530-9FCA9CDF2E2E";
paths = (
{
closed = 1;
nodes = (
"300 0 LINE",
"300 744 LINE",
"395 926 OFFCURVE",
"489 996 OFFCURVE",
"635 996 CURVE SMOOTH",
"792 996 OFFCURVE",
"859 924 OFFCURVE",
"859 739 CURVE SMOOTH",
"859 0 LINE",
"979 0 LINE",
"979 773 LINE SMOOTH",
"979 991 OFFCURVE",
"858 1114 OFFCURVE",
"663 1114 CURVE SMOOTH",
"449 1114 OFFCURVE",
"302 981 OFFCURVE",
"274 763 CURVE",
"292 681 LINE",
"281 1092 LINE",
"180 1092 LINE",
"180 0 LINE"
);
}
);
width = 1149;
},
{
anchors = (
{
name = bottom;
position = "{587, 0}";
},
{
name = top;
position = "{589, 1091}";
}
);
layerId = "09AB1441-CF14-483D-884E-606841830E4D";
paths = (
{
closed = 1;
nodes = (
"380 0 LINE",
"380 763 LINE",
"414 836 OFFCURVE",
"504 906 OFFCURVE",
"606 906 CURVE SMOOTH",
"747 906 OFFCURVE",
"798 831 OFFCURVE",
"798 646 CURVE SMOOTH",
"798 0 LINE",
"1023 0 LINE",
"1023 723 LINE SMOOTH",
"1023 987 OFFCURVE",
"907 1114 OFFCURVE",
"699 1114 CURVE SMOOTH",
"460 1114 OFFCURVE",
"378 943 OFFCURVE",
"354 763 CURVE",
"372 680 LINE",
"346 1092 LINE",
"155 1092 LINE",
"155 0 LINE"
);
}
);
width = 1168;
},
{
anchors = (
{
name = bottom;
position = "{597, 0}";
},
{
name = top;
position = "{607, 1091}";
}
);
layerId = "BF6BC6F6-4B2A-4E9B-9E28-8B62B2F12FD9";
paths = (
{
closed = 1;
nodes = (
"444 0 LINE",
"444 724 LINE",
"478 797 OFFCURVE",
"547 860 OFFCURVE",
"632 860 CURVE SMOOTH",
"721 860 OFFCURVE",
"779 815 OFFCURVE",
"779 607 CURVE SMOOTH",
"779 0 LINE",
"1090 0 LINE",
"1090 723 LINE SMOOTH",
"1090 987 OFFCURVE",
"958 1114 OFFCURVE",
"760 1114 CURVE SMOOTH",
"530 1114 OFFCURVE",
"448 943 OFFCURVE",
"424 763 CURVE",
"436 680 LINE",
"410 1092 LINE",
"132 1092 LINE",
"132 0 LINE"
);
}
);
width = 1212;
}
);
unicode = 006E;
},
{
glyphname = eng;
lastChange = "2021-11-16 19:31:17 +0000";
layers = (
{
layerId = "0D9D1AFE-BAFC-449A-A530-9FCA9CDF2E2E";
paths = (
{
closed = 1;
nodes = (
"941 -462 OFFCURVE",
"977 -349 OFFCURVE",
"977 -172 CURVE SMOOTH",
"977 -119 OFFCURVE",
"975 -87 OFFCURVE",
"975 -54 CURVE SMOOTH",
"975 773 LINE SMOOTH",
"975 983 OFFCURVE",
"854 1114 OFFCURVE",
"659 1114 CURVE SMOOTH",
"469 1114 OFFCURVE",
"332 1009 OFFCURVE",
"284 833 CURVE",
"277 1092 LINE",
"176 1092 LINE",
"176 0 LINE",
"296 0 LINE",
"296 744 LINE",
"391 926 OFFCURVE",
"485 996 OFFCURVE",
"631 996 CURVE SMOOTH",
"792 996 OFFCURVE",
"855 924 OFFCURVE",
"855 739 CURVE SMOOTH",
"855 -219 LINE SMOOTH",
"855 -312 OFFCURVE",
"828 -335 OFFCURVE",
"781 -335 CURVE SMOOTH",
"729 -335 OFFCURVE",
"684 -314 OFFCURVE",
"665 -305 CURVE",
"665 -433 LINE",
"706 -448 OFFCURVE",
"750 -462 OFFCURVE",
"800 -462 CURVE SMOOTH"
);
}
);
width = 1139;
},
{
layerId = "09AB1441-CF14-483D-884E-606841830E4D";
paths = (
{
closed = 1;
nodes = (
"974 -462 OFFCURVE",
"1019 -302 OFFCURVE",
"1019 -152 CURVE SMOOTH",
"1019 -119 OFFCURVE",
"1018 -86 OFFCURVE",
"1018 -54 CURVE SMOOTH",
"1018 723 LINE SMOOTH",
"1018 987 OFFCURVE",
"902 1114 OFFCURVE",
"694 1114 CURVE SMOOTH",
"479 1114 OFFCURVE",
"391 976 OFFCURVE",
"358 818 CURVE",
"341 1092 LINE",
"150 1092 LINE",
"150 0 LINE",
"375 0 LINE",
"375 763 LINE",
"409 836 OFFCURVE",
"499 906 OFFCURVE",
"601 906 CURVE SMOOTH",
"742 906 OFFCURVE",
"794 831 OFFCURVE",
"794 646 CURVE SMOOTH",
"794 -139 LINE SMOOTH",
"794 -216 OFFCURVE",
"751 -243 OFFCURVE",
"702 -243 CURVE SMOOTH",
"665 -243 OFFCURVE",
"627 -230 OFFCURVE",
"610 -224 CURVE",
"610 -432 LINE",
"651 -448 OFFCURVE",
"694 -462 OFFCURVE",
"769 -462 CURVE SMOOTH"
);
}
);
width = 1158;
},
{
layerId = "BF6BC6F6-4B2A-4E9B-9E28-8B62B2F12FD9";
paths = (
{
closed = 1;
nodes = (
"975 -446 OFFCURVE",
"1057 -333 OFFCURVE",
"1057 -131 CURVE SMOOTH",
"1057 -106 OFFCURVE",
"1056 -70 OFFCURVE",
"1056 -39 CURVE SMOOTH",
"1054 723 LINE SMOOTH",
"1054 987 OFFCURVE",
"926 1114 OFFCURVE",
"728 1114 CURVE SMOOTH",
"515 1114 OFFCURVE",
"442 961 OFFCURVE",
"414 793 CURVE",
"395 1092 LINE",
"119.009 1092 LINE",
"119.009 0 LINE",
"429 0 LINE",
"429 724 LINE",
"463 797 OFFCURVE",
"526 860 OFFCURVE",
"612 860 CURVE SMOOTH",
"690 860 OFFCURVE",
"748 815 OFFCURVE",
"748 607 CURVE SMOOTH",
"750 -69 LINE SMOOTH",
"750 -149 OFFCURVE",
"722 -173 OFFCURVE",
"690 -173 CURVE SMOOTH",
"658 -173 OFFCURVE",
"622 -164 OFFCURVE",
"599 -155 CURVE",
"599 -421 LINE",
"657 -436 OFFCURVE",
"711 -446 OFFCURVE",
"802 -446 CURVE SMOOTH"
);
}
);
width = 1167;
}
);
unicode = 014B;
},
{
glyphname = o;
lastChange = "2021-11-17 04:04:56 +0000";
layers = (
{
anchors = (
{
name = bottom;
position = "{555, 0}";
},
{
name = center;
position = "{555, 546}";
},
{
name = ogonek;
position = "{1001, 10}";
},
{
name = top;
position = "{556, 1091}";
},
{
name = topright;
position = "{1092, 1091}";
}
);
layerId = "0D9D1AFE-BAFC-449A-A530-9FCA9CDF2E2E";
paths = (
{
closed = 1;
nodes = (
"802 -15 OFFCURVE",
"1019 184 OFFCURVE",
"1019 552 CURVE SMOOTH",
"1019 900 OFFCURVE",
"833 1112 OFFCURVE",
"556 1112 CURVE SMOOTH",
"301 1112 OFFCURVE",
"90 900 OFFCURVE",
"90 552 CURVE SMOOTH",
"90 184 OFFCURVE",
"284 -15 OFFCURVE",
"552 -15 CURVE SMOOTH"
);
},
{
closed = 1;
nodes = (
"345 101 OFFCURVE",
"216 269 OFFCURVE",
"216 552 CURVE SMOOTH",
"216 829 OFFCURVE",
"345 996 OFFCURVE",
"552 996 CURVE SMOOTH",
"767 996 OFFCURVE",
"893 835 OFFCURVE",
"893 552 CURVE SMOOTH",
"893 267 OFFCURVE",
"768 101 OFFCURVE",
"556 101 CURVE SMOOTH"
);
}
);
width = 1109;
},
{
anchors = (
{
name = bottom;
position = "{575, 0}";
},
{
name = center;
position = "{575, 546}";
},
{
name = ogonek;
position = "{1031, 10}";
},
{
name = top;
position = "{575, 1091}";
},
{
name = topright;
position = "{1125, 1091}";
}
);
layerId = "09AB1441-CF14-483D-884E-606841830E4D";
paths = (
{
closed = 1;
nodes = (
"854 -15 OFFCURVE",
"1072 184 OFFCURVE",
"1072 552 CURVE SMOOTH",
"1072 900 OFFCURVE",
"885 1113 OFFCURVE",
"576 1113 CURVE SMOOTH",
"289 1113 OFFCURVE",
"77 900 OFFCURVE",
"77 552 CURVE SMOOTH",
"77 184 OFFCURVE",
"272 -15 OFFCURVE",
"572 -15 CURVE SMOOTH"
);
},
{
closed = 1;
nodes = (
"414 178 OFFCURVE",
"305 302 OFFCURVE",
"305 552 CURVE SMOOTH",
"305 799 OFFCURVE",
"413 920 OFFCURVE",
"572 920 CURVE SMOOTH",
"743 920 OFFCURVE",
"844 795 OFFCURVE",
"844 552 CURVE SMOOTH",
"844 289 OFFCURVE",
"734 178 OFFCURVE",
"576 178 CURVE SMOOTH"
);
}
);
width = 1149;
},
{
anchors = (
{
name = bottom;
position = "{593, 0}";
},
{
name = center;
position = "{593, 546}";
},
{
name = ogonek;
position = "{1043, 10}";
},
{
name = top;
position = "{593, 1091}";
},
{
name = topright;
position = "{1136, 1091}";
}
);
layerId = "BF6BC6F6-4B2A-4E9B-9E28-8B62B2F12FD9";
paths = (
{
closed = 1;
nodes = (
"890 -15 OFFCURVE",
"1116 184 OFFCURVE",
"1116 552 CURVE SMOOTH",
"1116 900 OFFCURVE",
"921 1113 OFFCURVE",
"594 1113 CURVE SMOOTH",
"289 1113 OFFCURVE",
"68 900 OFFCURVE",
"68 552 CURVE SMOOTH",
"68 184 OFFCURVE",
"272 -15 OFFCURVE",
"590 -15 CURVE SMOOTH"
);
},
{
closed = 1;
nodes = (
"477 242 OFFCURVE",
"378 328 OFFCURVE",
"378 552 CURVE SMOOTH",
"378 769 OFFCURVE",
"469 856 OFFCURVE",
"591 856 CURVE SMOOTH",
"709 856 OFFCURVE",
"807 769 OFFCURVE",
"807 552 CURVE SMOOTH",
"807 319 OFFCURVE",
"715 242 OFFCURVE",
"594 242 CURVE SMOOTH"
);
}
);
width = 1184;
}
);
rightMetricsKey = "=|";
unicode = 006F;
},
{
glyphname = oe;
lastChange = "2021-11-16 19:31:17 +0000";
layers = (
{
layerId = "0D9D1AFE-BAFC-449A-A530-9FCA9CDF2E2E";
paths = (
{
closed = 1;
nodes = (
"726 -15 OFFCURVE",
"878 89 OFFCURVE",
"948 287 CURVE",
"1013 90 OFFCURVE",
"1160 -15 OFFCURVE",
"1362 -15 CURVE SMOOTH",
"1592 -15 OFFCURVE",
"1764 101 OFFCURVE",
"1773 310 CURVE",
"1651 310 LINE",
"1629 163 OFFCURVE",
"1537 100 OFFCURVE",
"1371 100 CURVE SMOOTH",
"1158 100 OFFCURVE",
"1019 258 OFFCURVE",
"1010 517 CURVE",
"1788 517 LINE",
"1789 533 OFFCURVE",
"1793 567 OFFCURVE",
"1793 606 CURVE SMOOTH",
"1794 901 OFFCURVE",
"1609 1113 OFFCURVE",
"1363 1113 CURVE SMOOTH",
"1173 1113 OFFCURVE",
"1021 1003 OFFCURVE",
"951 812 CURVE",
"888 1003 OFFCURVE",
"748 1112 OFFCURVE",
"551 1112 CURVE SMOOTH",
"299 1112 OFFCURVE",
"90 900 OFFCURVE",
"90 552 CURVE SMOOTH",
"90 184 OFFCURVE",
"282 -15 OFFCURVE",
"547 -15 CURVE SMOOTH"
);
},
{
closed = 1;
nodes = (
"343 101 OFFCURVE",
"216 269 OFFCURVE",
"216 552 CURVE SMOOTH",
"216 829 OFFCURVE",
"343 996 OFFCURVE",
"547 996 CURVE SMOOTH",
"759 996 OFFCURVE",
"883 835 OFFCURVE",
"883 552 CURVE SMOOTH",
"883 267 OFFCURVE",
"760 101 OFFCURVE",
"551 101 CURVE SMOOTH"
);
},
{
closed = 1;
nodes = (
"1017 836 OFFCURVE",
"1148 998 OFFCURVE",
"1356 998 CURVE SMOOTH",
"1533 998 OFFCURVE",
"1670 854 OFFCURVE",
"1670 625 CURVE",
"1099 625 LINE SMOOTH",
"1053 625 OFFCURVE",
"1019 615 OFFCURVE",
"1010 563 CURVE"
);
}
);
width = 1881;
},
{
layerId = "09AB1441-CF14-483D-884E-606841830E4D";
paths = (
{
closed = 1;
nodes = (
"736 -15 OFFCURVE",
"873 56 OFFCURVE",
"957 183 CURVE",
"1037 58 OFFCURVE",
"1172 -15 OFFCURVE",
"1360 -15 CURVE SMOOTH",
"1590 -15 OFFCURVE",
"1763 101 OFFCURVE",
"1782 310 CURVE",
"1564 310 LINE",
"1545 244 OFFCURVE",
"1473 171 OFFCURVE",
"1344 171 CURVE SMOOTH",
"1193 171 OFFCURVE",
"1082 271 OFFCURVE",
"1073 517 CURVE",
"1813 517 LINE",
"1814 533 OFFCURVE",
"1818 565 OFFCURVE",
"1818 611 CURVE SMOOTH",
"1818 935 OFFCURVE",
"1629 1113 OFFCURVE",
"1360 1113 CURVE SMOOTH",
"1183 1113 OFFCURVE",
"1048 1041 OFFCURVE",
"964 914 CURVE",
"887 1038 OFFCURVE",
"756 1113 OFFCURVE",
"568 1113 CURVE SMOOTH",
"285 1113 OFFCURVE",
"77 906 OFFCURVE",
"77 542 CURVE SMOOTH",
"77 188 OFFCURVE",
"273 -15 OFFCURVE",
"552 -15 CURVE SMOOTH"
);
},
{
closed = 1;
nodes = (
"408 178 OFFCURVE",
"305 302 OFFCURVE",
"305 552 CURVE SMOOTH",
"305 799 OFFCURVE",
"406 920 OFFCURVE",
"569 920 CURVE SMOOTH",
"747 920 OFFCURVE",
"844 795 OFFCURVE",
"844 548 CURVE SMOOTH",
"844 289 OFFCURVE",
"737 178 OFFCURVE",
"571 178 CURVE SMOOTH"
);
},
{
closed = 1;
nodes = (
"1089 811 OFFCURVE",
"1183 920 OFFCURVE",
"1354 920 CURVE SMOOTH",
"1511 920 OFFCURVE",
"1590 830 OFFCURVE",
"1592 676 CURVE",
"1179 676 LINE SMOOTH",
"1133 676 OFFCURVE",
"1086 666 OFFCURVE",
"1078 611 CURVE"
);
}
);
width = 1878;
},
{
layerId = "BF6BC6F6-4B2A-4E9B-9E28-8B62B2F12FD9";
paths = (
{
closed = 1;
nodes = (
"744 -15 OFFCURVE",
"864 46 OFFCURVE",
"939 154 CURVE",
"1019 47 OFFCURVE",
"1144 -15 OFFCURVE",
"1321 -15 CURVE SMOOTH",
"1595 -15 OFFCURVE",
"1772 135 OFFCURVE",
"1788 356 CURVE",
"1490 356 LINE",
"1488 278 OFFCURVE",
"1423 225 OFFCURVE",
"1314 225 CURVE SMOOTH",
"1181 225 OFFCURVE",
"1094 307 OFFCURVE",
"1078 486 CURVE",
"1798 486 LINE",
"1801 532 OFFCURVE",
"1803 568 OFFCURVE",
"1803 599 CURVE SMOOTH",
"1803 931 OFFCURVE",
"1630 1113 OFFCURVE",
"1333 1113 CURVE SMOOTH",
"1158 1113 OFFCURVE",
"1029 1051 OFFCURVE",
"946 942 CURVE",
"876 1048 OFFCURVE",
"760 1113 OFFCURVE",
"583 1113 CURVE SMOOTH",
"276 1113 OFFCURVE",
"68 905 OFFCURVE",
"68 543 CURVE SMOOTH",
"68 186 OFFCURVE",
"269 -15 OFFCURVE",
"574 -15 CURVE SMOOTH"
);
},
{
closed = 1;
nodes = (
"465 242 OFFCURVE",
"376 332 OFFCURVE",
"376 549 CURVE SMOOTH",
"376 774 OFFCURVE",
"472 856 OFFCURVE",
"593 856 CURVE SMOOTH",
"722 856 OFFCURVE",
"810 768 OFFCURVE",
"810 550 CURVE SMOOTH",
"810 319 OFFCURVE",
"711 242 OFFCURVE",
"591 242 CURVE SMOOTH"
);
},
{
closed = 1;
nodes = (
"1079 756 OFFCURVE",
"1160 870 OFFCURVE",
"1310 870 CURVE SMOOTH",
"1431 870 OFFCURVE",
"1493 799 OFFCURVE",
"1498 661 CURVE",
"1229 661 LINE SMOOTH",
"1145 661 OFFCURVE",
"1085 633 OFFCURVE",
"1077 561 CURVE"
);
}
);
width = 1854;
}
);
leftMetricsKey = o;
rightMetricsKey = e;
unicode = 0153;
},
{
glyphname = p;
lastChange = "2021-11-17 04:04:56 +0000";
layers = (
{
anchors = (
{
name = bottom;
position = "{556, 0}";
},
{
name = top;
position = "{556, 1091}";
}
);
layerId = "0D9D1AFE-BAFC-449A-A530-9FCA9CDF2E2E";
paths = (
{
closed = 1;
nodes = (
"801 -11 OFFCURVE",
"1034 165 OFFCURVE",
"1034 573 CURVE SMOOTH",
"1034 933 OFFCURVE",
"852 1113 OFFCURVE",
"628 1113 CURVE SMOOTH",
"427 1113 OFFCURVE",
"317 969 OFFCURVE",
"301 867 CURVE",
"301 791 LINE",
"334 893 OFFCURVE",
"446 997 OFFCURVE",
"605 997 CURVE SMOOTH",
"784 997 OFFCURVE",
"908 864 OFFCURVE",
"908 576 CURVE SMOOTH",
"908 275 OFFCURVE",
"772 106 OFFCURVE",
"585 106 CURVE SMOOTH",
"438 106 OFFCURVE",
"330 210 OFFCURVE",
"301 256 CURVE",
"256 229 LINE",
"290 194 LINE",
"301 131 OFFCURVE",
"400 -11 OFFCURVE",
"590 -11 CURVE SMOOTH"
);
},
{
closed = 1;
nodes = (
"303 -403 LINE",
"302 0 LINE",
"290 194 LINE",
"301 256 LINE",
"301 944 LINE",
"301 1091 LINE",
"181 1091 LINE",
"181 -403 LINE"
);
}
);
width = 1132;
},
{
anchors = (
{
name = bottom;
position = "{591, 0}";
},
{
name = top;
position = "{591, 1091}";
}
);
layerId = "09AB1441-CF14-483D-884E-606841830E4D";
paths = (
{
closed = 1;
nodes = (
"879 -12 OFFCURVE",
"1093 177 OFFCURVE",
"1093 568 CURVE SMOOTH",
"1093 877 OFFCURVE",
"954 1112 OFFCURVE",
"688 1112 CURVE SMOOTH",
"447 1112 OFFCURVE",
"379 945 OFFCURVE",
"379 869 CURVE",
"379 795 LINE",
"392 838 OFFCURVE",
"457 919 OFFCURVE",
"614 919 CURVE SMOOTH",
"756 919 OFFCURVE",
"862 785 OFFCURVE",
"862 545 CURVE SMOOTH",
"862 265 OFFCURVE",
"748 158 OFFCURVE",
"598 158 CURVE SMOOTH",
"457 158 OFFCURVE",
"390 207 OFFCURVE",
"379 256 CURVE",
"292 189 LINE",
"366 194 LINE",
"380 125 OFFCURVE",
"447 -12 OFFCURVE",
"672 -12 CURVE SMOOTH"
);
},
{
closed = 1;
nodes = (
"379 -403 LINE",
"379 -1 LINE",
"366 194 LINE",
"379 256 LINE",
"379 944 LINE",
"376 1092 LINE",
"155 1092 LINE",
"155 -403 LINE"
);
}
);
width = 1181;
},
{
anchors = (
{
name = bottom;
position = "{615, 0}";
},
{
name = top;
position = "{615, 1091}";
}
);
layerId = "BF6BC6F6-4B2A-4E9B-9E28-8B62B2F12FD9";
paths = (
{
closed = 1;
nodes = (
"970 -13 OFFCURVE",
"1144 194 OFFCURVE",
"1144 553 CURVE SMOOTH",
"1144 892 OFFCURVE",
"993 1112 OFFCURVE",
"740 1112 CURVE SMOOTH",
"566 1112 OFFCURVE",
"479 1007 OFFCURVE",
"443 847 CURVE",
"443 766 LINE",
"453 809 OFFCURVE",
"528 855 OFFCURVE",
"626 855 CURVE SMOOTH",
"760 855 OFFCURVE",
"833 754 OFFCURVE",
"833 553 CURVE SMOOTH",
"833 340 OFFCURVE",
"757 239 OFFCURVE",
"624 239 CURVE SMOOTH",
"524 239 OFFCURVE",
"463 285 OFFCURVE",
"443 361 CURVE",
"308 193 LINE",
"430 193 LINE",
"454 81 OFFCURVE",
"555 -13 OFFCURVE",
"718 -13 CURVE SMOOTH"
);
},
{
closed = 1;
nodes = (
"443 -403 LINE",
"443 -1 LINE",
"430 193 LINE",
"443 288 LINE",
"443 918 LINE",
"437 1091 LINE",
"133 1091 LINE",
"133 -403 LINE"
);
}
);
width = 1219;
}
);
leftMetricsKey = h;
rightMetricsKey = "=|d";
unicode = 0070;
},
{
glyphname = thorn;
lastChange = "2021-11-16 19:31:17 +0000";
layers = (
{
anchors = (
{
name = bottom;
position = "{566, 0}";
},
{
name = top;
position = "{566, 1091}";
}
);
layerId = "0D9D1AFE-BAFC-449A-A530-9FCA9CDF2E2E";
paths = (
{
closed = 1;
nodes = (
"790 -11 OFFCURVE",
"1023 165 OFFCURVE",
"1023 573 CURVE SMOOTH",
"1023 933 OFFCURVE",
"841 1113 OFFCURVE",
"617 1113 CURVE SMOOTH",
"416 1113 OFFCURVE",
"306 969 OFFCURVE",
"290 867 CURVE",
"290 791 LINE",
"323 893 OFFCURVE",
"435 997 OFFCURVE",
"594 997 CURVE SMOOTH",
"773 997 OFFCURVE",
"897 864 OFFCURVE",
"897 576 CURVE SMOOTH",
"897 275 OFFCURVE",
"761 106 OFFCURVE",
"574 106 CURVE SMOOTH",
"427 106 OFFCURVE",
"319 210 OFFCURVE",
"290 256 CURVE",
"245 229 LINE",
"279 194 LINE",
"290 131 OFFCURVE",
"389 -11 OFFCURVE",
"579 -11 CURVE SMOOTH"
);
},
{
closed = 1;
nodes = (
"292 -403 LINE",
"291 0 LINE",
"279 194 LINE",
"290 256 LINE",
"292 944 LINE",
"292 1556 LINE",
"170 1556 LINE",
"170 -403 LINE"
);
}
);
width = 1121;
},
{
anchors = (
{
name = bottom;
position = "{590, 0}";
},
{
name = top;
position = "{590, 1091}";
}
);
layerId = "09AB1441-CF14-483D-884E-606841830E4D";
paths = (
{
closed = 1;
nodes = (
"879 -12 OFFCURVE",
"1093 177 OFFCURVE",
"1093 568 CURVE SMOOTH",
"1093 877 OFFCURVE",
"954 1112 OFFCURVE",
"688 1112 CURVE SMOOTH",
"447 1112 OFFCURVE",
"379 945 OFFCURVE",
"379 869 CURVE",
"379 795 LINE",
"392 838 OFFCURVE",
"457 919 OFFCURVE",
"614 919 CURVE SMOOTH",
"756 919 OFFCURVE",
"862 785 OFFCURVE",
"862 545 CURVE SMOOTH",
"862 265 OFFCURVE",
"748 158 OFFCURVE",
"598 158 CURVE SMOOTH",
"457 158 OFFCURVE",
"390 207 OFFCURVE",
"379 256 CURVE",
"292 189 LINE",
"366 194 LINE",
"380 125 OFFCURVE",
"447 -12 OFFCURVE",
"672 -12 CURVE SMOOTH"
);
},
{
closed = 1;
nodes = (
"379 -403 LINE",
"379 -1 LINE",
"366 194 LINE",
"379 256 LINE",
"379 944 LINE",
"379 1555 LINE",
"155 1555 LINE",
"155 -403 LINE"
);
}
);
width = 1181;
},
{
anchors = (
{
name = bottom;
position = "{599, 0}";
},
{
name = top;
position = "{599, 1091}";
}
);
layerId = "BF6BC6F6-4B2A-4E9B-9E28-8B62B2F12FD9";
paths = (
{
closed = 1;
nodes = (
"969 -13 OFFCURVE",
"1143 194 OFFCURVE",
"1143 553 CURVE SMOOTH",
"1143 892 OFFCURVE",
"991 1112 OFFCURVE",
"738 1112 CURVE SMOOTH",
"565 1112 OFFCURVE",
"477 1007 OFFCURVE",
"441 847 CURVE",
"441 766 LINE",
"452 809 OFFCURVE",
"526 855 OFFCURVE",
"625 855 CURVE SMOOTH",
"758 855 OFFCURVE",
"831.009 754.009 OFFCURVE",
"831 553 CURVE SMOOTH",
"831 340 OFFCURVE",
"755 239 OFFCURVE",
"623 239 CURVE SMOOTH",
"523 239 OFFCURVE",
"461 285 OFFCURVE",
"441 361 CURVE",
"307 193 LINE",
"428 193 LINE",
"452 81 OFFCURVE",
"553 -13 OFFCURVE",
"716 -13 CURVE SMOOTH"
);
},
{
closed = 1;
nodes = (
"441 -403 LINE",
"441 -1 LINE",
"428 193 LINE",
"441 288 LINE",
"441 980 LINE",
"441 1563 LINE",
"131 1563 LINE",
"131 -403 LINE"
);
}
);
width = 1218;
}
);
rightMetricsKey = "=|d";
unicode = 00FE;
},
{
glyphname = q;
lastChange = "2021-11-17 04:04:56 +0000";
layers = (
{
anchors = (
{
name = bottom;
position = "{576, 0}";
},
{
name = top;
position = "{576, 1091}";
}
);
layerId = "0D9D1AFE-BAFC-449A-A530-9FCA9CDF2E2E";
paths = (
{
closed = 1;
nodes = (
"715 -12 OFFCURVE",
"812 129 OFFCURVE",
"830 232 CURVE",
"846 248 LINE",
"830 313 LINE",
"796 207 OFFCURVE",
"699 104 OFFCURVE",
"562 104 CURVE SMOOTH",
"358 104 OFFCURVE",
"224 254 OFFCURVE",
"224 547 CURVE SMOOTH",
"224 846 OFFCURVE",
"358 996 OFFCURVE",
"562 996 CURVE SMOOTH",
"704 996 OFFCURVE",
"819 896 OFFCURVE",
"830 846 CURVE",
"886 911 LINE",
"844 903 LINE",
"829 975 OFFCURVE",
"762 1112 OFFCURVE",
"534 1112 CURVE SMOOTH",
"327 1112 OFFCURVE",
"98 943 OFFCURVE",
"98 555 CURVE SMOOTH",
"98 187 OFFCURVE",
"290 -12 OFFCURVE",
"534 -12 CURVE SMOOTH"
);
},
{
closed = 1;
nodes = (
"950 -403 LINE",
"950 1091 LINE",
"830 1091 LINE",
"828 893 LINE",
"830 -403 LINE"
);
}
);
width = 1131;
},
{
anchors = (
{
name = bottom;
position = "{591, 0}";
},
{
name = top;
position = "{591, 1091}";
}
);
layerId = "09AB1441-CF14-483D-884E-606841830E4D";
paths = (
{
closed = 1;
nodes = (
"746 -12 OFFCURVE",
"805 158 OFFCURVE",
"813 231 CURVE",
"822 248 LINE",
"813 311 LINE",
"800 268 OFFCURVE",
"733 171 OFFCURVE",
"573 171 CURVE SMOOTH",
"426 171 OFFCURVE",
"318 309 OFFCURVE",
"318 547 CURVE SMOOTH",
"318 815 OFFCURVE",
"434 922 OFFCURVE",
"594 922 CURVE SMOOTH",
"735 922 OFFCURVE",
"797 869 OFFCURVE",
"813 828 CURVE",
"890 911 LINE",
"822 906 LINE",
"808 975 OFFCURVE",
"750 1112 OFFCURVE",
"521 1112 CURVE SMOOTH",
"305 1112 OFFCURVE",
"88 923 OFFCURVE",
"88 532 CURVE SMOOTH",
"88 227 OFFCURVE",
"231 -12 OFFCURVE",
"515 -12 CURVE SMOOTH"
);
},
{
closed = 1;
nodes = (
"1037 -403 LINE",
"1037 1091 LINE",
"813 1091 LINE",
"813 893 LINE",
"813 -403 LINE"
);
}
);
width = 1192;
},
{
anchors = (
{
name = bottom;
position = "{615, 0}";
},
{
name = top;
position = "{615, 1091}";
}
);
layerId = "BF6BC6F6-4B2A-4E9B-9E28-8B62B2F12FD9";
paths = (
{
closed = 1;
nodes = (
"655 -13 OFFCURVE",
"741 90 OFFCURVE",
"779 243 CURVE",
"799 280 LINE",
"779 326 LINE",
"768 287 OFFCURVE",
"693 242 OFFCURVE",
"594 242 CURVE SMOOTH",
"459 242 OFFCURVE",
"386 344 OFFCURVE",
"386 545 CURVE SMOOTH",
"386 755 OFFCURVE",
"463 856 OFFCURVE",
"597 856 CURVE SMOOTH",
"697 856 OFFCURVE",
"757 809 OFFCURVE",
"779 734 CURVE",
"902 911 LINE",
"791.009 906 LINE",
"767 1018 OFFCURVE",
"668 1112 OFFCURVE",
"504 1112 CURVE SMOOTH",
"249 1112 OFFCURVE",
"75 905 OFFCURVE",
"75 547 CURVE SMOOTH",
"75 208 OFFCURVE",
"227 -13 OFFCURVE",
"484 -13 CURVE SMOOTH"
);
},
{
closed = 1;
nodes = (
"1089 -403 LINE",
"1089 1091 LINE",
"794 1091 LINE",
"779 856 LINE",
"779 -403 LINE"
);
}
);
width = 1222;
}
);
leftMetricsKey = d;
rightMetricsKey = "=|h";
unicode = 0071;
},
{
glyphname = r;
lastChange = "2021-11-17 04:04:56 +0000";
layers = (
{
anchors = (
{
name = bottom;
position = "{239, 0}";
},
{
name = top;
position = "{359, 1091}";
}
);
layerId = "0D9D1AFE-BAFC-449A-A530-9FCA9CDF2E2E";
paths = (
{
closed = 1;
nodes = (
"300 0 LINE",
"300 736 LINE",
"397 928 OFFCURVE",
"492 991 OFFCURVE",
"635 991 CURVE SMOOTH",
"647 991 OFFCURVE",
"659 991 OFFCURVE",
"669 987 CURVE",
"669 1109 LINE",
"656 1112 OFFCURVE",
"643 1114 OFFCURVE",
"629 1114 CURVE SMOOTH",
"385 1114 OFFCURVE",
"288 888 OFFCURVE",
"269 729 CURVE",
"292 673 LINE",
"281 1091 LINE",
"180 1091 LINE",
"180 0 LINE"
);
}
);
width = 704;
},
{
anchors = (
{
name = bottom;
position = "{279, 0}";
},
{
name = top;
position = "{418, 1091}";
}
);
layerId = "09AB1441-CF14-483D-884E-606841830E4D";
paths = (
{
closed = 1;
nodes = (
"380 0 LINE",
"380 736 LINE",
"412 832 OFFCURVE",
"528 882 OFFCURVE",
"600 882 CURVE SMOOTH",
"644 882 OFFCURVE",
"699 879 OFFCURVE",
"746 863 CURVE",
"746 1105 LINE",
"722 1111 OFFCURVE",
"696 1114 OFFCURVE",
"669 1114 CURVE SMOOTH",
"441 1114 OFFCURVE",
"369 898 OFFCURVE",
"350 729 CURVE",
"372 672 LINE",
"346 1092 LINE",
"155 1092 LINE",
"155 0 LINE"
);
}
);
width = 781;
},
{
anchors = (
{
name = bottom;
position = "{291, 0}";
},
{
name = top;
position = "{462, 1091}";
}
);
layerId = "BF6BC6F6-4B2A-4E9B-9E28-8B62B2F12FD9";
paths = (
{
closed = 1;
nodes = (
"444 0 LINE",
"444 705 LINE",
"488 768 OFFCURVE",
"565 798 OFFCURVE",
"676 798 CURVE SMOOTH",
"717 798 OFFCURVE",
"759 794 OFFCURVE",
"804 782 CURVE",
"804 1105 LINE",
"782 1111 OFFCURVE",
"754 1114 OFFCURVE",
"727 1114 CURVE SMOOTH",
"543 1114 OFFCURVE",
"443 957 OFFCURVE",
"418 729 CURVE",
"436 664 LINE",
"410 1092 LINE",
"132 1092 LINE",
"132 0 LINE"
);
}
);
width = 823;
}
);
leftMetricsKey = n;
unicode = 0072;
},
{
glyphname = s;
lastChange = "2021-11-17 04:04:56 +0000";
layers = (
{
anchors = (
{
name = bottom;
position = "{490, 0}";
},
{
name = top;
position = "{481, 1091}";
}
);
layerId = "0D9D1AFE-BAFC-449A-A530-9FCA9CDF2E2E";
paths = (
{
closed = 1;
nodes = (
"728 -17 OFFCURVE",
"895 96 OFFCURVE",
"895 301 CURVE SMOOTH",
"895 530 OFFCURVE",
"653 563 OFFCURVE",
"527 600 CURVE SMOOTH",
"390 640 OFFCURVE",
"265 675 OFFCURVE",
"265 823 CURVE SMOOTH",
"265 968 OFFCURVE",
"380 994 OFFCURVE",
"491 994 CURVE SMOOTH",
"671 994 OFFCURVE",
"721 889 OFFCURVE",
"723 794 CURVE",
"850 794 LINE",
"837 1017 OFFCURVE",
"687 1111 OFFCURVE",
"492 1111 CURVE SMOOTH",
"271 1111 OFFCURVE",
"139 982 OFFCURVE",
"139 822 CURVE SMOOTH",
"139 601 OFFCURVE",
"320 542 OFFCURVE",
"494 491 CURVE SMOOTH",
"609 458 OFFCURVE",
"769 454 OFFCURVE",
"769 287 CURVE SMOOTH",
"769 141 OFFCURVE",
"643 98 OFFCURVE",
"500 98 CURVE SMOOTH",
"341 98 OFFCURVE",
"248 143 OFFCURVE",
"218 309 CURVE",
"88 309 LINE",
"106 76 OFFCURVE",
"297 -17 OFFCURVE",
"497 -17 CURVE SMOOTH"
);
}
);
width = 980;
},
{
anchors = (
{
name = bottom;
position = "{513, 0}";
},
{
name = top;
position = "{510, 1091}";
}
);
layerId = "09AB1441-CF14-483D-884E-606841830E4D";
paths = (
{
closed = 1;
nodes = (
"772 -17 OFFCURVE",
"940 106 OFFCURVE",
"940 311 CURVE SMOOTH",
"940 540 OFFCURVE",
"730 581 OFFCURVE",
"560 633 CURVE SMOOTH",
"405 680 OFFCURVE",
"327 713 OFFCURVE",
"327 805 CURVE SMOOTH",
"327 880 OFFCURVE",
"389 930 OFFCURVE",
"489 930 CURVE SMOOTH",
"578 930 OFFCURVE",
"656 899 OFFCURVE",
"688 784 CURVE",
"905 784 LINE",
"873 1026 OFFCURVE",
"707 1111 OFFCURVE",
"490 1111 CURVE SMOOTH",
"267 1111 OFFCURVE",
"110 992 OFFCURVE",
"110 802 CURVE SMOOTH",
"110 587 OFFCURVE",
"275 511 OFFCURVE",
"487 449 CURVE SMOOTH",
"645 403 OFFCURVE",
"723 381 OFFCURVE",
"723 294 CURVE SMOOTH",
"723 197 OFFCURVE",
"635 165 OFFCURVE",
"513 165 CURVE SMOOTH",
"405 165 OFFCURVE",
"324 205 OFFCURVE",
"305 319 CURVE",
"88 319 LINE",
"100 85 OFFCURVE",
"277 -17 OFFCURVE",
"520 -17 CURVE SMOOTH"
);
}
);
width = 1025;
},
{
anchors = (
{
name = bottom;
position = "{532, 0}";
},
{
name = top;
position = "{526, 1091}";
}
);
layerId = "BF6BC6F6-4B2A-4E9B-9E28-8B62B2F12FD9";
paths = (
{
closed = 1;
nodes = (
"798 -17 OFFCURVE",
"974 106 OFFCURVE",
"974 320 CURVE SMOOTH",
"974 565 OFFCURVE",
"742 611 OFFCURVE",
"609 647 CURVE SMOOTH",
"457 688 OFFCURVE",
"387 725 OFFCURVE",
"387 801 CURVE SMOOTH",
"387 864 OFFCURVE",
"439 897 OFFCURVE",
"508 897 CURVE SMOOTH",
"567 897 OFFCURVE",
"628 876 OFFCURVE",
"647 749 CURVE",
"948 747 LINE",
"914 1035 OFFCURVE",
"743 1111 OFFCURVE",
"516 1111 CURVE SMOOTH",
"257 1111 OFFCURVE",
"83 1007 OFFCURVE",
"83 790 CURVE SMOOTH",
"83 571 OFFCURVE",
"252 495 OFFCURVE",
"440 439 CURVE SMOOTH",
"581 397 OFFCURVE",
"667 386 OFFCURVE",
"667 303 CURVE SMOOTH",
"667 226 OFFCURVE",
"594 205 OFFCURVE",
"523 205 CURVE SMOOTH",
"427 205 OFFCURVE",
"369 254 OFFCURVE",
"357 361 CURVE",
"54 361 LINE",
"65 104 OFFCURVE",
"233 -17 OFFCURVE",
"516 -17 CURVE SMOOTH"
);
}
);
width = 1038;
}
);
unicode = 0073;
},
{
glyphname = germandbls;
lastChange = "2021-11-17 04:04:56 +0000";
layers = (
{
layerId = "0D9D1AFE-BAFC-449A-A530-9FCA9CDF2E2E";
paths = (
{
closed = 1;
nodes = (
"270 0 LINE",
"270 1138 LINE SMOOTH",
"270 1394 OFFCURVE",
"414 1471 OFFCURVE",
"569 1471 CURVE SMOOTH",
"758 1471 OFFCURVE",
"808 1347 OFFCURVE",
"804 1226 CURVE SMOOTH",
"797 1042 OFFCURVE",
"667 921 OFFCURVE",
"488 921 CURVE",
"452 921 LINE",
"452 805 LINE",
"488 805 LINE",
"721 813 OFFCURVE",
"883 715 OFFCURVE",
"883 457 CURVE SMOOTH",
"883 239 OFFCURVE",
"786 103 OFFCURVE",
"512 103 CURVE",
"477 103 OFFCURVE",
"443 105 OFFCURVE",
"408 111 CURVE",
"408 -4 LINE",
"454 -9 OFFCURVE",
"501 -8 OFFCURVE",
"547 -10 CURVE",
"848 -10 OFFCURVE",
"1009 172 OFFCURVE",
"1009 460 CURVE SMOOTH",
"1009 637 OFFCURVE",
"918 845 OFFCURVE",
"664 882 CURVE",
"827 949 OFFCURVE",
"924 1087 OFFCURVE",
"928 1225 CURVE SMOOTH",
"935 1421 OFFCURVE",
"815 1586 OFFCURVE",
"569 1586 CURVE SMOOTH",
"353 1586 OFFCURVE",
"150 1466 OFFCURVE",
"150 1135 CURVE SMOOTH",
"150 0 LINE"
);
}
);
width = 1084;
},
{
layerId = "09AB1441-CF14-483D-884E-606841830E4D";
paths = (
{
closed = 1;
nodes = (
"356 0 LINE",
"356 1071 LINE SMOOTH",
"356 1287 OFFCURVE",
"425 1393 OFFCURVE",
"606 1393 CURVE SMOOTH",
"737 1393 OFFCURVE",
"812 1342 OFFCURVE",
"812 1185 CURVE SMOOTH",
"812 1026 OFFCURVE",
"734 951 OFFCURVE",
"543 951 CURVE",
"500 951 LINE",
"500 752 LINE",
"543 752 LINE",
"762 752 OFFCURVE",
"873 666 OFFCURVE",
"873 476 CURVE SMOOTH",
"873 297 OFFCURVE",
"807 188 OFFCURVE",
"578 188 CURVE SMOOTH",
"532 189 OFFCURVE",
"511 190 OFFCURVE",
"471 199 CURVE",
"471 -6 LINE",
"523 -9 OFFCURVE",
"571 -10 OFFCURVE",
"613 -10 CURVE",
"941 -10 OFFCURVE",
"1115 201 OFFCURVE",
"1115 485 CURVE SMOOTH",
"1115 628 OFFCURVE",
"1050 837 OFFCURVE",
"774 885 CURVE",
"980 942 OFFCURVE",
"1030 1086 OFFCURVE",
"1030 1205 CURVE SMOOTH",
"1030 1410 OFFCURVE",
"892 1586 OFFCURVE",
"606 1586 CURVE SMOOTH",
"338 1586 OFFCURVE",
"135 1436 OFFCURVE",
"135 1082 CURVE SMOOTH",
"135 0 LINE"
);
}
);
width = 1180;
},
{
layerId = "BF6BC6F6-4B2A-4E9B-9E28-8B62B2F12FD9";
paths = (
{
closed = 1;
nodes = (
"425 0 LINE",
"425 1077 LINE SMOOTH",
"425 1280 OFFCURVE",
"477 1356 OFFCURVE",
"601 1356 CURVE SMOOTH",
"718 1356 OFFCURVE",
"766 1289 OFFCURVE",
"766 1173 CURVE SMOOTH",
"766 1048 OFFCURVE",
"708 955 OFFCURVE",
"593 955 CURVE",
"527 955 LINE",
"527 740 LINE",
"607 740 LINE",
"734 740 OFFCURVE",
"849 688 OFFCURVE",
"849 495 CURVE SMOOTH",
"849 333 OFFCURVE",
"774 237 OFFCURVE",
"624 237 CURVE SMOOTH",
"587 237 OFFCURVE",
"530 242 OFFCURVE",
"518 251 CURVE",
"518 -1 LINE",
"560 -5 OFFCURVE",
"600 -8 OFFCURVE",
"640 -8 CURVE SMOOTH",
"979 -8 OFFCURVE",
"1169 210 OFFCURVE",
"1169 497 CURVE SMOOTH",
"1169 695 OFFCURVE",
"1072 855 OFFCURVE",
"795 880 CURVE",
"981 927 OFFCURVE",
"1061 1059 OFFCURVE",
"1061 1216 CURVE SMOOTH",
"1061 1447 OFFCURVE",
"891 1591 OFFCURVE",
"610 1591 CURVE SMOOTH",
"312 1591 OFFCURVE",
"116 1431 OFFCURVE",
"116 1046 CURVE SMOOTH",
"116 0 LINE"
);
}
);
width = 1210;
}
);
unicode = 00DF;
},
{
glyphname = t;
lastChange = "2021-11-17 04:04:56 +0000";
layers = (
{
anchors = (
{
name = bottom;
position = "{468, 0}";
},
{
name = center;
position = "{388, 546}";
},
{
name = top;
position = "{388, 1091}";
},
{
name = topright;
position = "{478, 1091}";
}
);
layerId = "0D9D1AFE-BAFC-449A-A530-9FCA9CDF2E2E";
paths = (
{
closed = 1;
nodes = (
"547 -12 OFFCURVE",
"621 -10 OFFCURVE",
"694 3 CURVE",
"694 119 LINE",
"621 108 OFFCURVE",
"592 106 OFFCURVE",
"504 106 CURVE SMOOTH",
"407 106 OFFCURVE",
"359 128 OFFCURVE",
"359 229 CURVE SMOOTH",
"359 1414 LINE",
"272 1414 LINE",
"239 1091 LINE",
"239 1048 LINE",
"290 976 LINE",
"257 965 OFFCURVE",
"239 922 OFFCURVE",
"239 879 CURVE SMOOTH",
"239 237 LINE SMOOTH",
"239 76 OFFCURVE",
"310 -12 OFFCURVE",
"478 -12 CURVE SMOOTH"
);
},
{
closed = 1;
nodes = (
"666 976 LINE",
"666 1092 LINE",
"61 1092 LINE",
"61 976 LINE"
);
}
);
width = 746;
},
{
anchors = (
{
name = bottom;
position = "{536, 0}";
},
{
name = center;
position = "{394, 546}";
},
{
name = top;
position = "{394, 1091}";
},
{
name = topright;
position = "{486, 1091}";
}
);
layerId = "09AB1441-CF14-483D-884E-606841830E4D";
paths = (
{
closed = 1;
nodes = (
"555 -16 OFFCURVE",
"641 -16 OFFCURVE",
"714 -4 CURVE",
"714 190 LINE",
"672 190 OFFCURVE",
"620 190 OFFCURVE",
"561 190 CURVE SMOOTH",
"463 190 OFFCURVE",
"435 215 OFFCURVE",
"435 291 CURVE SMOOTH",
"435 1404 LINE",
"266 1404 LINE",
"213 1076 LINE",
"213 1048 LINE",
"264 892 LINE",
"231 881 OFFCURVE",
"213 841 OFFCURVE",
"213 799 CURVE SMOOTH",
"213 237 LINE SMOOTH",
"213 76 OFFCURVE",
"314 -16 OFFCURVE",
"486 -16 CURVE SMOOTH"
);
},
{
closed = 1;
nodes = (
"717 892 LINE",
"717 1092 LINE",
"66 1092 LINE",
"66 892 LINE"
);
}
);
width = 789;
},
{
anchors = (
{
name = bottom;
position = "{498, 0}";
},
{
name = center;
position = "{396, 546}";
},
{
name = top;
position = "{396, 1091}";
},
{
name = topright;
position = "{519, 1091}";
}
);
layerId = "BF6BC6F6-4B2A-4E9B-9E28-8B62B2F12FD9";
paths = (
{
closed = 1;
nodes = (
"569 -13 OFFCURVE",
"675 -13 OFFCURVE",
"723 4 CURVE",
"723 249 LINE",
"683 242 OFFCURVE",
"642 240 OFFCURVE",
"576 240 CURVE SMOOTH",
"509 240 OFFCURVE",
"491 270 OFFCURVE",
"491 364 CURVE SMOOTH",
"491 1404 LINE",
"238 1404 LINE",
"181 1081 LINE",
"181 1048 LINE",
"263 849 LINE",
"211 839 OFFCURVE",
"181 806 OFFCURVE",
"181 756 CURVE SMOOTH",
"184 268 LINE SMOOTH",
"184 76 OFFCURVE",
"290 -13 OFFCURVE",
"470 -13 CURVE SMOOTH"
);
},
{
closed = 1;
nodes = (
"716 849 LINE",
"716 1092 LINE",
"65 1092 LINE",
"65 849 LINE"
);
}
);
width = 787;
}
);
unicode = 0074;
},
{
glyphname = tbar;
lastChange = "2021-11-16 19:31:17 +0000";
layers = (
{
layerId = "0D9D1AFE-BAFC-449A-A530-9FCA9CDF2E2E";
paths = (
{
closed = 1;
nodes = (
"547 -12 OFFCURVE",
"621 -10 OFFCURVE",
"694 3 CURVE",
"694 119 LINE",
"621 108 OFFCURVE",
"592 106 OFFCURVE",
"504 106 CURVE SMOOTH",
"407 106 OFFCURVE",
"359 128 OFFCURVE",
"359 229 CURVE SMOOTH",
"359 1414 LINE",
"272 1414 LINE",
"239 1091 LINE",
"239 1048 LINE",
"290 976 LINE",
"257 965 OFFCURVE",
"239 922 OFFCURVE",
"239 879 CURVE SMOOTH",
"239 237 LINE SMOOTH",
"239 76 OFFCURVE",
"310 -12 OFFCURVE",
"478 -12 CURVE SMOOTH"
);
},
{
closed = 1;
nodes = (
"666 583 LINE",
"666 699 LINE",
"61 699 LINE",
"61 583 LINE"
);
},
{
closed = 1;
nodes = (
"666 976 LINE",
"666 1092 LINE",
"61 1092 LINE",
"61 976 LINE"
);
}
);
width = 776;
},
{
layerId = "09AB1441-CF14-483D-884E-606841830E4D";
paths = (
{
closed = 1;
nodes = (
"557 -12 OFFCURVE",
"631 -12 OFFCURVE",
"704 0 CURVE",
"704 194 LINE",
"662 194 OFFCURVE",
"622 194 OFFCURVE",
"563 194 CURVE SMOOTH",
"465 194 OFFCURVE",
"437 219 OFFCURVE",
"437 295 CURVE SMOOTH",
"437 1404 LINE",
"268 1404 LINE",
"215 1076 LINE",
"215 1048 LINE",
"266 892 LINE",
"233 881 OFFCURVE",
"215 841 OFFCURVE",
"215 799 CURVE SMOOTH",
"215 237 LINE SMOOTH",
"215 76 OFFCURVE",
"316 -12 OFFCURVE",
"488 -12 CURVE SMOOTH"
);
},
{
closed = 1;
nodes = (
"716 474 LINE",
"716 674 LINE",
"68 674 LINE",
"68 474 LINE"
);
},
{
closed = 1;
nodes = (
"719 892 LINE",
"719 1092 LINE",
"68 1092 LINE",
"68 892 LINE"
);
}
);
width = 791;
},
{
layerId = "BF6BC6F6-4B2A-4E9B-9E28-8B62B2F12FD9";
paths = (
{
closed = 1;
nodes = (
"558 -12 OFFCURVE",
"650 -12 OFFCURVE",
"698 5 CURVE",
"698 250 LINE",
"658 243 OFFCURVE",
"620 240 OFFCURVE",
"565 240 CURVE SMOOTH",
"498 240 OFFCURVE",
"480 271 OFFCURVE",
"480 365 CURVE SMOOTH",
"480 1404 LINE",
"227 1404 LINE",
"170 1081 LINE",
"170 1048 LINE",
"252 849 LINE",
"200 839 OFFCURVE",
"170 806 OFFCURVE",
"170 756 CURVE SMOOTH",
"172 268 LINE SMOOTH",
"173 76 OFFCURVE",
"279 -12 OFFCURVE",
"459 -12 CURVE SMOOTH"
);
},
{
closed = 1;
nodes = (
"704 435 LINE",
"701 679 LINE",
"54 679 LINE",
"57 435 LINE"
);
},
{
closed = 1;
nodes = (
"705 849 LINE",
"705 1092 LINE",
"54 1092 LINE",
"54 849 LINE"
);
}
);
width = 769;
}
);
unicode = 0167;
},
{
glyphname = u;
lastChange = "2021-11-17 04:04:56 +0000";
layers = (
{
anchors = (
{
name = bottom;
position = "{542, 0}";
},
{
name = ogonek;
position = "{940, 0}";
},
{
name = top;
position = "{555, 1091}";
},
{
name = topright;
position = "{1096, 1091}";
}
);
layerId = "0D9D1AFE-BAFC-449A-A530-9FCA9CDF2E2E";
paths = (
{
closed = 1;
nodes = (
"671 -22 OFFCURVE",
"818 118 OFFCURVE",
"846 329 CURVE",
"822 323 LINE",
"835 0 LINE",
"940 0 LINE",
"940 1091 LINE",
"820 1091 LINE",
"820 346 LINE",
"721 160 OFFCURVE",
"636 96 OFFCURVE",
"486 96 CURVE SMOOTH",
"350 97 OFFCURVE",
"290 174 OFFCURVE",
"290 353 CURVE SMOOTH",
"290 1091 LINE",
"170 1091 LINE",
"170 313 LINE SMOOTH",
"170 108 OFFCURVE",
"291 -22 OFFCURVE",
"479 -22 CURVE SMOOTH"
);
}
);
width = 1120;
},
{
anchors = (
{
name = bottom;
position = "{577, 0}";
},
{
name = ogonek;
position = "{1003, 0}";
},
{
name = top;
position = "{577, 1091}";
},
{
name = topright;
position = "{1138, 1091}";
}
);
layerId = "09AB1441-CF14-483D-884E-606841830E4D";
paths = (
{
closed = 1;
nodes = (
"697 -22 OFFCURVE",
"780 149 OFFCURVE",
"804 329 CURVE",
"786 412 LINE",
"812 0 LINE",
"1003 0 LINE",
"1003 1092 LINE",
"778 1092 LINE",
"778 329 LINE",
"744 256 OFFCURVE",
"654 186 OFFCURVE",
"552 186 CURVE SMOOTH",
"421 186 OFFCURVE",
"370 261 OFFCURVE",
"370 416 CURVE SMOOTH",
"370 1092 LINE",
"145 1092 LINE",
"145 359 LINE SMOOTH",
"145 115 OFFCURVE",
"271 -22 OFFCURVE",
"459 -22 CURVE SMOOTH"
);
}
);
width = 1158;
},
{
anchors = (
{
name = bottom;
position = "{610, 0}";
},
{
name = ogonek;
position = "{1067, 0}";
},
{
name = top;
position = "{610, 1091}";
},
{
name = topright;
position = "{1165, 1091}";
}
);
layerId = "BF6BC6F6-4B2A-4E9B-9E28-8B62B2F12FD9";
paths = (
{
closed = 1;
nodes = (
"671 -22 OFFCURVE",
"753 149 OFFCURVE",
"777 329 CURVE",
"765 412 LINE",
"793 0 LINE",
"1069 0 LINE",
"1069 1092 LINE",
"757 1092 LINE",
"757 368 LINE",
"723 295 OFFCURVE",
"652 232 OFFCURVE",
"569 232 CURVE SMOOTH",
"485 232 OFFCURVE",
"434 276 OFFCURVE",
"434 478 CURVE SMOOTH",
"434 1092 LINE",
"122 1092 LINE",
"122 374 LINE SMOOTH",
"122 108 OFFCURVE",
"236 -22 OFFCURVE",
"434 -22 CURVE SMOOTH"
);
}
);
width = 1201;
}
);
leftMetricsKey = "=|n";
rightMetricsKey = "=|n";
unicode = 0075;
},
{
glyphname = v;
lastChange = "2021-11-17 04:04:56 +0000";
layers = (
{
anchors = (
{
name = bottom;
position = "{521, 0}";
},
{
name = top;
position = "{521, 1091}";
}
);
layerId = "0D9D1AFE-BAFC-449A-A530-9FCA9CDF2E2E";
paths = (
{
closed = 1;
nodes = (
"587 0 LINE",
"1001 1091 LINE",
"866 1091 LINE",
"692 595 LINE",
"523 133 LINE",
"519 133 LINE",
"349 596 LINE",
"175 1091 LINE",
"40 1091 LINE",
"455 0 LINE"
);
}
);
width = 1041;
},
{
anchors = (
{
name = bottom;
position = "{544, 0}";
},
{
name = top;
position = "{544, 1091}";
}
);
layerId = "09AB1441-CF14-483D-884E-606841830E4D";
paths = (
{
closed = 1;
nodes = (
"666 0 LINE",
"1047 1091 LINE",
"790 1091 LINE",
"650 595 LINE",
"548 223 LINE",
"539 223 LINE",
"437 596 LINE",
"298 1091 LINE",
"40 1091 LINE",
"422 0 LINE"
);
}
);
width = 1087;
},
{
anchors = (
{
name = bottom;
position = "{557, 0}";
},
{
name = top;
position = "{557, 1091}";
}
);
layerId = "BF6BC6F6-4B2A-4E9B-9E28-8B62B2F12FD9";
paths = (
{
closed = 1;
nodes = (
"723 0 LINE",
"1090 1091 LINE",
"754 1091 LINE",
"609 507 LINE",
"561 294 LINE",
"552 294 LINE",
"504 508 LINE",
"359 1091 LINE",
"23 1091 LINE",
"391.009 0 LINE"
);
}
);
width = 1113;
}
);
rightMetricsKey = "=|";
unicode = 0076;
},
{
glyphname = w;
lastChange = "2021-11-17 04:04:56 +0000";
layers = (
{
anchors = (
{
name = bottom;
position = "{760, 0}";
},
{
name = top;
position = "{760, 1091}";
}
);
layerId = "0D9D1AFE-BAFC-449A-A530-9FCA9CDF2E2E";
paths = (
{
closed = 1;
nodes = (
"519 0 LINE",
"673 575 LINE",
"758 955 LINE",
"762 955 LINE",
"847 575 LINE",
"1001 0 LINE",
"1151 0 LINE",
"1500 1091 LINE",
"1363 1091 LINE",
"1219 596 LINE",
"1083 109 LINE",
"1079 109 LINE",
"967 585 LINE",
"836 1091 LINE",
"684 1091 LINE",
"552 584 LINE",
"441 109 LINE",
"437 109 LINE",
"301 596 LINE",
"157 1091 LINE",
"20 1091 LINE",
"369 0 LINE"
);
}
);
width = 1520;
},
{
anchors = (
{
name = bottom;
position = "{828, 0}";
},
{
name = top;
position = "{828, 1091}";
}
);
layerId = "09AB1441-CF14-483D-884E-606841830E4D";
paths = (
{
closed = 1;
nodes = (
"621 0 LINE",
"754 524 LINE",
"820 841 LINE",
"837 841 LINE",
"900 525 LINE",
"1034 0 LINE",
"1296 0 LINE",
"1630 1091 LINE",
"1381 1091 LINE",
"1240 545 LINE",
"1170 182 LINE",
"1155 181 LINE",
"1102 545 LINE",
"970 1091 LINE",
"685 1091 LINE",
"551 547 LINE",
"497 193 LINE",
"484 194 LINE",
"416 546 LINE",
"275 1091 LINE",
"25 1091 LINE",
"360 0 LINE"
);
}
);
width = 1655;
},
{
anchors = (
{
name = bottom;
position = "{860, 0}";
},
{
name = top;
position = "{860, 1091}";
}
);
layerId = "BF6BC6F6-4B2A-4E9B-9E28-8B62B2F12FD9";
paths = (
{
closed = 1;
nodes = (
"694 0 LINE",
"803 486 LINE",
"854 802 LINE",
"866 802 LINE",
"915 486 LINE",
"1026 0 LINE",
"1395 0 LINE",
"1704 1091 LINE",
"1380 1091 LINE",
"1281 569 LINE",
"1221 246 LINE",
"1211 245 LINE",
"1159 569 LINE",
"1052 1091 LINE",
"666 1091 LINE",
"560 569 LINE",
"508 248 LINE",
"498 248 LINE",
"438 569 LINE",
"339 1091 LINE",
"15 1091 LINE",
"324 0 LINE"
);
}
);
width = 1719;
}
);
rightMetricsKey = "=|";
unicode = 0077;
},
{
glyphname = x;
lastChange = "2021-11-17 04:04:56 +0000";
layers = (
{
anchors = (
{
name = bottom;
position = "{486, 0}";
},
{
name = top;
position = "{486, 1091}";
}
);
layerId = "0D9D1AFE-BAFC-449A-A530-9FCA9CDF2E2E";
paths = (
{
closed = 1;
nodes = (
"184 0 LINE",
"417 367 LINE",
"480 469 LINE",
"543 368 LINE",
"787 0 LINE",
"928 0 LINE",
"528 590 LINE",
"528 500 LINE",
"928 1091 LINE",
"787 1091 LINE",
"546 721 LINE",
"486 620 LINE",
"421 722 LINE",
"185 1091 LINE",
"44 1091 LINE",
"434 500 LINE",
"434 590 LINE",
"44 0 LINE"
);
}
);
width = 972;
},
{
anchors = (
{
name = bottom;
position = "{560, 0}";
},
{
name = top;
position = "{560, 1091}";
}
);
layerId = "09AB1441-CF14-483D-884E-606841830E4D";
paths = (
{
closed = 1;
nodes = (
"292 0 LINE",
"452 301 LINE",
"500 420 LINE",
"563 308 LINE",
"735 0 LINE",
"1018 0 LINE",
"610 623 LINE",
"607 461 LINE",
"998 1091 LINE",
"725 1091 LINE",
"582 788 LINE",
"536 660 LINE",
"472 792 LINE",
"319 1091 LINE",
"42 1091 LINE",
"429 461 LINE",
"426 623 LINE",
"20 0 LINE"
);
}
);
width = 1038;
},
{
anchors = (
{
name = bottom;
position = "{567, 0}";
},
{
name = top;
position = "{567, 1091}";
}
);
layerId = "BF6BC6F6-4B2A-4E9B-9E28-8B62B2F12FD9";
paths = (
{
closed = 1;
nodes = (
"380 0 LINE",
"481 226 LINE",
"536 385 LINE",
"604 227 LINE",
"707 0 LINE",
"1061 0 LINE",
"688 652 LINE",
"688 421 LINE",
"1057 1091 LINE",
"713 1091 LINE",
"604 849 LINE",
"549 692 LINE",
"486 850 LINE",
"375 1091 LINE",
"31 1091 LINE",
"400 420 LINE",
"397 650 LINE",
"26 0 LINE"
);
}
);
width = 1087;
}
);
rightMetricsKey = "=|";
unicode = 0078;
},
{
glyphname = y;
lastChange = "2021-11-17 04:04:56 +0000";
layers = (
{
anchors = (
{
name = bottom;
position = "{804, 60}";
},
{
name = top;
position = "{494, 1091}";
}
);
layerId = "0D9D1AFE-BAFC-449A-A530-9FCA9CDF2E2E";
paths = (
{
closed = 1;
nodes = (
"193 -431 LINE SMOOTH",
"455 -431 OFFCURVE",
"460 -262 OFFCURVE",
"554 0 CURVE SMOOTH",
"947 1091 LINE",
"812 1091 LINE",
"643 596 LINE",
"490 133 LINE",
"485 133 LINE",
"335 596 LINE",
"171 1091 LINE",
"36 1091 LINE",
"420 0 LINE",
"462 0 LINE",
"434 -13 OFFCURVE",
"429 -41 OFFCURVE",
"401 -127 CURVE SMOOTH",
"366 -233 OFFCURVE",
"338 -313 OFFCURVE",
"193 -313 CURVE SMOOTH",
"112 -313 LINE",
"112 -431 LINE"
);
}
);
width = 977;
},
{
anchors = (
{
name = bottom;
position = "{860, 57}";
},
{
name = top;
position = "{521, 1091}";
}
);
layerId = "09AB1441-CF14-483D-884E-606841830E4D";
paths = (
{
closed = 1;
nodes = (
"220 -431 LINE SMOOTH",
"482 -431 OFFCURVE",
"573 -265 OFFCURVE",
"659 0 CURVE SMOOTH",
"1011 1091 LINE",
"761 1091 LINE",
"639 605 LINE",
"541 223 LINE",
"532 223 LINE",
"424 606 LINE",
"301 1091 LINE",
"50 1091 LINE",
"405 0 LINE",
"477 0 LINE",
"451 -13 OFFCURVE",
"435 -39 OFFCURVE",
"420 -100 CURVE SMOOTH",
"401 -177 OFFCURVE",
"364 -217 OFFCURVE",
"220 -217 CURVE SMOOTH",
"139 -217 LINE",
"139 -431 LINE"
);
}
);
width = 1041;
},
{
anchors = (
{
name = bottom;
position = "{917, 57}";
},
{
name = top;
position = "{543, 1091}";
}
);
layerId = "BF6BC6F6-4B2A-4E9B-9E28-8B62B2F12FD9";
paths = (
{
closed = 1;
nodes = (
"249 -431 LINE SMOOTH",
"530 -431 OFFCURVE",
"645 -267 OFFCURVE",
"730 0 CURVE SMOOTH",
"1076 1091 LINE",
"742 1091 LINE",
"603 507 LINE",
"557 296 LINE",
"548 296 LINE",
"498 508 LINE",
"353 1091 LINE",
"17 1091 LINE",
"380 0 LINE",
"501 0 LINE",
"476 -8 OFFCURVE",
"462 -27 OFFCURVE",
"445 -72 CURVE SMOOTH",
"422 -131 OFFCURVE",
"393 -167 OFFCURVE",
"249 -167 CURVE SMOOTH",
"130 -167 LINE",
"130 -431 LINE"
);
}
);
width = 1088;
}
);
unicode = 0079;
},
{
glyphname = z;
lastChange = "2021-11-17 04:04:56 +0000";
layers = (
{
anchors = (
{
name = bottom;
position = "{490, 0}";
},
{
name = center;
position = "{490, 546}";
},
{
name = top;
position = "{500, 1091}";
}
);
layerId = "0D9D1AFE-BAFC-449A-A530-9FCA9CDF2E2E";
paths = (
{
closed = 1;
nodes = (
"925 0 LINE",
"925 108 LINE",
"406 108 LINE",
"340 108 OFFCURVE",
"275 102 OFFCURVE",
"209 96 CURVE",
"212 87 LINE",
"263 109 OFFCURVE",
"304 175 OFFCURVE",
"353 248 CURVE SMOOTH",
"911 1091 LINE",
"126 1091 LINE",
"126 984 LINE",
"559 984 LINE",
"632 984 OFFCURVE",
"705 988 OFFCURVE",
"778 993 CURVE",
"767 1006 LINE",
"713 974 OFFCURVE",
"675 935 OFFCURVE",
"607 832 CURVE SMOOTH",
"58 0 LINE"
);
}
);
width = 980;
},
{
anchors = (
{
name = bottom;
position = "{475, 0}";
},
{
name = center;
position = "{475, 546}";
},
{
name = top;
position = "{481, 1091}";
}
);
layerId = "09AB1441-CF14-483D-884E-606841830E4D";
paths = (
{
closed = 1;
nodes = (
"890 0 LINE",
"890 191 LINE",
"476 191 LINE",
"414 191 OFFCURVE",
"338 184 OFFCURVE",
"269 181 CURVE",
"280 151 LINE",
"340 190 OFFCURVE",
"402 241 OFFCURVE",
"448 318 CURVE SMOOTH",
"910 1091 LINE",
"102 1091 LINE",
"102 901 LINE",
"429 901 LINE",
"494 901 OFFCURVE",
"576 908 OFFCURVE",
"650 912 CURVE",
"621 915 LINE",
"570 884 OFFCURVE",
"528 833 OFFCURVE",
"486 763 CURVE SMOOTH",
"30 0 LINE"
);
}
);
width = 950;
},
{
anchors = (
{
name = bottom;
position = "{493, 0}";
},
{
name = center;
position = "{493, 546}";
},
{
name = top;
position = "{510, 1091}";
}
);
layerId = "BF6BC6F6-4B2A-4E9B-9E28-8B62B2F12FD9";
paths = (
{
closed = 1;
nodes = (
"926 0 LINE",
"926 250 LINE",
"570 250 LINE",
"508 250 OFFCURVE",
"404 232 OFFCURVE",
"321 224 CURVE",
"323 180 LINE",
"407 212 OFFCURVE",
"476 255 OFFCURVE",
"532 353 CURVE SMOOTH",
"959 1091 LINE",
"90 1091 LINE",
"90 843 LINE",
"396 843 LINE",
"468 843 OFFCURVE",
"567 866 OFFCURVE",
"652 878 CURVE",
"623 896 LINE",
"554 875 OFFCURVE",
"505 838 OFFCURVE",
"464 769 CURVE SMOOTH",
"14 0 LINE"
);
}
);
width = 980;
}
);
unicode = 007A;
},
{
glyphname = g.ss02.alt;
lastChange = "2021-11-17 04:04:56 +0000";
layers = (
{
anchors = (
{
name = bottom;
position = "{493, -462}";
},
{
name = top;
position = "{503, 1091}";
}
);
layerId = "0D9D1AFE-BAFC-449A-A530-9FCA9CDF2E2E";
paths = (
{
closed = 1;
nodes = (
"750 1134 OFFCURVE",
"767 1176 OFFCURVE",
"869 1176 CURVE SMOOTH",
"899 1176 OFFCURVE",
"939 1172 OFFCURVE",
"983 1167 CURVE",
"983 1292 LINE",
"961 1298 OFFCURVE",
"944 1301 OFFCURVE",
"889 1301 CURVE SMOOTH",
"789 1301 OFFCURVE",
"699 1209 OFFCURVE",
"674 1081 CURVE",
"685 1071 LINE"
);
},
{
closed = 1;
nodes = (
"780 -451 OFFCURVE",
"1026 -347 OFFCURVE",
"1026 -89 CURVE SMOOTH",
"1026 25 OFFCURVE",
"964 134 OFFCURVE",
"716 165 CURVE SMOOTH",
"461 196 LINE SMOOTH",
"310 215 OFFCURVE",
"245 244 OFFCURVE",
"245 310 CURVE SMOOTH",
"245 371 OFFCURVE",
"284 409 OFFCURVE",
"339 428 CURVE",
"216 434 OFFCURVE",
"125 384 OFFCURVE",
"125 283 CURVE SMOOTH",
"125 215 OFFCURVE",
"158 120 OFFCURVE",
"422 87 CURVE SMOOTH",
"669 56 LINE SMOOTH",
"856 33 OFFCURVE",
"899 -7 OFFCURVE",
"900 -94 CURVE SMOOTH",
"901 -242 OFFCURVE",
"789 -340 OFFCURVE",
"539 -340 CURVE SMOOTH",
"256 -340 OFFCURVE",
"155 -227 OFFCURVE",
"155 -112 CURVE SMOOTH",
"155 43 OFFCURVE",
"231 89 OFFCURVE",
"316 122 CURVE",
"290 128 LINE",
"76 111 OFFCURVE",
"30 -6 OFFCURVE",
"30 -121 CURVE SMOOTH",
"30 -335 OFFCURVE",
"265 -451 OFFCURVE",
"536 -451 CURVE SMOOTH"
);
},
{
closed = 1;
nodes = (
"762 384 OFFCURVE",
"912 523 OFFCURVE",
"912 749 CURVE SMOOTH",
"912 969 OFFCURVE",
"763 1108 OFFCURVE",
"521 1110 CURVE SMOOTH",
"282 1112 OFFCURVE",
"126 968 OFFCURVE",
"126 744 CURVE SMOOTH",
"126 525 OFFCURVE",
"276 384 OFFCURVE",
"519 384 CURVE SMOOTH"
);
},
{
closed = 1;
nodes = (
"346 496 OFFCURVE",
"241 588 OFFCURVE",
"241 745 CURVE SMOOTH",
"241 912 OFFCURVE",
"332 998 OFFCURVE",
"516 998 CURVE SMOOTH",
"693 998 OFFCURVE",
"797 906 OFFCURVE",
"797 749 CURVE SMOOTH",
"797 585 OFFCURVE",
"694 496 OFFCURVE",
"522 496 CURVE SMOOTH"
);
}
);
width = 999;
},
{
anchors = (
{
name = bottom;
position = "{478, -462}";
},
{
name = top;
position = "{498, 1091}";
}
);
layerId = "09AB1441-CF14-483D-884E-606841830E4D";
paths = (
{
closed = 1;
nodes = (
"729 1124 OFFCURVE",
"829 1111 OFFCURVE",
"857 1111 CURVE SMOOTH",
"888 1111 OFFCURVE",
"928 1107 OFFCURVE",
"971 1102 CURVE",
"971 1312 LINE",
"949 1318 OFFCURVE",
"921 1321 OFFCURVE",
"893 1321 CURVE SMOOTH",
"795 1321 OFFCURVE",
"680 1259 OFFCURVE",
"665 1081 CURVE",
"675 1071 LINE"
);
},
{
closed = 1;
nodes = (
"839 -454 OFFCURVE",
"1009 -325 OFFCURVE",
"1009 -108 CURVE SMOOTH",
"1009 24 OFFCURVE",
"946 151 OFFCURVE",
"654 193 CURVE SMOOTH",
"416 227 LINE SMOOTH",
"316 241 OFFCURVE",
"282 266 OFFCURVE",
"282 328 CURVE SMOOTH",
"282 384 OFFCURVE",
"308 409 OFFCURVE",
"346 428 CURVE",
"278 435 OFFCURVE",
"79 397 OFFCURVE",
"79 249 CURVE SMOOTH",
"79 182 OFFCURVE",
"120 83 OFFCURVE",
"378 45 CURVE SMOOTH",
"617 10 LINE SMOOTH",
"749 -9 OFFCURVE",
"786 -36 OFFCURVE",
"786 -108 CURVE SMOOTH",
"786 -214 OFFCURVE",
"706 -267 OFFCURVE",
"525 -267 CURVE SMOOTH",
"309 -267 OFFCURVE",
"246 -189 OFFCURVE",
"246 -84 CURVE SMOOTH",
"246 -2 OFFCURVE",
"284 48 OFFCURVE",
"313 78 CURVE",
"261 83 LINE",
"158 76 OFFCURVE",
"28 4 OFFCURVE",
"28 -144 CURVE SMOOTH",
"28 -325 OFFCURVE",
"222 -454 OFFCURVE",
"530 -454 CURVE SMOOTH"
);
},
{
closed = 1;
nodes = (
"773 384 OFFCURVE",
"939 523 OFFCURVE",
"939 744 CURVE SMOOTH",
"939 973 OFFCURVE",
"761 1107 OFFCURVE",
"530 1110 CURVE SMOOTH",
"287 1114 OFFCURVE",
"117 972 OFFCURVE",
"117 747 CURVE SMOOTH",
"117 525 OFFCURVE",
"283 384 OFFCURVE",
"528 384 CURVE SMOOTH"
);
},
{
closed = 1;
nodes = (
"396 558 OFFCURVE",
"327 627 OFFCURVE",
"327 750 CURVE SMOOTH",
"327 869 OFFCURVE",
"395 936 OFFCURVE",
"527 936 CURVE SMOOTH",
"661 936 OFFCURVE",
"730 867 OFFCURVE",
"730 745 CURVE SMOOTH",
"730 625 OFFCURVE",
"662 558 OFFCURVE",
"529 558 CURVE SMOOTH"
);
}
);
width = 968;
},
{
anchors = (
{
name = bottom;
position = "{518, -462}";
},
{
name = top;
position = "{522, 1091}";
}
);
layerId = "BF6BC6F6-4B2A-4E9B-9E28-8B62B2F12FD9";
paths = (
{
closed = 1;
nodes = (
"841 1097 OFFCURVE",
"905 1095 OFFCURVE",
"943 1095 CURVE SMOOTH",
"976 1095 OFFCURVE",
"1013 1088 OFFCURVE",
"1081 1075 CURVE",
"1081 1341 LINE",
"1055 1347 OFFCURVE",
"1025 1350 OFFCURVE",
"1000 1350 CURVE SMOOTH",
"899 1350 OFFCURVE",
"785 1292 OFFCURVE",
"770 1066 CURVE",
"781 1056 LINE"
);
},
{
closed = 1;
nodes = (
"825 -458 OFFCURVE",
"1088 -325 OFFCURVE",
"1088 -80 CURVE SMOOTH",
"1088 77 OFFCURVE",
"1020 197 OFFCURVE",
"715 234 CURVE SMOOTH",
"445 269 LINE SMOOTH",
"344 281 OFFCURVE",
"318 301 OFFCURVE",
"318 347 CURVE SMOOTH",
"318 406 OFFCURVE",
"354 424 OFFCURVE",
"391 443 CURVE",
"314 450 OFFCURVE",
"90 389 OFFCURVE",
"90 235 CURVE SMOOTH",
"90 150 OFFCURVE",
"135 53 OFFCURVE",
"404 20 CURVE SMOOTH",
"643 -12 LINE SMOOTH",
"760 -26 OFFCURVE",
"798 -46 OFFCURVE",
"798 -104 CURVE SMOOTH",
"799 -182 OFFCURVE",
"710 -217 OFFCURVE",
"557 -217 CURVE SMOOTH",
"361 -217 OFFCURVE",
"283 -165 OFFCURVE",
"283 -48 CURVE SMOOTH",
"283 -1 OFFCURVE",
"300 30 OFFCURVE",
"328 54 CURVE",
"287 49 LINE",
"140 52 OFFCURVE",
"27 -18 OFFCURVE",
"27 -144 CURVE SMOOTH",
"27 -339 OFFCURVE",
"236 -458 OFFCURVE",
"565 -458 CURVE SMOOTH"
);
},
{
closed = 1;
nodes = (
"857 384 OFFCURVE",
"1027 523 OFFCURVE",
"1027 744 CURVE SMOOTH",
"1027 970 OFFCURVE",
"854 1108 OFFCURVE",
"573 1110 CURVE SMOOTH",
"286 1112 OFFCURVE",
"115 971 OFFCURVE",
"115 749 CURVE SMOOTH",
"115 525 OFFCURVE",
"285 384 OFFCURVE",
"571 384 CURVE SMOOTH"
);
},
{
closed = 1;
nodes = (
"465 594 OFFCURVE",
"409 642 OFFCURVE",
"409 750 CURVE SMOOTH",
"409 854 OFFCURVE",
"464 900 OFFCURVE",
"570 900 CURVE SMOOTH",
"676 900 OFFCURVE",
"732 852 OFFCURVE",
"732 745 CURVE SMOOTH",
"732 640 OFFCURVE",
"677 594 OFFCURVE",
"572 594 CURVE SMOOTH"
);
}
);
width = 1069;
}
);
},
{
glyphname = g.ss02;
lastChange = "2021-11-17 04:02:04 +0000";
layers = (
{
anchors = (
{
name = bottom;
position = "{493, -462}";
},
{
name = top;
position = "{493, 1091}";
}
);
layerId = "0D9D1AFE-BAFC-449A-A530-9FCA9CDF2E2E";
paths = (
{
closed = 1;
nodes = (
"780 -451 OFFCURVE",
"1026 -347 OFFCURVE",
"1026 -89 CURVE SMOOTH",
"1026 25 OFFCURVE",
"964 134 OFFCURVE",
"716 165 CURVE SMOOTH",
"461 196 LINE SMOOTH",
"310 215 OFFCURVE",
"245 244 OFFCURVE",
"245 310 CURVE SMOOTH",
"245 371 OFFCURVE",
"284 409 OFFCURVE",
"339 428 CURVE",
"216 434 OFFCURVE",
"125 384 OFFCURVE",
"125 283 CURVE SMOOTH",
"125 215 OFFCURVE",
"158 120 OFFCURVE",
"422 87 CURVE SMOOTH",
"669 56 LINE SMOOTH",
"856 33 OFFCURVE",
"899 -7 OFFCURVE",
"900 -94 CURVE SMOOTH",
"901 -242 OFFCURVE",
"789 -340 OFFCURVE",
"539 -340 CURVE SMOOTH",
"256 -340 OFFCURVE",
"155 -227 OFFCURVE",
"155 -112 CURVE SMOOTH",
"155 43 OFFCURVE",
"231 89 OFFCURVE",
"316 122 CURVE",
"290 128 LINE",
"76 111 OFFCURVE",
"30 -6 OFFCURVE",
"30 -121 CURVE SMOOTH",
"30 -335 OFFCURVE",
"265 -451 OFFCURVE",
"536 -451 CURVE SMOOTH"
);
},
{
closed = 1;
nodes = (
"762 384 OFFCURVE",
"912 523 OFFCURVE",
"912 749 CURVE SMOOTH",
"912 969 OFFCURVE",
"763 1108 OFFCURVE",
"521 1110 CURVE SMOOTH",
"282 1112 OFFCURVE",
"126 968 OFFCURVE",
"126 744 CURVE SMOOTH",
"126 525 OFFCURVE",
"276 384 OFFCURVE",
"519 384 CURVE SMOOTH"
);
},
{
closed = 1;
nodes = (
"346 496 OFFCURVE",
"241 588 OFFCURVE",
"241 745 CURVE SMOOTH",
"241 912 OFFCURVE",
"332 998 OFFCURVE",
"516 998 CURVE SMOOTH",
"693 998 OFFCURVE",
"797 906 OFFCURVE",
"797 749 CURVE SMOOTH",
"797 585 OFFCURVE",
"694 496 OFFCURVE",
"522 496 CURVE SMOOTH"
);
},
{
closed = 1;
nodes = (
"694 1134 OFFCURVE",
"717 1176 OFFCURVE",
"837 1176 CURVE SMOOTH",
"872 1176 OFFCURVE",
"920 1172 OFFCURVE",
"958 1167 CURVE",
"958 1292 LINE",
"942 1298 OFFCURVE",
"922 1301 OFFCURVE",
"857 1301 CURVE SMOOTH",
"740 1301 OFFCURVE",
"634 1209 OFFCURVE",
"617 1081 CURVE",
"629 1071 LINE"
);
}
);
width = 999;
},
{
anchors = (
{
name = bottom;
position = "{467, -462}";
},
{
name = top;
position = "{467, 1091}";
}
);
layerId = "09AB1441-CF14-483D-884E-606841830E4D";
paths = (
{
closed = 1;
nodes = (
"839 -454 OFFCURVE",
"1009 -325 OFFCURVE",
"1009 -108 CURVE SMOOTH",
"1009 24 OFFCURVE",
"946 151 OFFCURVE",
"654 193 CURVE SMOOTH",
"416 227 LINE SMOOTH",
"316 241 OFFCURVE",
"282 266 OFFCURVE",
"282 328 CURVE SMOOTH",
"282 384 OFFCURVE",
"308 409 OFFCURVE",
"346 428 CURVE",
"278 435 OFFCURVE",
"79 397 OFFCURVE",
"79 249 CURVE SMOOTH",
"79 182 OFFCURVE",
"120 83 OFFCURVE",
"378 45 CURVE SMOOTH",
"617 10 LINE SMOOTH",
"749 -9 OFFCURVE",
"786 -36 OFFCURVE",
"786 -108 CURVE SMOOTH",
"786 -214 OFFCURVE",
"706 -267 OFFCURVE",
"525 -267 CURVE SMOOTH",
"309 -267 OFFCURVE",
"246 -189 OFFCURVE",
"246 -84 CURVE SMOOTH",
"246 -2 OFFCURVE",
"284 48 OFFCURVE",
"313 78 CURVE",
"261 83 LINE",
"158 76 OFFCURVE",
"28 4 OFFCURVE",
"28 -144 CURVE SMOOTH",
"28 -325 OFFCURVE",
"222 -454 OFFCURVE",
"530 -454 CURVE SMOOTH"
);
},
{
closed = 1;
nodes = (
"773 384 OFFCURVE",
"939 523 OFFCURVE",
"939 744 CURVE SMOOTH",
"939 973 OFFCURVE",
"761 1107 OFFCURVE",
"530 1110 CURVE SMOOTH",
"287 1114 OFFCURVE",
"117 972 OFFCURVE",
"117 747 CURVE SMOOTH",
"117 525 OFFCURVE",
"283 384 OFFCURVE",
"528 384 CURVE SMOOTH"
);
},
{
closed = 1;
nodes = (
"396 558 OFFCURVE",
"327 627 OFFCURVE",
"327 750 CURVE SMOOTH",
"327 869 OFFCURVE",
"395 936 OFFCURVE",
"527 936 CURVE SMOOTH",
"661 936 OFFCURVE",
"730 867 OFFCURVE",
"730 745 CURVE SMOOTH",
"730 625 OFFCURVE",
"662 558 OFFCURVE",
"529 558 CURVE SMOOTH"
);
},
{
closed = 1;
nodes = (
"696 1123 OFFCURVE",
"782 1114 OFFCURVE",
"839 1114 CURVE SMOOTH",
"899 1114 OFFCURVE",
"920 1109 OFFCURVE",
"962 1102 CURVE",
"962 1312 LINE",
"946 1318 OFFCURVE",
"922 1321 OFFCURVE",
"895 1321 CURVE SMOOTH",
"771 1321 OFFCURVE",
"644 1256 OFFCURVE",
"627 1081 CURVE",
"640 1071 LINE"
);
}
);
width = 968;
},
{
anchors = (
{
name = bottom;
position = "{515, -462}";
},
{
name = top;
position = "{515, 1091}";
}
);
layerId = "BF6BC6F6-4B2A-4E9B-9E28-8B62B2F12FD9";
paths = (
{
closed = 1;
nodes = (
"825 -458 OFFCURVE",
"1088 -325 OFFCURVE",
"1088 -80 CURVE SMOOTH",
"1088 77 OFFCURVE",
"1020 197 OFFCURVE",
"715 234 CURVE SMOOTH",
"445 269 LINE SMOOTH",
"344 281 OFFCURVE",
"318 301 OFFCURVE",
"318 347 CURVE SMOOTH",
"318 406 OFFCURVE",
"354 424 OFFCURVE",
"391 443 CURVE",
"314 450 OFFCURVE",
"90 389 OFFCURVE",
"90 235 CURVE SMOOTH",
"90 150 OFFCURVE",
"135 53 OFFCURVE",
"404 20 CURVE SMOOTH",
"643 -12 LINE SMOOTH",
"760 -26 OFFCURVE",
"798 -46 OFFCURVE",
"798 -104 CURVE SMOOTH",
"799 -182 OFFCURVE",
"710 -217 OFFCURVE",
"557 -217 CURVE SMOOTH",
"361 -217 OFFCURVE",
"283 -165 OFFCURVE",
"283 -48 CURVE SMOOTH",
"283 -1 OFFCURVE",
"300 30 OFFCURVE",
"328 54 CURVE",
"287 49 LINE",
"140 52 OFFCURVE",
"27 -18 OFFCURVE",
"27 -144 CURVE SMOOTH",
"27 -339 OFFCURVE",
"236 -458 OFFCURVE",
"565 -458 CURVE SMOOTH"
);
},
{
closed = 1;
nodes = (
"857 384 OFFCURVE",
"1027 523 OFFCURVE",
"1027 744 CURVE SMOOTH",
"1027 970 OFFCURVE",
"854 1108 OFFCURVE",
"573 1110 CURVE SMOOTH",
"286 1112 OFFCURVE",
"115 971 OFFCURVE",
"115 749 CURVE SMOOTH",
"115 525 OFFCURVE",
"285 384 OFFCURVE",
"571 384 CURVE SMOOTH"
);
},
{
closed = 1;
nodes = (
"465 594 OFFCURVE",
"409 642 OFFCURVE",
"409 750 CURVE SMOOTH",
"409 854 OFFCURVE",
"464 900 OFFCURVE",
"570 900 CURVE SMOOTH",
"676 900 OFFCURVE",
"732 852 OFFCURVE",
"732 745 CURVE SMOOTH",
"732 640 OFFCURVE",
"677 594 OFFCURVE",
"572 594 CURVE SMOOTH"
);
},
{
closed = 1;
nodes = (
"751 1119 OFFCURVE",
"833 1111 OFFCURVE",
"863 1111 CURVE SMOOTH",
"906 1111 OFFCURVE",
"970 1104 OFFCURVE",
"1032 1090 CURVE",
"1032 1356 LINE",
"1016 1363 OFFCURVE",
"982 1365 OFFCURVE",
"955 1365 CURVE SMOOTH",
"824 1365 OFFCURVE",
"692 1314 OFFCURVE",
"674 1089 CURVE",
"688 1079 LINE"
);
}
);
width = 1052;
}
);
},
{
glyphname = ordfeminine;
lastChange = "2021-11-17 04:04:56 +0000";
layers = (
{
anchors = (
{
name = bottom;
position = "{424, 639}";
},
{
name = ogonek;
position = "{772, 647}";
},
{
name = top;
position = "{430, 1468}";
}
);
layerId = "0D9D1AFE-BAFC-449A-A530-9FCA9CDF2E2E";
paths = (
{
closed = 1;
nodes = (
"464 630 OFFCURVE",
"582 702 OFFCURVE",
"617 817 CURVE",
"617 639 LINE",
"726 639 LINE",
"726 1198 LINE SMOOTH",
"726 1420 OFFCURVE",
"583 1484 OFFCURVE",
"418 1484 CURVE SMOOTH",
"205 1484 OFFCURVE",
"72 1379 OFFCURVE",
"92 1175 CURVE",
"202 1175 LINE",
"197 1345 OFFCURVE",
"292 1381 OFFCURVE",
"410 1381 CURVE SMOOTH",
"544 1381 OFFCURVE",
"617 1327 OFFCURVE",
"617 1180 CURVE SMOOTH",
"617 1119 LINE",
"519 1115 OFFCURVE",
"391 1109 OFFCURVE",
"299 1090 CURVE SMOOTH",
"143 1058 OFFCURVE",
"69 992 OFFCURVE",
"69 862 CURVE SMOOTH",
"69 731 OFFCURVE",
"159 630 OFFCURVE",
"325 630 CURVE SMOOTH"
);
},
{
closed = 1;
nodes = (
"229 721 OFFCURVE",
"189 792 OFFCURVE",
"189 869 CURVE SMOOTH",
"189 955 OFFCURVE",
"249 994 OFFCURVE",
"352 1020 CURVE SMOOTH",
"429 1039 OFFCURVE",
"530 1049 OFFCURVE",
"617 1054 CURVE",
"617 877 LINE",
"598 823 OFFCURVE",
"503 721 OFFCURVE",
"352 721 CURVE SMOOTH"
);
}
);
width = 834;
},
{
anchors = (
{
name = bottom;
position = "{459, 593}";
},
{
name = ogonek;
position = "{824, 601}";
},
{
name = top;
position = "{459, 1466}";
}
);
layerId = "09AB1441-CF14-483D-884E-606841830E4D";
paths = (
{
closed = 1;
nodes = (
"508 583 OFFCURVE",
"591 674 OFFCURVE",
"612 791 CURVE",
"609 593 LINE",
"815 593 LINE",
"815 1164 LINE SMOOTH",
"815 1415 OFFCURVE",
"651 1483 OFFCURVE",
"465 1483 CURVE SMOOTH",
"234 1483 OFFCURVE",
"73 1385 OFFCURVE",
"93 1152 CURVE",
"286 1152 LINE",
"288 1280 OFFCURVE",
"344 1310 OFFCURVE",
"454 1310 CURVE SMOOTH",
"568 1310 OFFCURVE",
"612 1258 OFFCURVE",
"612 1144 CURVE SMOOTH",
"612 1112 LINE",
"554 1108 OFFCURVE",
"415 1098 OFFCURVE",
"314 1078 CURVE SMOOTH",
"161 1047 OFFCURVE",
"64 980 OFFCURVE",
"64 823 CURVE SMOOTH",
"64 677 OFFCURVE",
"183 583 OFFCURVE",
"349 583 CURVE SMOOTH"
);
},
{
closed = 1;
nodes = (
"342 734 OFFCURVE",
"288 776 OFFCURVE",
"288 843 CURVE SMOOTH",
"288 919 OFFCURVE",
"337 955 OFFCURVE",
"457 979 CURVE SMOOTH",
"501 988 OFFCURVE",
"579 1000 OFFCURVE",
"612 1004 CURVE",
"612 851 LINE",
"593 779 OFFCURVE",
"491 734 OFFCURVE",
"408 734 CURVE SMOOTH"
);
}
);
width = 913;
},
{
anchors = (
{
name = bottom;
position = "{481, 593}";
},
{
name = ogonek;
position = "{852, 601}";
},
{
name = top;
position = "{481, 1466}";
}
);
layerId = "BF6BC6F6-4B2A-4E9B-9E28-8B62B2F12FD9";
paths = (
{
closed = 1;
nodes = (
"506 583 OFFCURVE",
"576 686 OFFCURVE",
"595 801 CURVE",
"594 593 LINE",
"876 593 LINE",
"876 1162 LINE SMOOTH",
"876 1415 OFFCURVE",
"680 1483 OFFCURVE",
"481 1483 CURVE SMOOTH",
"229 1483 OFFCURVE",
"54 1375 OFFCURVE",
"75 1140 CURVE",
"344 1140 LINE",
"341 1243 OFFCURVE",
"391 1267 OFFCURVE",
"473 1267 CURVE SMOOTH",
"565 1267 OFFCURVE",
"595 1236 OFFCURVE",
"595 1132 CURVE SMOOTH",
"595 1117 LINE",
"525 1112 OFFCURVE",
"418 1103 OFFCURVE",
"319 1086 CURVE SMOOTH",
"171 1059 OFFCURVE",
"52 993 OFFCURVE",
"52 829 CURVE SMOOTH",
"52 662 OFFCURVE",
"178 583 OFFCURVE",
"335 583 CURVE SMOOTH"
);
},
{
closed = 1;
nodes = (
"369 763 OFFCURVE",
"338 795 OFFCURVE",
"338 852 CURVE SMOOTH",
"338 912 OFFCURVE",
"372 952 OFFCURVE",
"474 974 CURVE SMOOTH",
"512 982 OFFCURVE",
"554 987 OFFCURVE",
"595 995 CURVE",
"595 870 LINE",
"582 806 OFFCURVE",
"507 763 OFFCURVE",
"432 763 CURVE SMOOTH"
);
}
);
width = 946;
}
);
unicode = 00AA;
userData = {
KernOnSpecialSpacing = {
L = superiors;
R = superiors;
};
};
},
{
glyphname = ordmasculine;
lastChange = "2021-11-17 04:04:56 +0000";
layers = (
{
anchors = (
{
name = bottom;
position = "{448, 643}";
},
{
name = center;
position = "{448, 1058}";
},
{
name = ogonek;
position = "{807, 651}";
},
{
name = top;
position = "{449, 1484}";
},
{
name = topright;
position = "{880, 1472}";
}
);
layerId = "0D9D1AFE-BAFC-449A-A530-9FCA9CDF2E2E";
paths = (
{
closed = 1;
nodes = (
"650 632 OFFCURVE",
"824 783 OFFCURVE",
"824 1063 CURVE SMOOTH",
"824 1327 OFFCURVE",
"675 1488 OFFCURVE",
"449 1488 CURVE SMOOTH",
"241 1488 OFFCURVE",
"72 1327 OFFCURVE",
"72 1063 CURVE SMOOTH",
"72 784 OFFCURVE",
"227 632 OFFCURVE",
"446 632 CURVE SMOOTH"
);
},
{
closed = 1;
nodes = (
"287 734 OFFCURVE",
"187 854 OFFCURVE",
"187 1063 CURVE SMOOTH",
"187 1267 OFFCURVE",
"287 1386 OFFCURVE",
"446 1386 CURVE SMOOTH",
"612 1386 OFFCURVE",
"710 1270 OFFCURVE",
"710 1063 CURVE SMOOTH",
"710 850 OFFCURVE",
"611 734 OFFCURVE",
"449 734 CURVE SMOOTH"
);
}
);
width = 896;
},
{
anchors = (
{
name = bottom;
position = "{477, 593}";
},
{
name = center;
position = "{477, 1030}";
},
{
name = ogonek;
position = "{859, 601}";
},
{
name = top;
position = "{477, 1466}";
},
{
name = topright;
position = "{938, 1466}";
}
);
layerId = "09AB1441-CF14-483D-884E-606841830E4D";
paths = (
{
closed = 1;
nodes = (
"716 581 OFFCURVE",
"899 740 OFFCURVE",
"899 1035 CURVE SMOOTH",
"899 1313 OFFCURVE",
"742 1483 OFFCURVE",
"478 1483 CURVE SMOOTH",
"233 1483 OFFCURVE",
"55 1313 OFFCURVE",
"55 1035 CURVE SMOOTH",
"55 740 OFFCURVE",
"219 581 OFFCURVE",
"475 581 CURVE SMOOTH"
);
},
{
closed = 1;
nodes = (
"353 757 OFFCURVE",
"267 844 OFFCURVE",
"267 1035 CURVE SMOOTH",
"267 1221 OFFCURVE",
"352 1307 OFFCURVE",
"475 1307 CURVE SMOOTH",
"606 1307 OFFCURVE",
"687 1220 OFFCURVE",
"687 1035 CURVE SMOOTH",
"687 834 OFFCURVE",
"600 757 OFFCURVE",
"478 757 CURVE SMOOTH"
);
}
);
width = 954;
},
{
anchors = (
{
name = bottom;
position = "{482, 593}";
},
{
name = center;
position = "{482, 1030}";
},
{
name = ogonek;
position = "{867, 601}";
},
{
name = top;
position = "{482, 1464}";
},
{
name = topright;
position = "{946, 1466}";
}
);
layerId = "BF6BC6F6-4B2A-4E9B-9E28-8B62B2F12FD9";
paths = (
{
closed = 1;
nodes = (
"739 581 OFFCURVE",
"925 740 OFFCURVE",
"925 1035 CURVE SMOOTH",
"925 1313 OFFCURVE",
"766 1483 OFFCURVE",
"483 1483 CURVE SMOOTH",
"218 1483 OFFCURVE",
"37 1313 OFFCURVE",
"37 1035 CURVE SMOOTH",
"37 740 OFFCURVE",
"204 581 OFFCURVE",
"479 581 CURVE SMOOTH"
);
},
{
closed = 1;
nodes = (
"390 812 OFFCURVE",
"320 867 OFFCURVE",
"320 1035 CURVE SMOOTH",
"320 1195 OFFCURVE",
"390 1252 OFFCURVE",
"480 1252 CURVE SMOOTH",
"572 1252 OFFCURVE",
"642 1197 OFFCURVE",
"642 1035 CURVE SMOOTH",
"642 860 OFFCURVE",
"571 812 OFFCURVE",
"483 812 CURVE SMOOTH"
);
}
);
width = 963;
}
);
unicode = 00BA;
userData = {
KernOnSpecialSpacing = {
L = superiors;
R = superiors;
};
};
},
